<?xml version="1.0" encoding="UTF-8" standalone="no"?>
<svg
   xmlns:dc="http://purl.org/dc/elements/1.1/"
   xmlns:cc="http://creativecommons.org/ns#"
   xmlns:rdf="http://www.w3.org/1999/02/22-rdf-syntax-ns#"
   xmlns:svg="http://www.w3.org/2000/svg"
   xmlns="http://www.w3.org/2000/svg"
   xmlns:sodipodi="http://sodipodi.sourceforge.net/DTD/sodipodi-0.dtd"
   xmlns:inkscape="http://www.inkscape.org/namespaces/inkscape"
   version="1.1"
   id="Layer_1"
   x="0px"
   y="0px"
   viewBox="0 0 60 60"
   width="60"
   height="60"
   xml:space="preserve"
   sodipodi:docname="adguardhome.svg"
   inkscape:version="1.0.2 (e86c870879, 2021-01-15)"><metadata
   id="metadata15"><rdf:RDF><cc:Work
       rdf:about=""><dc:format>image/svg+xml</dc:format><dc:type
         rdf:resource="http://purl.org/dc/dcmitype/StillImage" /><dc:title></dc:title></cc:Work></rdf:RDF></metadata><defs
   id="defs13" /><sodipodi:namedview
   pagecolor="#ffffff"
   bordercolor="#666666"
   borderopacity="1"
   objecttolerance="10"
   gridtolerance="10"
   guidetolerance="10"
   inkscape:pageopacity="0"
   inkscape:pageshadow="2"
   inkscape:window-width="1366"
   inkscape:window-height="704"
   id="namedview11"
   showgrid="false"
   inkscape:zoom="6.0104076"
   inkscape:cx="21.571564"
   inkscape:cy="29.855836"
   inkscape:window-x="0"
   inkscape:window-y="27"
   inkscape:window-maximized="1"
   inkscape:current-layer="g8" />
<style
   type="text/css"
   id="style2">
	.st0{fill:#68BC71;}
	.st1{fill:#67B279;}
	.st2{fill:#FFFFFF;}
</style>
<g
   id="g8">
	<g
   id="Group-7"
   transform="scale(0.9375)">
		<path
   id="Path_2_"
   class="st0"
   d="M 32,0 C 22.1,0 10.2,2.3 0.4,7.3 0.4,18.3 0.2,45.4 32,64 63.8,45.4 63.6,18.3 63.6,7.3 53.8,2.3 41.9,0 32,0 Z" />
		<path
   id="Combined-Shape_5_"
   class="st1"
   d="M 32,64 C 0.2,45.4 0.4,18.3 0.4,7.3 10.2,2.3 22.1,0 32,0 Z" />
	</g>
	<path
   id="Fill-11"
   class="st2"
   d="m 27.3,42.973634 19.2,-25.4 c -1.4,-1.1 -2.6,-0.3 -3.3,0.3 v 0 l -16,16.3 -6,-7.1 c -2.9,-3.3 -6.8,-0.8 -7.7,-0.1 z" />
</g>
</svg>
