<?xml version="1.0" encoding="utf-8"?>
<!-- Generator: Adobe Illustrator 28.2.0, SVG Export Plug-In . SVG Version: 6.00 Build 0)  -->
<svg version="1.1"
	 id="svg8" xmlns:inkscape="http://www.inkscape.org/namespaces/inkscape" xmlns:sodipodi="http://sodipodi.sourceforge.net/DTD/sodipodi-0.dtd" xmlns:svg="http://www.w3.org/2000/svg" xmlns:rdf="http://www.w3.org/1999/02/22-rdf-syntax-ns#" xmlns:dc="http://purl.org/dc/elements/1.1/" xmlns:cc="http://creativecommons.org/ns#"
	 xmlns="http://www.w3.org/2000/svg" xmlns:xlink="http://www.w3.org/1999/xlink" x="0px" y="0px" viewBox="0 0 512 512"
	 style="enable-background:new 0 0 512 512;" xml:space="preserve">
<style type="text/css">
	.st0{fill:#2F7BD9;}
</style>
<g id="g4559" transform="matrix(1.0343609,0,0,1.0868666,-2.0684717,-19.990901)">
	<path id="rect4504" class="st0" d="M14.9,233.3L14.9,233.3c7.1,0,12.9,5.8,12.9,12.9v74.7c0,7.1-5.8,12.9-12.9,12.9l0,0
		C7.8,333.8,2,328,2,320.9v-74.7C2,239.1,7.8,233.3,14.9,233.3z"/>
	<path id="rect4506" class="st0" d="M57.5,193.1L57.5,193.1c7.1,0,12.9,5.4,12.9,12.1v156.3c0,6.7-5.8,12.1-12.9,12.1l0,0
		c-7.1,0-12.9-5.4-12.9-12.1V205.3C44.7,198.6,50.4,193.1,57.5,193.1z"/>
	<path id="rect4508" class="st0" d="M100.2,177.2L100.2,177.2c7.1,0,12.9,5.8,12.9,12.9v185.9c0,7.1-5.8,12.9-12.9,12.9l0,0
		c-7.1,0-12.9-5.8-12.9-12.9V190.1C87.3,183,93.1,177.2,100.2,177.2z"/>
	<path id="rect4529" class="st0" d="M142.9,136.4L142.9,136.4c7.1,0,12.9,5.8,12.9,13.1v226.3c0,7.2-5.8,13.1-12.9,13.1l0,0
		c-7.1,0-12.9-5.8-12.9-13.1V149.5C130,142.3,135.7,136.4,142.9,136.4z"/>
	<path id="rect4531" class="st0" d="M185.5,120.5L185.5,120.5c7.1,0,12.9,5.8,12.9,12.9v242.6c0,7.1-5.8,12.9-12.9,12.9l0,0
		c-7.1,0-12.9-5.8-12.9-12.9V133.4C172.6,126.2,178.4,120.5,185.5,120.5z"/>
	<path id="rect4533" class="st0" d="M228.2,119L228.2,119c7.1,0,12.9,5.8,12.9,12.9v244c0,7.1-5.8,12.9-12.9,12.9h0
		c-7.1,0-12.9-5.8-12.9-12.9v-244C215.3,124.8,221,119,228.2,119z"/>
	<path id="rect4535" class="st0" d="M270.8,135.6L270.8,135.6c7.1,0,12.9,5.8,12.9,12.9v227.5c0,7.1-5.8,12.9-12.9,12.9h0
		c-7.1,0-12.9-5.8-12.9-12.9V148.5C257.9,141.3,263.7,135.6,270.8,135.6z"/>
	<path id="rect4537" class="st0" d="M313.5,176.3L313.5,176.3c7.1,0,12.9,5.8,12.9,12.9v186.7c0,7.1-5.8,12.9-12.9,12.9h0
		c-7.1,0-12.9-5.8-12.9-12.9V189.2C300.6,182.1,306.4,176.3,313.5,176.3z"/>
	<path id="rect4539" class="st0" d="M356.1,178.3L356.1,178.3c7.1,0,12.9,5.8,12.9,12.9v184.7c0,7.1-5.8,12.9-12.9,12.9h0
		c-7.1,0-12.9-5.8-12.9-12.9V191.2C343.2,184.1,349,178.3,356.1,178.3z"/>
	<path id="rect4541" class="st0" d="M398.8,198.8L398.8,198.8c7.1,0,12.9,5.8,12.9,12.9v164.2c0,7.1-5.8,12.9-12.9,12.9h0
		c-7.1,0-12.9-5.8-12.9-12.9V211.7C385.9,204.6,391.7,198.8,398.8,198.8z"/>
	<path id="rect4543" class="st0" d="M441.4,229.1L441.4,229.1c7.1,0,12.9,5.8,12.9,12.9v132.8c0,7.1-5.8,12.9-12.9,12.9h0
		c-7.1,0-12.9-5.8-12.9-12.9V241.9C428.6,234.8,434.3,229.1,441.4,229.1z"/>
	<path id="rect4545" class="st0" d="M484.1,260.1L484.1,260.1c7.1,0,12.9,5.8,12.9,12.9v70.4c0,7.1-5.8,12.9-12.9,12.9h0
		c-7.1,0-12.9-5.8-12.9-12.9V273C471.2,265.9,477,260.1,484.1,260.1z"/>
</g>
</svg>
