<?xml version="1.0" encoding="UTF-8" standalone="no"?>
<svg viewBox="0 0 1237.26 1237.26" version="1.1" id="svg113" sodipodi:docname="banner.svg" inkscape:version="1.1.2 (b8e25be8, 2022-02-05)" width="1237.26" height="1237.26" xmlns:inkscape="http://www.inkscape.org/namespaces/inkscape" xmlns:sodipodi="http://sodipodi.sourceforge.net/DTD/sodipodi-0.dtd" xmlns="http://www.w3.org/2000/svg" xmlns:svg="http://www.w3.org/2000/svg" xmlns:rdf="http://www.w3.org/1999/02/22-rdf-syntax-ns#" xmlns:cc="http://creativecommons.org/ns#" xmlns:dc="http://purl.org/dc/elements/1.1/">
  <sodipodi:namedview id="namedview115" pagecolor="#ffffff" bordercolor="#666666" borderopacity="1.0" inkscape:pageshadow="2" inkscape:pageopacity="0.0" inkscape:pagecheckerboard="0" showgrid="false" inkscape:zoom="0.17052753" inkscape:cx="2295.817" inkscape:cy="683.17415" inkscape:window-width="1312" inkscape:window-height="847" inkscape:window-x="0" inkscape:window-y="25" inkscape:window-maximized="0" inkscape:current-layer="Layer_2" fit-margin-top="0" fit-margin-left="0" fit-margin-right="0" fit-margin-bottom="0"/>
  <defs id="defs86">
    <style id="style79">.cls-1{fill:#fff;}.cls-2{fill:url(#linear-gradient);}.cls-3{font-size:800px;fill:#c9c9c9;font-family:GentiumBookBasic, Gentium Book Basic;}.cls-4{font-size:420px;fill:#474747;font-family:GentiumBasic, Gentium Basic;}</style>
    <linearGradient id="linear-gradient" x1="617.37" y1="20.700001" x2="617.37" y2="1216.5601" gradientUnits="userSpaceOnUse">
      <stop offset="0.32" stop-color="#cd9d49" id="stop81"/>
      <stop offset="0.99" stop-color="#875d27" id="stop83"/>
    </linearGradient>
  </defs>
  <title id="title88">bgAsset 6</title>
  <g id="Layer_2" data-name="Layer 2">
    <g id="Layer_2-2" data-name="Layer 2">
      <g id="Layer_4" data-name="Layer 4">
        <g id="Layer_5" data-name="Layer 5">
          <circle class="cls-1" cx="618.63" cy="618.63" r="618.63" id="circle90"/>
        </g>
        <circle class="cls-2" cx="617.37" cy="618.63" r="597.92999" id="circle93" style=""/>
      </g>
      <path class="cls-1" d="m 1005.57,574.08 c -4.84,-4 -12.37,-10 -22.58,-17 v -79.2 C 982.99,275.95 819.3,112.25 617.37,112.25 v 0 c -201.93,0 -365.63,163.7 -365.63,365.63 v 79.2 c -10.21,7 -17.74,13 -22.58,17 A 18.15,18.15 0 0 0 222.63,588 v 94.89 a 18.15,18.15 0 0 0 6.53,14 c 11.29,9.4 37.19,29.1 77.52,49.31 v 9.22 c 0,24.88 16,45 35.84,45 v 0 c 19.79,0 35.84,-20.16 35.84,-45 V 527.83 c 0,-24.87 -16.05,-45 -35.84,-45 v 0 c -19,0 -34.48,18.51 -35.75,41.94 h -0.09 v -46.9 c 0,-171.59 139.1,-310.69 310.69,-310.69 v 0 c 171.58,0 310.68,139.1 310.68,310.69 v 46.9 h -0.08 c -1.27,-23.43 -16.79,-41.94 -35.76,-41.94 v 0 c -19.79,0 -35.83,20.17 -35.83,45 V 755.4 c 0,24.88 16,45 35.83,45 v 0 c 19.8,0 35.84,-20.16 35.84,-45 v -9.22 c 40.33,-20.21 66.24,-39.91 77.52,-49.31 a 18.15,18.15 0 0 0 6.53,-14 V 588 a 18.15,18.15 0 0 0 -6.53,-13.92 z" id="path96"/>
      <path class="cls-1" d="m 489.87,969.71 a 43.31,43.31 0 0 0 43.3,-43.3 V 441.64 a 43.3,43.3 0 0 0 -43.3,-43.29 h -44.72 a 43.3,43.3 0 0 0 -43.3,43.29 v 484.77 a 43.31,43.31 0 0 0 43.3,43.3 z m -71.69,-455.1 h 98.67 v 10.31 h -98.67 z" id="path98"/>
      <path class="cls-1" d="M 639.73,969.71 A 43.3,43.3 0 0 0 683,926.41 V 441.64 A 43.29,43.29 0 0 0 639.71,398.35 H 595 a 43.29,43.29 0 0 0 -43.29,43.29 V 926.41 A 43.3,43.3 0 0 0 595,969.71 Z M 568,514.61 h 98.7 v 10.31 H 568 Z" id="path100"/>
      <path class="cls-1" d="m 789.59,969.71 a 43.3,43.3 0 0 0 43.29,-43.3 V 441.64 a 43.29,43.29 0 0 0 -43.29,-43.29 h -44.73 a 43.3,43.3 0 0 0 -43.3,43.29 v 484.77 a 43.31,43.31 0 0 0 43.3,43.3 z m -71.7,-455.1 h 98.67 v 10.31 h -98.67 z" id="path102"/>
      <rect class="cls-1" x="294.5" y="984.69" width="645.73999" height="65.25" rx="32.630001" id="rect104"/>
    </g>
  </g>
  <metadata id="metadata143">
    <rdf:RDF>
      <cc:Work rdf:about="">
        <dc:title>bgAsset 6</dc:title>
      </cc:Work>
    </rdf:RDF>
  </metadata>
</svg>