<?xml version="1.0" encoding="utf-8"?>
<!-- Generator: Adobe Illustrator 28.2.0, SVG Export Plug-In . SVG Version: 6.00 Build 0)  -->
<svg version="1.1" id="Layer_1" xmlns="http://www.w3.org/2000/svg" xmlns:xlink="http://www.w3.org/1999/xlink" x="0px" y="0px"
	 viewBox="0 0 512 512" style="enable-background:new 0 0 512 512;" xml:space="preserve">
<style type="text/css">
	.st0{fill:#0E0D0B;}
	.st1{fill:#9F3835;}
	.st2{fill:#1E6500;}
</style>
<g>
	<path class="st0" d="M246.8,105.5c11-9.4,21.3-18,31.5-26.8c14.3-12.5,28.3-25.2,42.7-37.5c1.4-1.2,5.1-1.4,6.4-0.4
		c1.2,0.9,1.6,4.7,0.7,6.3c-14.1,25.3-28.5,50.5-42.7,75.8c-2.1,3.8-3.7,7.9-6.1,13.2c6.1-1.5,10.9-2.5,15.6-3.8
		c26.5-7.3,52.4-6.5,77,6.4c20.2,10.6,34.8,27,46.6,46.3c11.6,19,19.8,39.2,25,60.7c3.3,13.4,0,26.3-3.6,39
		c-8.1,28.6-16.6,57-24.9,85.6c-0.7,2.3-0.9,4.8-0.8,7.2c1.2,41.4-5.2,81.7-17.1,121.2c-1.2,4.2-2.3,8.4-3.7,13.3
		c-8.4-10.4-15.6-20.7-24.2-29.7c-16.6-17.4-33.6-34.4-51.1-50.8c-8.8-8.2-18.5-15.9-28.9-21.8c-10.2-5.7-21.6-9.9-32.9-12.6
		c-16.4-4-33.3-6.2-50-8.8c-19.9-3.1-33.2-15.1-43.8-31.2c-11.5-17.4-20.9-35.7-24.1-56.6c-2.9-19-0.1-37.3,7.5-55
		c9.2-21.4,24.5-38,41.3-53.5c1.8-1.6,4-2.7,6-4.1c-0.3-0.9-0.7-1.8-1-2.8c-6.9-1.3-13.8-2.8-20.7-4C140.6,176,109.8,171,79,166
		c-2.6-0.4-5.4-0.1-7.9-1c-1.6-0.6-3.9-2.5-3.9-3.8c0-1.6,2-3.4,3.4-4.7c0.6-0.6,2.1-0.4,3.2-0.4c17.9-1,35.7-1.8,53.6-2.9
		c22.9-1.4,45.8-2.9,68.7-4.4c1.4-0.1,2.9-0.7,5.1-1.3c-4.5-13.8-8.8-27.1-13.2-40.4c-10.8-32.4-21.6-64.8-32.7-97.1
		c-1.7-5-1.2-7.9,4.7-10C188.5,34.7,217.4,69.8,246.8,105.5z M262.4,154.5c0.3-2.8-0.3-6.1,0.9-8.4c11.9-21.8,24.2-43.5,36.3-65.3
		c2.6-4.7,5.2-9.3,7.8-14c-0.5-0.4-1-0.9-1.6-1.3c-19.8,17.1-39.7,34.3-60.1,51.9c-24.9-30.2-49.1-59.6-73.3-88.9
		c-0.6,0.4-1.2,0.7-1.8,1.1c14,41.7,27.9,83.5,42.2,126.1c-33.2,2.2-64.9,4.2-96.6,6.3c0,0.6,0,1.3,0.1,1.9
		c10.4,1.8,20.7,3.6,31.1,5.3c22.6,3.6,45.2,7.1,67.7,10.9c1.4,0.2,2.5,2.7,3.8,4.2c-0.5,4.9-3.6,4.9-7.6,4.8
		c-3.2-0.1-7.3,0.3-9.7,2.2c-15.3,12.1-29.3,25.5-39.8,42.2c-14,22.2-19.8,46.1-13.9,72.1c5.3,23.2,17.6,42.7,32.7,60.6
		c2.7,3.3,6.5,6.7,10.4,7.8c14.3,4.1,28.8,7.7,43.5,10.5c17.9,3.5,37.1,3.8,52.7,14c18,11.8,35.4,24.9,51.3,39.5
		c16.5,15.2,30.9,32.7,46.3,49.2c1.6,1.8,3.5,3.3,5.9,5.5c0.6-3.1,0.8-4.8,1.3-6.5c9.7-34.6,14.6-69.9,14.1-105.8
		c0-3.5-0.2-7.2,0.7-10.5c7.6-26.9,15.2-53.8,23.3-80.6c5.8-19.2,9.8-38.3,0.9-57.4c-7.5-16.4-14.6-33.2-23.8-48.6
		c-11.8-19.7-28.7-34.6-51-42.2c-23.9-8.2-47.4-5.6-70.5,3.2c-4.9,1.9-10.4,3.5-14,6.9C268.5,153.8,266.1,155,262.4,154.5z"/>
	<path class="st1" d="M262.4,154.5c3.7,0.4,6.1-0.7,9-3.5c3.6-3.4,9.1-5,14-6.9c23.1-8.8,46.6-11.4,70.5-3.2
		c22.3,7.7,39.2,22.5,51,42.2c9.3,15.4,16.3,32.2,23.8,48.6c8.8,19.2,4.8,38.3-0.9,57.4c-8.1,26.8-15.7,53.7-23.3,80.6
		c-0.9,3.3-0.8,7-0.7,10.5c0.4,36-4.4,71.2-14.1,105.8c-0.5,1.7-0.7,3.4-1.3,6.5c-2.4-2.2-4.3-3.8-5.9-5.5
		c-15.4-16.5-29.7-34-46.3-49.2c-15.9-14.5-33.3-27.6-51.3-39.5c-15.6-10.2-34.7-10.5-52.7-14c-14.6-2.8-29.1-6.4-43.5-10.5
		c-3.9-1.1-7.6-4.6-10.4-7.8c-15-17.9-27.4-37.5-32.7-60.6c-5.9-26,0-49.9,13.9-72.1c10.5-16.6,24.5-30.1,39.8-42.2
		c2.4-1.9,6.4-2.2,9.7-2.2c4,0.1,7.1,0.1,7.6-4.8C233.4,174.4,247.9,164.5,262.4,154.5z"/>
	<path class="st2" d="M262.4,154.5c-14.5,9.9-29,19.9-43.6,29.8c-1.2-1.4-2.3-3.9-3.8-4.2c-22.5-3.8-45.1-7.3-67.7-10.9
		c-10.4-1.7-20.7-3.5-31.1-5.3c0-0.6,0-1.3-0.1-1.9c31.7-2.1,63.5-4.1,96.6-6.3c-14.3-42.7-28.2-84.4-42.2-126.1
		c0.6-0.4,1.2-0.7,1.8-1.1c24.2,29.4,48.4,58.7,73.3,88.9c20.4-17.6,40.2-34.7,60.1-51.9c0.5,0.4,1,0.9,1.6,1.3
		c-2.6,4.7-5.2,9.4-7.8,14c-12.1,21.7-24.4,43.4-36.3,65.3C262.1,148.4,262.7,151.7,262.4,154.5z"/>
</g>
</svg>
