<?xml version="1.0" encoding="utf-8"?>
<!-- Generator: Adobe Illustrator 28.2.0, SVG Export Plug-In . SVG Version: 6.00 Build 0)  -->
<svg version="1.1" id="Layer_1" xmlns="http://www.w3.org/2000/svg" xmlns:xlink="http://www.w3.org/1999/xlink" x="0px" y="0px"
	 viewBox="0 0 512 512" style="enable-background:new 0 0 512 512;" xml:space="preserve">
<style type="text/css">
	.st0{fill:#7B7D7F;}
	.st1{fill:#D1D2D4;}
	.st2{fill:#A8AAAD;}
	.st3{fill:#FDCB2B;}
	.st4{fill:#FDCB2A;}
	.st5{fill:#FCFCFC;}
	.st6{fill:#FBCA2B;}
	.st7{fill:#ABADAF;}
	.st8{fill:#ABACAF;}
	.st9{fill:#ABADB0;}
	.st10{fill:#383536;}
</style>
<g>
	<path class="st0" d="M415.2,0.8c-3.2,9.4-6.7,18.6-9.4,28.1c-2.9,9.9-4.3,20.1-3.6,30.5c0.4,5.9,2.4,10.7,7.4,14.7
		c16.4,12.9,29.8,28.5,37.3,48.3c12,31.8,5.4,60.7-14.7,87.1c-3.7,4.8-7.8,9.3-11.7,13.9c-4.4,3.6-8.7,7.2-13.2,10.7
		c-24,18.4-51.2,30-80.3,37.1c-7.9,1.9-15.8,3.5-23.8,5.2c-8.6,0.8-17.2,2.2-25.8,2.4c-14.1,0.4-28.2,0.4-42.3,0
		c-8.6-0.3-17.2-1.6-25.8-2.5c-0.3-0.2-0.6-0.5-0.9-0.6c-18.7-2.6-36.9-7.6-54.4-14.5c-18.4-7.3-35.8-16.5-51.3-29.1
		c-3.6-3-7.3-5.8-11-8.7c-1-1.3-1.8-2.6-2.9-3.8c-13.9-14.6-24.1-31.2-27.9-51.3c-4.2-22.6,0.7-43.4,12.8-62.7
		c7.7-12.4,17.5-22.9,29-31.7c5.2-4,7.1-9,7.4-15.1c0.9-17-3.6-32.9-9.4-48.6C99.5,7.2,98,4,96.4,0c1.9,0.9,3.2,1.4,4.5,2.1
		c20.9,10.4,41.8,20.7,64.1,27.8c5.4,1.7,11,3.6,16.6,3.8c6.6,0.2,13.3-1,19.8-2.2c27.7-5,55.5-6.5,83.4-3.4
		c12.4,1.4,24.7,4.4,37.1,5.5c6.6,0.6,13.6-0.6,20.1-2.3c22.5-6.1,43.3-16.5,64.2-26.7c2.9-1.4,5.8-2.7,8.7-4.1
		C415.1,0.6,415.2,0.7,415.2,0.8z M162.5,231.4c41.3,0,75-33.9,75-75.3c0-41.7-33.5-75.3-75.3-75.2c-41.5,0-75.2,33.6-75.3,74.9
		C86.9,197.5,120.8,231.4,162.5,231.4z M349.6,231.4c42-0.2,75.8-34,75.7-75.6c-0.1-41.7-34.1-75.2-76.1-75
		c-41.5,0.2-74.6,33.9-74.4,75.8C274.9,197.7,308.8,231.6,349.6,231.4z M279.9,215.8c-17.8,0-34.8,0-52.3,0
		c8.8,15.9,17.3,31.3,26.2,47.4C262.7,247,271.2,231.6,279.9,215.8z"/>
	<path class="st1" d="M209.2,276.4c8.6,0.9,17.2,2.2,25.8,2.5c14.1,0.4,28.2,0.4,42.3,0c8.6-0.2,17.2-1.6,25.8-2.4
		c1,8.2,1.8,16.4,3,24.6c3.6,25.1,9.7,49.5,18.8,73.2c10.8,27.8,25.6,53.1,47.8,73.6c3.4,3.1,6.8,6.1,10.2,9.1
		c-5.9,4.6-11.7,9.2-17.7,13.6c-1.6,1.2-3.6,1.9-5.5,2.9c-2.1-3-3.8-6.4-6.3-9c-4.2-4.4-9.1-3.1-10.8,2.7c-0.9,3.2-0.9,6.7-1.3,10.1
		c-1.3-1.6-2.3-3.7-4-4.8c-2.1-1.4-5.1-3.1-7.1-2.6c-2,0.6-3.7,3.6-4.7,5.9c-0.9,2.2-0.8,4.9-1.1,7.5c-1.3-1.7-2.3-3.6-3.8-4.7
		c-2.2-1.5-4.9-3.3-7.3-3.2c-3.3,0.1-4.8,3.5-5,6.6c-0.2,4.6,0.3,9.3,0.6,13.9c-0.5,0.3-1,0.5-1.5,0.8c-4.5,0.7-9,1.4-13.5,2.2
		c-15.5,3-31.1,4-46.9,3.5c-6.7-0.2-13.3-0.9-19.9-1.4c-6.2-1.3-12.3-2.7-18.5-4c-0.1-4.8,0.6-9.7-0.4-14.3
		c-1.3-6.3-6.6-7.4-11.1-2.9c-1.9,1.9-3.3,4.1-4.9,6.1c-0.3-2.9-0.2-5.9-0.9-8.7c-1.8-6.5-6.9-7.7-11.7-2.9
		c-1.4,1.4-2.6,3.1-3.8,4.6c-0.4-3.2-0.4-6.2-1.1-9c-1.6-6.4-6.8-8-11.2-3.2c-2.6,2.8-4.3,6.5-6.4,9.9c-7.3-4.7-14.7-9.3-22-14.2
		c-2.3-1.6-4.4-3.6-6.5-5.4c8.5-8.1,17.7-15.6,25.3-24.4c16.3-19.2,27.4-41.4,35.8-65c6.9-19.4,12-39.2,15.1-59.5
		C206.4,297.4,207.7,286.9,209.2,276.4z M243.6,389c-0.2-0.6-0.4-1.3-0.6-1.9c-0.3,0.1-0.5,0.3-0.8,0.4c0.4,0.6,0.9,1.1,1.3,1.7
		c4.1,7.9,8.3,15.8,12.9,24.6c4.8-9.2,9-17.3,13.3-25.3c0.2-0.3,0.4-0.6,0.5-0.8c0,0-0.2-0.1-0.3-0.2c-0.1,0.3-0.2,0.7-0.3,1
		c-1.7,1.7-3.5,3.3-5.1,5.1c-2.8,3.2-5.4,6.6-8.2,10.1c-1.7-2.1-2.9-3.9-4.3-5.4C249.2,395,246.4,392.1,243.6,389z M288.3,377.9
		c-0.2-0.6-0.4-1.3-0.6-1.9c-0.3,0.1-0.5,0.3-0.8,0.4c0.4,0.5,0.9,1.1,1.3,1.6c4.1,7.9,8.3,15.8,12.9,24.6c4.8-9.2,9-17.3,13.3-25.3
		c0.2-0.3,0.4-0.6,0.5-0.8c0,0-0.2-0.1-0.3-0.2c-0.1,0.3-0.2,0.7-0.3,1c-1.7,1.7-3.5,3.3-5.1,5.1c-2.8,3.2-5.4,6.6-8.2,10.1
		c-1.7-2.1-2.9-3.9-4.3-5.4C294,383.9,291.1,380.9,288.3,377.9z M224.8,377.1c-1.7,1.7-3.5,3.3-5.1,5.1c-2.8,3.2-5.4,6.6-8.2,10.1
		c-1.7-2.1-2.9-3.9-4.3-5.4c-2.8-3.1-5.6-6.1-8.4-9.1c-0.2-0.6-0.4-1.3-0.6-1.9c-0.3,0.1-0.5,0.3-0.8,0.4c0.4,0.5,0.9,1.1,1.3,1.6
		c4.1,7.9,8.3,15.8,12.9,24.6C216.4,393.3,220.7,385.3,224.8,377.1c0.3-0.2,0.4-0.5,0.6-0.8c0,0-0.2-0.1-0.3-0.2
		C225,376.5,224.9,376.8,224.8,377.1z M269.6,439c-1.5,1.5-3.1,3-4.5,4.7c-3.1,3.6-6,7.3-9.2,11.1c-1.9-2.4-3.3-4.4-5-6.2
		c-2.6-3-5.4-5.9-8.1-8.9c-0.1-0.3-0.2-0.7-0.3-1c-0.1,0.1-0.3,0.2-0.3,0.2c0.2,0.3,0.3,0.6,0.5,0.8c4.3,8.1,8.5,16.2,13.1,24.9
		c1.5-2.6,2.5-4.3,3.4-6C262.7,452.2,266.1,445.6,269.6,439c0.2-0.2,0.4-0.5,0.6-0.8c0,0-0.2-0.1-0.3-0.2
		C269.8,438.4,269.7,438.7,269.6,439z M198.1,428.6c-0.1-0.3-0.2-0.7-0.3-1c-0.1,0.1-0.3,0.2-0.3,0.2
		C197.6,428.1,197.8,428.4,198.1,428.6c4.2,8.2,8.4,16.3,13,25c1.5-2.6,2.5-4.3,3.4-6c3.5-6.5,6.9-13.1,10.4-19.7
		c0.2-0.3,0.4-0.5,0.5-0.8c0,0-0.2-0.1-0.3-0.2c-0.1,0.3-0.2,0.7-0.3,1c-1.5,1.5-3.1,3-4.5,4.7c-3.1,3.6-6,7.3-9.2,11.1
		c-1.9-2.4-3.3-4.4-5-6.2C203.5,434.4,200.8,431.5,198.1,428.6z M291.9,328.7c-1.5,1.6-3.1,3-4.5,4.7c-3.1,3.6-6,7.3-9.2,11.2
		c-1.9-2.4-3.4-4.4-5-6.3c-2.6-3-5.4-5.9-8.1-8.9c-0.1-0.3-0.2-0.7-0.3-1c-0.1,0.1-0.3,0.2-0.3,0.2c0.2,0.3,0.3,0.6,0.5,0.8
		c4.3,8.1,8.5,16.2,13.3,25.3C283.3,345.3,287.6,337,291.9,328.7c0.2-0.2,0.4-0.5,0.6-0.8c0,0-0.2-0.1-0.3-0.2
		C292.2,328,292,328.3,291.9,328.7z M220.4,329.4c-0.1-0.3-0.2-0.7-0.3-1c-0.1,0.1-0.3,0.2-0.3,0.2
		C220,328.9,220.2,329.2,220.4,329.4c4.2,8.2,8.4,16.3,13.2,25.3c4.9-9.4,9.3-17.7,13.6-26c0.2-0.3,0.4-0.5,0.5-0.8
		c0,0-0.2-0.1-0.3-0.2c-0.1,0.3-0.2,0.7-0.3,1c-1.5,1.6-3.1,3-4.5,4.7c-3.1,3.6-6,7.3-9.2,11.2c-1.9-2.4-3.4-4.4-5-6.3
		C225.9,335.2,223.1,332.3,220.4,329.4z M287.5,428.6c-0.1-0.3-0.2-0.7-0.3-1c-0.1,0.1-0.3,0.2-0.3,0.2
		C287.1,428.1,287.3,428.4,287.5,428.6c4.2,8.2,8.4,16.3,13,25c1.5-2.6,2.5-4.3,3.4-6c3.5-6.5,6.9-13.1,10.4-19.7
		c0.2-0.3,0.4-0.5,0.5-0.8c0,0-0.2-0.1-0.3-0.2c-0.1,0.3-0.2,0.7-0.3,1c-1.5,1.5-3.1,3-4.5,4.7c-3.1,3.6-6,7.3-9.2,11.1
		c-1.9-2.4-3.3-4.4-5-6.2C293,434.4,290.2,431.5,287.5,428.6z"/>
	<path class="st2" d="M209.2,276.4c-1.4,10.5-2.8,21-4.4,31.5c-3.1,20.3-8.2,40.2-15.1,59.5c-8.4,23.6-19.5,45.9-35.8,65
		c-7.6,8.9-16.8,16.3-25.3,24.4c-7.3,4.2-14.6,8.4-21.8,12.7c-3.3,2-5.4,1.2-7.8-1.7c-15.6-18.2-26.2-39-33.1-61.9
		c-8-26.3-10.4-53.3-8.7-80.5c2.2-34.1,10.7-66.5,29.5-95.6c1.5-2.3,3.3-4.3,4.9-6.5c3.7,2.9,7.3,5.8,11,8.7
		c15.4,12.6,32.8,21.8,51.3,29.1c17.6,6.9,35.7,11.9,54.4,14.5C208.6,275.9,208.9,276.2,209.2,276.4z"/>
	<path class="st2" d="M382.9,456.9c-3.4-3-6.9-6-10.2-9.1c-22.2-20.5-37-45.7-47.8-73.6c-9.1-23.6-15.2-48.1-18.8-73.2
		c-1.2-8.2-2-16.4-3-24.6c7.9-1.7,15.9-3.3,23.8-5.2c29.2-7.2,56.4-18.7,80.3-37.1c4.5-3.5,8.8-7.1,13.2-10.7
		c7.6,9,12.9,19.4,17.5,30.1c9.9,22.7,15.1,46.6,16.7,71.3c2.6,39.3-3.3,76.9-21,112.3c-5.9,11.7-13.3,22.4-22,32.2
		c-1.6,1.8-3,2-4.8,0.9c-6.7-3.8-13.4-7.6-20.1-11.3C385.5,458.3,384.2,457.6,382.9,456.9z"/>
	<path class="st3" d="M161.4,498.8c-4.9-1.9-5.4-6.4-5.8-10.7c-0.2-2.1,0.2-4.2,0.4-6.3c0.4-1.8,0.8-3.6,1.2-5.4
		c2.1-3.3,3.8-7,6.4-9.9c4.5-4.8,9.6-3.2,11.2,3.2c0.7,2.8,0.8,5.9,1.1,9c1.3-1.5,2.4-3.2,3.8-4.6c4.8-4.8,9.8-3.6,11.7,2.9
		c0.8,2.8,0.7,5.8,0.9,8.7c1.6-2,3-4.3,4.9-6.1c4.5-4.5,9.8-3.4,11.1,2.9c1,4.6,0.3,9.5,0.4,14.3c-1.9,3.8-3.9,7.6-5.8,11.3
		c-0.6,0.5-1.1,1-1.7,1.4c-5,3.9-9.1,2.6-11-3.4c-0.6-1.9-0.9-3.8-1.4-6c-1.1,0.7-2.2,1.2-3.1,2c-6.7,6-9.9,5.3-13.2-3
		c0-2.9,0-5.8,0-9.4C169.4,494.2,167.1,498.7,161.4,498.8z"/>
	<path class="st4" d="M320.2,510c-6.7-2.4-8.9-8.3-11.2-14.2c-0.2-4.6-0.8-9.3-0.6-13.9c0.1-3,1.7-6.4,5-6.6
		c2.4-0.1,5.1,1.7,7.3,3.2c1.5,1,2.5,3,3.8,4.7c0.4-2.6,0.2-5.3,1.1-7.5c1-2.3,2.7-5.3,4.7-5.9c2-0.6,4.9,1.2,7.1,2.6
		c1.7,1.1,2.7,3.1,4,4.8c0.4-3.4,0.4-6.9,1.3-10.1c1.7-5.8,6.6-7,10.8-2.7c2.5,2.6,4.2,6,6.3,9c0.6,2.7,1.1,5.3,1.7,8
		c-0.3,3.3,0,6.8-0.9,9.9c-1.7,6-6.5,7.2-11,2.9c-1.6-1.5-2.9-3.4-4.2-5c-0.5,3.5-1,7.2-1.5,10.9c-3.4,4.6-4.7,5-10,2.6
		c-1.9-2.4-3.9-4.7-5.8-7.1c-0.4,3.4-0.7,6.6-1,9.9l0.1-0.1c-0.2,0.2-0.4,0.4-0.6,0.6C325.1,508.5,323.2,510.1,320.2,510z"/>
	<path class="st0" d="M415,0.5c0.1-0.1,0.3-0.3,0.4-0.4c-0.1,0.2-0.1,0.5-0.2,0.7C415.2,0.7,415.1,0.6,415,0.5z"/>
	<path class="st5" d="M162.5,231.4c-41.7,0-75.6-33.9-75.6-75.6c0.1-41.4,33.8-74.9,75.3-74.9c41.8,0,75.3,33.5,75.3,75.2
		C237.5,197.6,203.8,231.4,162.5,231.4z M128.6,130.3c-12.4,13.6-11.8,38.1,1.1,53.4c13.8,16.4,37.9,20,55.9,8.3
		c18.1-11.8,24.7-35.4,15.1-54.8c-9-18.4-31.3-28.4-49.3-22.3c10.9,5.3,15.2,13.3,12.5,22.6c-2.6,8.7-10.7,14-19.7,12.8
		C134.9,149.2,128.9,141.7,128.6,130.3z"/>
	<path class="st5" d="M349.6,231.4c-40.8,0.2-74.7-33.7-74.8-74.8c-0.2-41.8,32.9-75.5,74.4-75.8c42-0.2,76,33.3,76.1,75
		C425.4,197.4,391.6,231.2,349.6,231.4z M316.1,130.4c-10.3,11.1-13.7,34.4-0.2,51.8c13.5,17.4,37.7,21.8,56.5,10.3
		c18.6-11.5,25.6-35.1,16.2-54.8c-8.9-18.7-31.6-29.1-49.8-22.8c10.8,4.9,15.3,12.9,12.7,22.5c-2.3,8.5-10.6,14-19.7,13
		C322.5,149.4,316.7,142,316.1,130.4z"/>
	<path class="st6" d="M279.9,215.8c-8.7,15.8-17.2,31.2-26.1,47.4c-8.9-16.1-17.4-31.5-26.2-47.4
		C245.1,215.8,262.1,215.8,279.9,215.8z"/>
	<path class="st7" d="M314.4,427.9c-3.5,6.6-6.9,13.1-10.4,19.7c-0.9,1.7-1.9,3.4-3.4,6c-4.6-8.7-8.8-16.8-13.1-24.9l0.1-0.1
		c2.7,3,5.4,5.9,8.1,8.9c1.6,1.8,3.1,3.8,5,6.2c3.2-3.9,6.2-7.5,9.2-11.1C311.2,430.9,312.8,429.4,314.4,427.9L314.4,427.9z"/>
	<path class="st8" d="M220.4,329.4c2.7,2.9,5.4,5.9,8.1,8.9c1.6,1.8,3.1,3.8,5,6.3c3.2-3.9,6.1-7.6,9.2-11.2c1.4-1.6,3-3.1,4.5-4.7
		l0,0c-4.4,8.3-8.7,16.6-13.6,26C228.9,345.7,224.6,337.6,220.4,329.4L220.4,329.4z"/>
	<path class="st8" d="M292,328.7c-4.4,8.3-8.7,16.6-13.6,26c-4.7-9-9-17.1-13.3-25.3l0.1-0.1c2.7,2.9,5.4,5.9,8.1,8.9
		c1.6,1.8,3.1,3.8,5,6.3c3.2-3.9,6.1-7.6,9.2-11.2C288.8,331.7,290.4,330.2,292,328.7C291.9,328.7,292,328.7,292,328.7z"/>
	<path class="st7" d="M198.1,428.6c2.7,3,5.4,5.9,8.1,8.9c1.6,1.8,3.1,3.8,5,6.2c3.2-3.9,6.2-7.5,9.2-11.1c1.4-1.6,3-3.1,4.5-4.7
		c0,0,0,0,0,0c-3.5,6.6-6.9,13.1-10.4,19.7c-0.9,1.7-1.9,3.4-3.4,6C206.5,444.9,202.2,436.8,198.1,428.6L198.1,428.6z"/>
	<path class="st7" d="M242.8,439.8c2.7,3,5.4,5.9,8.1,8.9c1.6,1.8,3.1,3.8,5,6.2c3.2-3.9,6.2-7.5,9.2-11.1c1.4-1.6,3-3.1,4.5-4.7
		c0,0,0,0,0,0c-3.5,6.6-6.9,13.1-10.4,19.7c-0.9,1.7-1.9,3.4-3.4,6C251.2,456.1,247,448,242.8,439.8
		C242.7,439.8,242.8,439.8,242.8,439.8z"/>
	<path class="st9" d="M198.8,377.9c2.8,3,5.7,6,8.4,9.1c1.4,1.6,2.6,3.3,4.3,5.4c2.8-3.5,5.4-6.9,8.2-10.1c1.6-1.8,3.4-3.4,5.1-5.1
		c0,0,0.1,0.1,0.1,0.1c-4.2,8.1-8.5,16.1-13.3,25.3c-4.6-8.8-8.8-16.7-12.9-24.6L198.8,377.9z"/>
	<path class="st9" d="M288.3,377.9c2.8,3,5.7,6,8.4,9.1c1.4,1.6,2.6,3.3,4.3,5.4c2.8-3.5,5.4-6.9,8.2-10.1c1.6-1.8,3.4-3.4,5.1-5.1
		c0,0,0.1,0.1,0.1,0.1c-4.2,8.1-8.5,16.1-13.3,25.3c-4.6-8.8-8.8-16.7-12.9-24.6L288.3,377.9z"/>
	<path class="st9" d="M243.6,389c2.8,3,5.7,6,8.4,9.1c1.4,1.6,2.6,3.3,4.3,5.4c2.8-3.5,5.4-6.9,8.2-10.1c1.6-1.8,3.4-3.4,5.1-5.1
		l0.1,0.1c-4.2,8.1-8.5,16.2-13.3,25.3c-4.6-8.8-8.8-16.7-12.9-24.6C243.5,389.1,243.6,389,243.6,389z"/>
	<path class="st9" d="M288.2,377.9c-0.4-0.5-0.9-1.1-1.3-1.6c0.3-0.1,0.5-0.3,0.8-0.4c0.2,0.6,0.4,1.3,0.6,1.9
		C288.3,377.9,288.2,377.9,288.2,377.9z"/>
	<path class="st9" d="M243.5,389.1c-0.4-0.6-0.9-1.1-1.3-1.7c0.3-0.1,0.5-0.3,0.8-0.4c0.2,0.6,0.4,1.3,0.6,1.9
		C243.6,389,243.5,389.1,243.5,389.1z"/>
	<path class="st9" d="M198.7,377.9c-0.4-0.5-0.9-1.1-1.3-1.6c0.3-0.1,0.5-0.3,0.8-0.4c0.2,0.6,0.4,1.3,0.6,1.9
		C198.8,377.9,198.7,377.9,198.7,377.9z"/>
	<path class="st8" d="M247.2,328.7c0.1-0.3,0.2-0.7,0.3-1c0.1,0.1,0.3,0.2,0.3,0.2C247.6,328.2,247.4,328.4,247.2,328.7
		C247.2,328.7,247.2,328.7,247.2,328.7z"/>
	<path class="st8" d="M291.9,328.7c0.1-0.3,0.2-0.7,0.3-1c0.1,0.1,0.3,0.2,0.3,0.2C292.4,328.2,292.2,328.4,291.9,328.7
		C292,328.7,291.9,328.7,291.9,328.7z"/>
	<path class="st8" d="M220.3,329.5c-0.2-0.3-0.4-0.6-0.5-0.8c0,0,0.2-0.1,0.3-0.2C220.2,328.7,220.3,329.1,220.3,329.5
		C220.4,329.4,220.3,329.5,220.3,329.5z"/>
	<path class="st7" d="M242.7,439.8c-0.2-0.3-0.4-0.6-0.5-0.8c0,0,0.2-0.1,0.3-0.2C242.6,439.1,242.7,439.4,242.7,439.8
		C242.8,439.8,242.7,439.8,242.7,439.8z"/>
	<path class="st7" d="M269.6,439c0.1-0.3,0.2-0.7,0.3-1c0.1,0.1,0.3,0.2,0.3,0.2C270,438.5,269.8,438.8,269.6,439
		C269.6,439.1,269.6,439,269.6,439z"/>
	<path class="st9" d="M314.3,377.1c0.1-0.3,0.2-0.7,0.3-1c0.1,0.1,0.3,0.2,0.3,0.2C314.7,376.6,314.6,376.9,314.3,377.1
		C314.4,377.2,314.3,377.1,314.3,377.1z"/>
	<path class="st9" d="M269.6,388.3c0.1-0.3,0.2-0.7,0.3-1c0.1,0.1,0.3,0.2,0.3,0.2C270,387.8,269.8,388.1,269.6,388.3
		C269.6,388.4,269.6,388.3,269.6,388.3z"/>
	<path class="st9" d="M224.8,377.1c0.1-0.3,0.2-0.7,0.3-1c0.1,0.1,0.3,0.2,0.3,0.2C225.3,376.6,225.1,376.9,224.8,377.1
		C224.9,377.2,224.8,377.1,224.8,377.1z"/>
	<path class="st7" d="M287.5,428.7c-0.2-0.3-0.4-0.6-0.5-0.9c0,0,0.2-0.1,0.3-0.2C287.3,427.9,287.4,428.3,287.5,428.7
		C287.5,428.6,287.5,428.7,287.5,428.7z"/>
	<path class="st7" d="M198,428.7c-0.2-0.3-0.4-0.6-0.5-0.8c0,0,0.2-0.1,0.3-0.2C197.8,427.9,197.9,428.3,198,428.7
		C198.1,428.6,198,428.7,198,428.7z"/>
	<path class="st7" d="M314.3,427.9c0.1-0.3,0.2-0.7,0.3-1c0.1,0.1,0.3,0.2,0.3,0.2C314.7,427.3,314.5,427.6,314.3,427.9
		C314.4,427.9,314.3,427.9,314.3,427.9z"/>
	<path class="st7" d="M224.8,427.9c0.1-0.3,0.2-0.7,0.3-1c0.1,0.1,0.3,0.2,0.3,0.2C225.2,427.3,225.1,427.6,224.8,427.9
		C224.9,427.9,224.8,427.9,224.8,427.9z"/>
	<path class="st8" d="M265.1,329.5c-0.2-0.3-0.4-0.6-0.5-0.8c0,0,0.2-0.1,0.3-0.2C264.9,328.7,265.1,329.1,265.1,329.5
		C265.2,329.4,265.1,329.5,265.1,329.5z"/>
	<path class="st10" d="M128.6,130.3c0.3,11.3,6.3,18.9,15.6,20.1c9,1.1,17.2-4.2,19.7-12.8c2.8-9.4-1.6-17.3-12.5-22.6
		c18-6.1,40.3,3.9,49.3,22.3c9.5,19.4,3,43-15.1,54.8c-18,11.7-42.1,8.1-55.9-8.3C116.8,168.4,116.2,143.9,128.6,130.3z"/>
	<path class="st10" d="M316.1,130.4c0.6,11.7,6.4,19,15.8,20c9,1,17.4-4.5,19.7-13c2.6-9.6-1.9-17.6-12.7-22.5
		c18.2-6.3,40.9,4.1,49.8,22.8c9.3,19.7,2.4,43.3-16.2,54.8c-18.7,11.6-42.9,7.2-56.5-10.3C302.4,164.8,305.8,141.5,316.1,130.4z"/>
</g>
</svg>
