<svg xmlns="http://www.w3.org/2000/svg" fill="none" viewBox="0 0 188 168"><filter id="a" width="188" height="168" x="0" y="0" color-interpolation-filters="sRGB" filterUnits="userSpaceOnUse"><feFlood flood-opacity="0" result="BackgroundImageFix"/><feColorMatrix in="SourceAlpha" result="hardAlpha" values="0 0 0 0 0 0 0 0 0 0 0 0 0 0 0 0 0 0 127 0"/><feOffset dy="15"/><feGaussianBlur stdDeviation="18"/><feColorMatrix values="0 0 0 0 0.00784314 0 0 0 0 0.188235 0 0 0 0 0.482353 0 0 0 0.13 0"/><feBlend in2="BackgroundImageFix" result="effect1_dropShadow_901_7930"/><feBlend in="SourceGraphic" in2="effect1_dropShadow_901_7930" result="shape"/></filter><filter id="b" width="49.6" height="49.6" x="69.2" y="50.2" color-interpolation-filters="sRGB" filterUnits="userSpaceOnUse"><feFlood flood-opacity="0" result="BackgroundImageFix"/><feColorMatrix in="SourceAlpha" result="hardAlpha" values="0 0 0 0 0 0 0 0 0 0 0 0 0 0 0 0 0 0 127 0"/><feOffset dy="2"/><feGaussianBlur stdDeviation="4"/><feColorMatrix values="0 0 0 0 0.00784314 0 0 0 0 0.188235 0 0 0 0 0.482353 0 0 0 0.12 0"/><feBlend in2="BackgroundImageFix" result="effect1_dropShadow_901_7930"/><feBlend in="SourceGraphic" in2="effect1_dropShadow_901_7930" result="shape"/></filter><g filter="url(#a)"><path fill="#f2f4f8" d="M36 31a10 10 0 0 1 10-10h96a10 10 0 0 1 10 10v3H36z"/><path fill="#fff" d="M36 34h116v73a10 10 0 0 1-10 10H46a10 10 0 0 1-10-10z"/><circle cx="46.4" cy="27.4" r="2.4" fill="#f34949"/><circle cx="53.6" cy="27.4" r="2.4" fill="#ec930d"/><circle cx="60.8" cy="27.4" r="2.4" fill="#45b013"/><path fill="#a8cbff" d="M43 39h102v71H43z"/><path stroke="#fff" stroke-dasharray="5 5" stroke-width="2" d="M47 44h94v61H47z"/><g filter="url(#b)"><circle cx="94" cy="73" r="16.8" fill="#fff"/></g><path fill="#1882ff" fill-rule="evenodd" d="M94 64.25h-.07c-.66 0-1.1 0-1.5.07-.68.12-1.33.4-1.9.78-.34.25-.64.55-1.1 1.02l-.06.05-.48.48a3.65 3.65 0 0 0-3.64 3.65v3.53c0 1.1 0 1.96.06 2.66.06.71.18 1.32.46 1.87.45.89 1.18 1.62 2.07 2.07.55.28 1.16.4 1.87.46.7.06 1.56.06 2.66.06h3.26c1.1 0 1.96 0 2.66-.06a4.88 4.88 0 0 0 1.87-.46 4.75 4.75 0 0 0 2.07-2.07c.28-.55.4-1.16.46-1.87.06-.7.06-1.56.06-2.66V70.3a3.65 3.65 0 0 0-3.64-3.65l-.48-.48-.05-.05a8.71 8.71 0 0 0-1.12-1.02c-.56-.39-1.2-.66-1.88-.78a8.71 8.71 0 0 0-1.51-.07zM97.2 73a3.2 3.2 0 1 1-6.4 0 3.2 3.2 0 0 1 6.4 0z" clip-rule="evenodd"/></g></svg>