<?xml version="1.0" encoding="utf-8"?>
<!-- Generator: Adobe Illustrator 28.2.0, SVG Export Plug-In . SVG Version: 6.00 Build 0)  -->
<svg version="1.1" id="Layer_1" xmlns="http://www.w3.org/2000/svg" xmlns:xlink="http://www.w3.org/1999/xlink" x="0px" y="0px"
	 viewBox="0 0 512 512" style="enable-background:new 0 0 512 512;" xml:space="preserve">
<style type="text/css">
	.st0{fill-rule:evenodd;clip-rule:evenodd;fill:#A238FF;}
</style>
<g>
	<path class="st0" d="M429.4,78.1c4.7-27.5,11.7-44.7,19.4-44.8h0c14.4,0,26,59.9,26,133.9c0,73.9-11.7,133.8-26,133.8
		c-5.9,0-11.3-10.2-15.7-27.2c-6.9,62.4-21.3,105.3-37.9,105.3c-12.9,0-24.4-25.8-32.1-66.4c-5.3,77.3-18.6,132.2-34.2,132.2
		c-9.8,0-18.7-21.7-25.3-57.1C295.7,460.8,277.4,512,256,512c-21.4,0-39.7-51.2-47.6-124.2c-6.5,35.4-15.4,57.1-25.3,57.1
		c-15.6,0-28.8-54.8-34.2-132.2c-7.7,40.6-19.3,66.4-32.1,66.4c-16.6,0-31-42.9-37.9-105.3c-4.3,17.1-9.8,27.2-15.7,27.2
		c-14.4,0-26-59.9-26-133.8c0-73.9,11.7-133.9,26-133.9c7.7,0,14.6,17.3,19.4,44.8C90.3,30.8,102.7,0,116.8,0
		c16.7,0,31.2,43.5,38.1,106.7c6.7-46,16.9-75.3,28.3-75.3c16,0,29.5,57.7,34.6,138.1c9.5-41.2,23.1-67.1,38.3-67.1
		c15.2,0,28.8,25.9,38.3,67.1c5-80.4,18.6-138.1,34.6-138.1c11.4,0,21.5,29.3,28.3,75.3C364,43.5,378.5,0,395.2,0
		C409.2,0,421.7,30.8,429.4,78.1z M0,154c0-33,6.6-59.8,14.8-59.8S29.5,121,29.5,154c0,33-6.6,59.8-14.8,59.8S0,187.1,0,154z
		 M482.5,154c0-33,6.6-59.8,14.8-59.8S512,121,512,154c0,33-6.6,59.8-14.8,59.8S482.5,187.1,482.5,154z"/>
</g>
</svg>
