<?xml version="1.0" encoding="utf-8"?>
<!-- Generator: Adobe Illustrator 28.2.0, SVG Export Plug-In . SVG Version: 6.00 Build 0)  -->
<svg version="1.1" id="Layer_1" xmlns="http://www.w3.org/2000/svg" xmlns:xlink="http://www.w3.org/1999/xlink" x="0px" y="0px"
	 viewBox="0 0 512 512" style="enable-background:new 0 0 512 512;" xml:space="preserve">
<style type="text/css">
	.st0{fill:#0080FF;}
	.st1{fill-rule:evenodd;clip-rule:evenodd;fill:#0080FF;}
</style>
<g id="XMLID_690_">
	<g id="XMLID_691_">
		<g>
			<g id="XMLID_44_">
				<g id="XMLID_48_">
					<path id="XMLID_49_" class="st0" d="M256,512v-99.2c105.1,0,186.7-104.3,146.4-214.8c-14.8-40.6-47.6-73.5-88.5-88.2
						C203.2,69.6,98.9,150.9,98.9,256l0,0H0C0,88.5,162-42.2,337.6,12.7c76.7,24.2,137.8,85,161.7,161.7
						C554.2,350,423.5,512,256,512z"/>
				</g>
				<polygon id="XMLID_47_" class="st1" points="256.3,413.4 157.4,413.4 157.4,314.3 157.4,314.3 256.3,314.3 256.3,314.3 				"/>
				<polygon id="XMLID_46_" class="st1" points="157.4,489 81.6,489 81.6,489 81.6,413.4 157.4,413.4 				"/>
				<path id="XMLID_45_" class="st1" d="M81.6,413.4H17.9l0,0v-63.6l0,0h63.6l0,0V413.4z"/>
			</g>
		</g>
	</g>
</g>
</svg>
