<?xml version="1.0" encoding="utf-8"?>
<!-- Generator: Adobe Illustrator 28.2.0, SVG Export Plug-In . SVG Version: 6.00 Build 0)  -->
<svg version="1.1" id="Layer_1" xmlns="http://www.w3.org/2000/svg" xmlns:xlink="http://www.w3.org/1999/xlink" x="0px" y="0px"
	 viewBox="0 0 512 512" style="enable-background:new 0 0 512 512;" xml:space="preserve">
<style type="text/css">
	.st0{fill:#18BCF2;}
	.st1{fill:#F2F4F9;}
</style>
<g>
	<path class="st0" d="M512,473.4c0,17.6-14.4,32-32,32H32c-17.6,0-32-14.4-32-32v-192c0-17.6,10.2-42.2,22.6-54.6L233.4,16
		c12.4-12.4,32.8-12.4,45.2,0l210.8,210.8c12.4,12.4,22.6,37,22.6,54.6V473.4z"/>
	<path class="st1" d="M341.3,174H170.6c-7.1,0-12.8,5.7-12.8,12.8v318.6h25.6V199.6h145.1v25.6H221.8c-7.1,0-12.8,5.7-12.8,12.8
		v51.2c0,7.1,5.7,12.8,12.8,12.8h106.7v25.6H221.8c-7.1,0-12.8,5.7-12.8,12.8v51.2c0,7.1,5.7,12.8,12.8,12.8h106.7V430H221.8
		c-7.1,0-12.8,5.7-12.8,12.8s5.7,12.8,12.8,12.8h119.5c7.1,0,12.8-5.7,12.8-12.8v-51.2c0-7.1-5.7-12.8-12.8-12.8H234.6v-25.6h106.7
		c7.1,0,12.8-5.7,12.8-12.8v-51.2c0-7.1-5.7-12.8-12.8-12.8H234.6v-25.6h106.7c7.1,0,12.8-5.7,12.8-12.8v-51.2
		C354.1,179.7,348.4,174,341.3,174z"/>
</g>
</svg>
