<?xml version="1.0" encoding="utf-8"?>
<!-- Generator: Adobe Illustrator 28.2.0, SVG Export Plug-In . SVG Version: 6.00 Build 0)  -->
<svg version="1.1"
	 id="svg2" xmlns:inkscape="http://www.inkscape.org/namespaces/inkscape" xmlns:sodipodi="http://sodipodi.sourceforge.net/DTD/sodipodi-0.dtd" xmlns:cc="http://creativecommons.org/ns#" xmlns:svg="http://www.w3.org/2000/svg" xmlns:dc="http://purl.org/dc/elements/1.1/" xmlns:rdf="http://www.w3.org/1999/02/22-rdf-syntax-ns#"
	 xmlns="http://www.w3.org/2000/svg" xmlns:xlink="http://www.w3.org/1999/xlink" x="0px" y="0px" viewBox="0 0 512 512"
	 style="enable-background:new 0 0 512 512;" xml:space="preserve">
<style type="text/css">
	.st0{fill:#FF5900;}
	.st1{fill:#2A007C;}
</style>
<g id="g6" transform="translate(-0.81,-0.35400034)">
	<polygon id="polygon10" class="st0" points="427.1,233.2 448.3,256.5 468.7,233.2 512.2,233.2 469.7,281 512.8,329.3 467.5,329.3 
		446.5,305.8 425.8,329.3 382,329.3 424.8,281.2 382,233.2 	"/>
	<polygon id="polygon12" class="st0" points="382,233.2 382,265.7 333.6,265.7 333.6,295.4 382,295.4 382,329.3 298,329.3 
		298,177.9 382,177.9 382,211.7 333.6,211.7 333.6,233.2 	"/>
	<path id="path14" inkscape:connector-curvature="0" class="st1" d="M262.6,177.9v61.9h-0.4c-7.9-9-17.7-12.2-29-12.2
		c-23.3,0-40.8,15.8-47,36.8c-7-23.1-25.2-37.2-52-37.2c-21.8,0-39,9.8-48,25.7v-19.8H41v-21.5h49.2v-33.7H0.8v151.3H41v-63.6h40.1
		c-1.2,4.7-1.8,9.7-1.8,15c0,31.6,24.1,53.7,54.9,53.7c25.9,0,42.9-12.2,52-34.3h-34.5c-4.7,6.7-8.2,8.6-17.5,8.6
		c-10.8,0-20.1-9.4-20.1-20.6h70.2c3,25.1,22.6,46.7,49.4,46.7c11.6,0,22.2-5.7,28.6-15.3h0.4v9.8H298V177.9H262.6z M115.2,266.1
		c2.2-9.6,9.7-15.9,19-15.9c10.2,0,17.3,6.1,19.2,15.9C154.1,266.1,115.2,266.1,115.2,266.1z M241.1,306.2
		c-13.1,0-21.2-12.2-21.2-24.9c0-13.6,7.1-26.6,21.2-26.6c14.6,0,20.5,13.1,20.5,26.6C261.5,294.2,255.4,306.2,241.1,306.2z"/>
</g>
</svg>
