<?xml version="1.0" encoding="utf-8"?>
<!-- Generator: Adobe Illustrator 28.2.0, SVG Export Plug-In . SVG Version: 6.00 Build 0)  -->
<svg version="1.1" id="Layer_1" xmlns="http://www.w3.org/2000/svg" xmlns:xlink="http://www.w3.org/1999/xlink" x="0px" y="0px"
	 viewBox="0 0 512 512" style="enable-background:new 0 0 512 512;" xml:space="preserve">
<style type="text/css">
	.st0{fill:#A730B8;}
	.st1{fill:#5496BE;}
	.st2{fill:#CE3D1A;}
	.st3{fill:#D0188F;}
	.st4{fill:#5B36E9;}
	.st5{fill:#30B873;}
	.st6{fill:#EBE305;}
	.st7{fill:#F47601;}
	.st8{fill:#57C115;}
	.st9{fill:#DBB210;}
	.st10{fill:#FFCA00;}
	.st11{fill:#64FF00;}
	.st12{fill:#00A3FF;}
	.st13{fill:#9500FF;}
	.st14{fill:#FF0000;}
</style>
<g>
	<path class="st0" d="M96.8,190.9c-5.1,9.8-13.2,17.8-23,22.9l126.5,126.9l30.5-15.5L96.8,190.9z M263.6,358.4l-30.5,15.5l64.1,64.3
		c5.1-9.8,13.2-17.8,23-22.9L263.6,358.4z"/>
	<path class="st1" d="M338.3,277.5l5.3,33.8l81-41.1c-7.8-7.9-12.9-18-14.7-29L338.3,277.5z M296.7,298.5l-169.3,85.8
		c7.8,7.9,12.9,18,14.7,29l159.9-81L296.7,298.5z"/>
	<path class="st2" d="M160.6,246.7l24.1,24.2L271.2,102c-10.9-1.9-21-7-28.9-14.8L160.6,246.7z M139.4,288.1L98,368.9
		c10.9,1.9,21,7,28.9,14.8l36.6-71.4L139.4,288.1z"/>
	<path class="st3" d="M73,214.2c-9.9,5-21.1,6.7-32.1,5.1l24.2,154.5c9.9-5,21.1-6.7,32.1-5.1L73,214.2z"/>
	<path class="st4" d="M142.3,414.1c1.6,11-0.1,22.2-5.1,32.1L291.6,471c-1.6-11,0.1-22.2,5.1-32.1L142.3,414.1z"/>
	<path class="st5" d="M353.8,410c10.9,1.8,21,7,28.9,14.8L454,285.6c-10.9-1.9-21-7-28.9-14.8L353.8,410z"/>
	<path class="st6" d="M327.8,73.8c-5.1,9.8-13.2,17.8-23,22.9l110.4,110.9c5.1-9.8,13.2-17.8,23-22.9L327.8,73.8z"/>
	<path class="st7" d="M87.4,128.4c7.8,7.9,12.9,18,14.7,29l139.6-70.8c-7.8-7.9-12.9-18-14.7-29L87.4,128.4z"/>
	<path class="st8" d="M304.5,96.9c-9.9,5-21.1,6.9-32.1,5.4l12.4,79.2l33.7,5.4L304.5,96.9z M292,227.5l29.2,187.2
		c10-4.9,21.2-6.6,32.1-4.8l-27.6-177L292,227.5z"/>
	<path class="st9" d="M102.2,158c1.7,11-0.1,22.2-5,32.1l79.2,12.7l15.6-30.4L102.2,158z M238.1,179.8l-15.6,30.4l187.2,30.1
		c-1.6-11,0.2-22.2,5.2-32.1L238.1,179.8z"/>
	<path class="st10" d="M231.2,46.3c-1.5,27,19.2,50.1,46.2,51.6s50.1-19.2,51.6-46.2S309.8,1.5,282.8,0.1
		C255.8-1.4,232.7,19.3,231.2,46.3"/>
	<path class="st11" d="M414.1,229.8c-1.5,27,19.2,50.1,46.2,51.6c27,1.5,50.1-19.2,51.6-46.2c1.5-27-19.2-50.1-46.2-51.6
		C438.6,182.1,415.5,202.8,414.1,229.8L414.1,229.8"/>
	<path class="st12" d="M296,460.4c-1.5,27,19.2,50.1,46.2,51.6c27,1.5,50.1-19.2,51.6-46.2s-19.2-50.1-46.2-51.6
		C320.5,412.7,297.4,433.4,296,460.4L296,460.4"/>
	<path class="st13" d="M40.2,419.3c-1.5,27,19.2,50.1,46.2,51.6c27,1.5,50.1-19.2,51.6-46.2c1.5-27-19.2-50.1-46.2-51.6
		C64.7,371.6,41.6,392.3,40.2,419.3"/>
	<path class="st14" d="M0.2,163.4c-1.5,27,19.2,50.1,46.2,51.6c27,1.5,50.1-19.2,51.6-46.2c1.5-27-19.2-50.1-46.2-51.6
		C24.7,115.7,1.6,136.4,0.2,163.4"/>
</g>
</svg>
