<?xml version="1.0" encoding="utf-8"?>
<!-- Generator: Adobe Illustrator 28.2.0, SVG Export Plug-In . SVG Version: 6.00 Build 0)  -->
<svg version="1.1" id="Layer_1" xmlns="http://www.w3.org/2000/svg" xmlns:xlink="http://www.w3.org/1999/xlink" x="0px" y="0px"
	 viewBox="0 0 512 512" style="enable-background:new 0 0 512 512;" xml:space="preserve">
<style type="text/css">
	.st0{fill:#51A2DA;}
	.st1{fill:#FFFFFF;}
</style>
<g>
	<path class="st0" d="M256.1,4.8C114.8,4.8,0.3,117.2,0,255.9h0v194.4h0c0.1,31.5,26.1,56.9,58.2,56.9h197.9
		C397.6,507.1,512,394.8,512,256.1C512,117.4,397.4,5,255.9,5L256.1,4.8z"/>
	<path class="st1" d="M308.2,108.1c-39.9,0-75.2,29.5-80.1,68.2c-0.3,3.2-0.4,5.6-0.4,8.5l0,158.2c0,30.3-23.2,51-52.1,51
		c-29,0-52.3-22.7-52.3-51c0.5-31.1,25.9-50.8,55.5-51.7h0.2L209,291v-41.8l-30.1,0.2c-53.9-0.5-96.7,40.9-98.2,93.5
		c0,51.2,42.9,92.9,94.9,92.9c49.1,0,89.9-37.6,94.4-84.7c0.6-16,0.3-37.2,0.3-37.2c0.1-8.7-0.1-5.6,0-22.9l37.3-0.3
		c28.9,0.2,28.5-42.4-0.3-41.8l-37,0.3c0-21.5,0.3-42.8,0-64.3c0-18.6,18-35,37.9-35c19.9,0,41,9.8,41,35c0,3.6-0.1,5.7-0.3,7
		c-2.2,11.7,5.9,22.9,18,24.6c12,1.7,23.1-6.8,24.3-18.7c0.7-4.7,0.7-8.8,0.7-12.9C391.7,140.5,351.1,108.2,308.2,108.1L308.2,108.1
		z"/>
</g>
</svg>
