<?xml version="1.0" encoding="UTF-8"?>
<svg width="256" height="256" viewBox="0 0 256 256" version="1.1" xmlns="http://www.w3.org/2000/svg">
    <defs>
    <style type="text/css">
        rect {
            fill: #0b57d0;
        }
        path {
            fill: #FFFFFF;
        }
        @media (prefers-color-scheme: dark) {
            rect {
                fill: #fff;
            }
            path {
                fill: #0b57d0;
            }
        }
    </style>
    </defs>
    <rect fill="#0b57d0" x="0" y="0" width="256" height="256" rx="50"></rect>
    <path d="m151.386 109.313-8.02 22.04h-7.508c-8.008 0-16.862 6.494-19.777 14.504l-13.44 36.935h14.606L77.25 212.124l-18.65-29.332h14.658l16.166-44.428c5.838-16.045 23.574-29.05 39.614-29.05h22.349zM175.43 43l26.076 29.387-47.5 29.386 5.355-14.692h-36.87c-16.21 0-34.133 13.12-40.033 29.306l-5.385 14.774H55l8.064-22.121c10.337-28.358 41.74-51.346 70.14-51.346h36.87L175.43 43z"  fill="#FFFFFF"></path>
</svg>