<?xml version="1.0" encoding="utf-8"?>
<!-- Generator: Adobe Illustrator 28.2.0, SVG Export Plug-In . SVG Version: 6.00 Build 0)  -->
<svg version="1.1" id="Layer_1" xmlns="http://www.w3.org/2000/svg" xmlns:xlink="http://www.w3.org/1999/xlink" x="0px" y="0px"
	 viewBox="0 0 512 512" style="enable-background:new 0 0 512 512;" xml:space="preserve">
<style type="text/css">
	.st0{fill:#FF0090;}
</style>
<g>
	<path class="st0" d="M256,512c-68.4,0-132.7-26.6-181-75C26.6,388.7,0,324.4,0,256S26.6,123.3,75,75S187.6,0,256,0
		s132.7,26.6,181,75c48.4,48.4,75,112.6,75,181s-26.6,132.7-75,181C388.7,485.4,324.4,512,256,512z M256,33.5
		C133.3,33.5,33.5,133.3,33.5,256S133.3,478.5,256,478.5S478.5,378.7,478.5,256S378.7,33.5,256,33.5z"/>
	<g>
		<path class="st0" d="M388.8,324.2H347c-19.1,0-36,12.8-41.1,30.7H177.3c-23.8,0-43.5-19.7-43.5-43.5s19.7-43.5,43.5-43.5h151.9
			c35.4,0,63.8-28.4,63.8-63.8s-28.4-63.8-63.8-63.8h-127v-2.9c0-23.8-19.1-42.9-42.9-42.9h-41.8c-23.8,0-42.9,19.1-42.9,42.9v11
			c0,23.8,19.1,42.9,42.9,42.9h41.8c19.1,0,36-12.8,41.1-30.7h128.7c23.8,0,43.5,19.7,43.5,43.5s-19.7,43.5-43.5,43.5H177.3
			c-35.4,0-63.8,28.4-63.8,63.8s28.4,63.8,63.8,63.8h127v2.9c0,23.8,19.1,42.9,42.9,42.9h41.8c23.8,0,42.9-19.1,42.9-42.9v-11
			C431.7,343.4,412,324.2,388.8,324.2z M181.9,149.1c0,12.2-9.9,22.7-22.7,22.7h-41.8c-12.2,0-22.7-9.9-22.7-22.7v-11
			c0-12.2,9.9-22.7,22.7-22.7h41.8c12.2,0,22.7,9.9,22.7,22.7L181.9,149.1L181.9,149.1z M411.4,378.1c0,12.2-9.9,22.7-22.7,22.7H347
			c-12.2,0-22.7-9.9-22.7-22.7v-11c0-12.2,9.9-22.7,22.7-22.7h41.8c12.2,0,22.7,9.9,22.7,22.7V378.1z"/>
		<path class="st0" d="M388.9,424.4h-41.8c-25.4,0-46.1-20.5-46.4-45.8H177.3c-37.1,0-67.4-30.2-67.4-67.4s30.2-67.4,67.4-67.4
			h151.9c21.6,0,39.9-18.3,39.9-39.9c0-21.6-18.3-39.9-39.9-39.9H203c-6.5,18.2-24.1,30.7-43.7,30.7h-41.8
			c-25.6,0-46.4-20.8-46.4-46.4v-11c0-25.6,20.8-46.4,46.4-46.4h41.8c25.4,0,46.1,20.5,46.4,45.8h123.4c37.1,0,67.4,30.2,67.4,67.4
			c0,37.1-30.2,67.4-67.4,67.4H177.3c-21.6,0-39.9,18.3-39.9,39.9s18.3,39.9,39.9,39.9h126c6.5-18.2,24.1-30.7,43.7-30.7h41.8
			c12.2,0,23.9,4.8,32.7,13.6c8.9,8.8,13.8,20.5,13.8,32.8v11C435.3,403.6,414.5,424.4,388.9,424.4z M177.3,251
			c-33.2,0-60.2,27-60.2,60.2s27,60.2,60.2,60.2h130.5v6.5c0,21.7,17.6,39.3,39.3,39.3h41.8c21.7,0,39.3-17.6,39.3-39.3v-11
			c0-21.3-18.1-39.3-39.4-39.3H347c-17.4,0-32.9,11.6-37.7,28.1l-0.7,2.6H177.3c-12.4,0-24.2-4.9-33.2-13.9
			c-8.9-8.9-13.9-20.7-13.9-33.2c0-12.4,4.9-24.2,13.9-33.2c8.9-8.9,20.7-13.9,33.2-13.9h151.9c33.2,0,60.2-27,60.2-60.2
			s-27-60.2-60.2-60.2H198.6v-6.5c0-21.7-17.6-39.3-39.3-39.3h-41.8c-21.7,0-39.3,17.6-39.3,39.3v11c0,21.7,17.6,39.3,39.3,39.3
			h41.8c17.4,0,32.9-11.6,37.7-28.1l0.7-2.6h131.4c12.4,0,24.2,4.9,33.2,13.9c8.9,8.9,13.9,20.7,13.9,33.2
			c0,12.4-4.9,24.2-13.9,33.2c-8.9,8.9-20.7,13.9-33.2,13.9H177.3z M388.8,404.3H347c-14.5,0-26.2-11.8-26.2-26.2v-11
			c0-14.5,11.8-26.2,26.2-26.2h41.8c14.5,0,26.2,11.8,26.2,26.2v11C415,392.6,403.2,404.3,388.8,404.3z M347,348
			c-10.5,0-19.1,8.6-19.1,19.1v11c0,10.5,8.6,19.1,19.1,19.1h41.8c10.5,0,19.1-8.6,19.1-19.1v-11c0-10.5-8.6-19.1-19.1-19.1H347z
			 M159.3,175.3h-41.8c-14.5,0-26.2-11.8-26.2-26.2v-11c0-14.5,11.8-26.2,26.2-26.2h41.8c14.5,0,26.2,11.8,26.2,26.2v11
			C185.5,163.6,173.7,175.3,159.3,175.3z M117.5,119.1c-10.5,0-19.1,8.6-19.1,19.1v11c0,10.5,8.6,19.1,19.1,19.1h41.8
			c10.5,0,19.1-8.6,19.1-19.1v-11c0-10.5-8.6-19.1-19.1-19.1H117.5z"/>
	</g>
</g>
</svg>
