<?xml version="1.0" encoding="UTF-8" standalone="no"?>
<!-- Created with Inkscape (http://www.inkscape.org/) -->
<svg
   xmlns:svg="http://www.w3.org/2000/svg"
   xmlns="http://www.w3.org/2000/svg"
   version="1.0"
   width="744.09448"
   height="480.82675"
   id="svg23104">
  <defs
     id="defs23106" />
  <g
     transform="translate(-1076.7637,1348.8192)"
     id="layer1">
    <g
       transform="matrix(5.2951562,0,0,5.2951562,906.59768,-5063.3159)"
       id="g9928">
      <path
         d="M 98.30028,705.77652 C 97.367349,703.72167 136.03146,744.00867 138.05631,742.29879 C 137.68134,743.19873 94.786042,787.20544 94.874535,788.96031 C 95.050022,784.01068 56.690384,747.06844 56.561394,748.8983 C 57.206346,745.97352 95.336501,704.84659 98.30028,705.77652"
         style="fill:#231f20;fill-rule:nonzero;stroke:none"
         id="path9489" />
      <path
         d="M 94.061596,705.25156 C 93.127166,703.19671 131.78678,743.4837 133.81163,741.77383 C 133.45166,742.67377 90.545858,786.68048 90.634352,788.43535 C 90.811338,783.48572 52.4502,746.55848 52.32121,748.38834 C 52.966162,745.46356 91.096317,704.32163 94.061596,705.25156"
         style="fill:#fff100;fill-rule:nonzero;stroke:none"
         id="path9491" />
      <path
         d="M 94.061596,705.25156 C 93.127166,703.19671 131.78678,743.4837 133.81163,741.77383 C 133.45166,742.67377 90.545858,786.68048 90.634352,788.43535 C 90.811338,783.48572 52.4502,746.55848 52.32121,748.38834 C 52.966162,745.46356 91.096317,704.32163 94.061596,705.25156 z "
         style="fill:none;stroke:#231f20;stroke-width:0.70344752;stroke-linecap:butt;stroke-linejoin:miter;stroke-miterlimit:4;stroke-dasharray:none"
         id="path9493" />
      <path
         d="M 169.31398,725.00508 L 166.68918,740.06396 L 160.29965,739.74898 L 161.25958,724.55512 L 169.31398,725.00508 z M 158.45479,744.65362 L 163.37442,740.8139 L 167.21414,745.73354 L 162.2945,749.57325 L 158.45479,744.65362"
         style="fill:#231f20;fill-rule:nonzero;stroke:none"
         id="path9495" />
      <path
         d="M 38.283757,755.93278 C 38.468244,753.45796 38.468244,743.4837 38.468244,742.35879 L 38.468244,736.16425 C 38.468244,735.41431 38.37525,724.16515 38.283757,722.81525 C 42.105472,722.81525 53.816598,722.30528 58.715233,722.1103 L 58.902719,729.80473 L 48.638985,730.04471 L 48.638985,737.22917 C 49.664908,737.22917 52.790675,736.94419 58.016285,736.8092 L 58.155775,744.17365 L 48.638985,744.08366 L 48.638985,748.05836 C 48.638985,748.79331 48.685481,755.28782 48.685481,755.93278 L 38.283757,755.93278"
         style="fill:#231f20;fill-rule:nonzero;stroke:none"
         id="path9497" />
      <path
         d="M 69.416935,750.59317 C 69.416935,752.19805 69.544425,762.93725 69.629919,763.56721 L 60.171624,763.56721 C 60.342612,762.54728 60.257118,749.10828 60.257118,748.20835 L 60.257118,744.74361 C 60.257118,743.46871 60.171624,734.25939 60.045634,733.46445 C 65.8562,733.46445 71.749261,733.53945 75.566476,734.04941 C 81.845007,734.85935 85.239254,737.31916 85.239254,741.21887 C 85.239254,744.69861 83.074916,747.36841 79.767662,749.69324 C 81.039567,751.14813 87.529583,757.71764 88.632001,759.08254 L 80.87008,764.9321 C 79.895153,763.31223 71.666767,751.40311 70.520852,749.52825 C 72.388213,748.43334 75.399988,746.09351 75.399988,743.25872 C 75.399988,741.26387 73.999093,739.35901 69.416935,739.31402 L 69.416935,750.59317"
         style="fill:#231f20;fill-rule:nonzero;stroke:none"
         id="path9499" />
      <path
         d="M 111.60879,763.56721 C 111.69428,762.47229 111.73628,756.44274 111.73628,751.82308 L 111.73628,740.70891 C 109.70093,740.70891 103.67888,740.9189 102.36348,740.96389 L 102.36348,733.53945 C 104.27133,733.71943 114.32508,733.88442 114.79155,733.88442 L 118.48277,733.88442 C 119.29271,733.88442 128.53202,733.71943 130.61687,733.53945 L 130.61687,740.96389 C 129.80693,740.9189 121.96251,740.70891 121.27257,740.70891 L 121.27257,752.49803 C 121.27257,756.87771 121.31756,762.72727 121.40756,763.56721 L 111.60879,763.56721"
         style="fill:#231f20;fill-rule:nonzero;stroke:none"
         id="path9501" />
      <path
         d="M 130.30189,722.89024 C 132.22175,723.16022 153.89513,723.83517 155.88998,723.95516 L 156.05497,724.37513 C 154.99005,726.33998 142.85596,746.04851 142.36099,746.81346 C 144.85081,746.81346 154.3151,746.69347 155.50001,746.52848 L 155.33502,754.2379 C 154.2701,754.2379 130.52687,753.81793 128.65201,753.81793 L 128.44203,753.39796 C 130.39189,750.38319 141.55105,732.23454 142.48098,730.70466 C 141.04109,730.70466 131.36681,730.31469 130.1369,730.31469 L 130.30189,722.89024"
         style="fill:#231f20;fill-rule:nonzero;stroke:none"
         id="path9503" />
      <path
         d="M 35.481966,752.21305 C 35.669452,749.73824 35.669452,739.74898 35.669452,738.62407 L 35.669452,732.42953 C 35.669452,731.67959 35.576459,720.43042 35.481966,719.08053 C 39.306681,719.08053 51.019307,718.57056 55.916442,718.37558 L 56.105428,726.07 L 45.840194,726.30999 L 45.840194,733.49445 C 46.866117,733.49445 49.993384,733.20947 55.217494,733.07448 L 55.358483,740.45393 L 45.840194,740.34894 L 45.840194,744.32364 C 45.840194,745.07359 45.88669,751.5531 45.88669,752.21305 L 35.481966,752.21305"
         style="fill:#ec1b24;fill-rule:nonzero;stroke:none"
         id="path9505" />
      <path
         d="M 66.874624,747.20343 C 66.874624,748.80831 67.002115,759.54751 67.086108,760.17746 L 57.627814,760.17746 C 57.797301,759.15754 57.711808,745.71854 57.711808,744.8186 L 57.711808,741.35386 C 57.711808,740.07896 57.627814,730.86965 57.501824,730.05971 C 63.31239,730.05971 69.20695,730.1497 73.024165,730.65966 C 79.301197,731.4696 82.692444,733.92942 82.692444,737.82913 C 82.692444,741.30887 80.531105,743.97867 77.222352,746.30349 C 78.495757,747.75839 84.984273,754.3279 86.088191,755.67779 L 78.32477,761.54236 C 77.349843,759.92248 69.121457,747.99837 67.977042,746.13851 C 69.842903,745.04359 72.853178,742.70376 72.853178,739.86897 C 72.853178,737.87412 71.453783,735.96927 66.874624,735.90927 L 66.874624,747.20343"
         style="fill:#ec1b24;fill-rule:nonzero;stroke:none"
         id="path9507" />
      <path
         d="M 90.890833,731.60459 C 92.79869,731.33461 94.919532,731.04963 96.474916,730.76465 L 95.344,724.99008 L 100.6641,724.99008 C 100.62211,725.75503 100.49612,732.62451 100.49612,737.72413 L 100.49612,742.29879 C 100.49612,746.54348 100.62211,754.13291 100.6641,755.10784 L 90.824837,755.10784 C 90.908831,753.24798 90.952328,743.31872 90.952328,742.2088 L 90.952328,737.63414 C 90.952328,737.27417 90.92233,734.48438 90.890833,731.60459"
         style="fill:#231f20;fill-rule:nonzero;stroke:none"
         id="path9509" />
      <path
         d="M 109.06348,760.17746 C 109.14897,759.08254 109.19397,753.05299 109.19397,748.43334 L 109.19397,737.31916 C 107.15562,737.31916 101.13357,737.52915 99.816667,737.57415 L 99.816667,730.1497 C 101.72602,730.31469 111.77977,730.49467 112.24774,730.49467 L 115.93296,730.49467 C 116.7429,730.49467 125.98221,730.31469 128.06706,730.1497 L 128.06706,737.57415 C 127.25712,737.52915 119.4127,737.31916 118.73775,737.31916 L 118.73775,749.10828 C 118.73775,753.47296 118.78275,759.33752 118.85775,760.17746 L 109.06348,760.17746"
         style="fill:#ec1b24;fill-rule:nonzero;stroke:none"
         id="path9511" />
      <path
         d="M 127.76708,719.50049 C 129.67194,719.75547 151.34532,720.44542 153.34017,720.56541 L 153.50516,720.98538 C 152.45524,722.93524 140.32114,742.65877 139.81118,743.42371 C 142.316,743.42371 151.76529,743.30372 152.9502,743.12373 L 152.78521,750.84816 C 151.73529,750.84816 127.97707,750.42819 126.10221,750.42819 L 125.89222,749.99322 C 127.85707,746.99344 139.00124,728.8298 139.93117,727.29991 C 138.49128,727.29991 128.817,726.92494 127.58709,726.92494 L 127.76708,719.50049"
         style="fill:#ec1b24;fill-rule:nonzero;stroke:none"
         id="path9513" />
      <path
         d="M 88.309525,728.19984 C 90.217383,727.91487 92.341224,727.62989 93.893609,727.35991 L 92.762693,721.58534 L 98.085796,721.58534 C 98.042299,722.35028 97.916308,729.21977 97.916308,734.30439 L 97.916308,738.89405 C 97.916308,743.12373 98.042299,750.72816 98.085796,751.68809 L 88.24503,751.68809 C 88.329024,749.82823 88.37252,739.89897 88.37252,738.80405 L 88.37252,734.2294 C 88.37252,733.86942 88.341023,731.07963 88.309525,728.19984"
         style="fill:#ec1b24;fill-rule:nonzero;stroke:none"
         id="path9515" />
      <path
         d="M 165.92423,723.52019 L 163.29943,738.57907 L 156.90991,738.26409 L 157.86984,723.07023 L 165.92423,723.52019 z M 155.06504,743.16873 L 159.98468,739.32901 L 163.82439,744.24865 L 158.90476,748.08836 L 155.06504,743.16873"
         style="fill:#ec1b24;fill-rule:nonzero;stroke:none"
         id="path9517" />
    </g>
  </g>
</svg>
