<?xml version="1.0" encoding="utf-8"?>
<!-- Generator: Adobe Illustrator 28.2.0, SVG Export Plug-In . SVG Version: 6.00 Build 0)  -->
<svg version="1.1" id="Layer_1" xmlns="http://www.w3.org/2000/svg" xmlns:xlink="http://www.w3.org/1999/xlink" x="0px" y="0px"
	 viewBox="0 0 512 512" style="enable-background:new 0 0 512 512;" xml:space="preserve">
<style type="text/css">
	.st0{fill:#E24329;}
	.st1{fill:#FC6D26;}
	.st2{fill:#FCA326;}
</style>
<g id="LOGO">
	<path class="st0" d="M503.5,204.6l-0.7-1.8L433.1,21c-1.4-3.6-3.9-6.6-7.2-8.6c-8.6-5.5-19.9-3-25.4,5.6c-1,1.5-1.7,3.2-2.2,4.9
		l-47,144H160.8l-47-144c-2.8-9.8-13-15.5-22.8-12.7c-1.7,0.5-3.4,1.2-4.9,2.2c-3.2,2-5.8,5.1-7.2,8.6L9.3,202.8l-0.7,1.8
		C-12,258.5,5.5,319.4,51.5,354.2l0.3,0.2l0.6,0.5l106,79.4l52.6,39.7l31.9,24.2c7.7,5.8,18.3,5.8,26,0l31.9-24.2l52.6-39.7
		l106.8-79.9l0.3-0.2C506.5,319.4,524,258.5,503.5,204.6z"/>
	<path class="st1" d="M503.5,204.6l-0.7-1.8c-33.9,7-65.9,21.4-93.7,42.1l-153,115.7l97.4,73.6l106.8-79.9l0.3-0.2
		C506.6,319.4,524,258.5,503.5,204.6z"/>
	<path class="st2" d="M158.3,434.3l52.6,39.7l31.9,24.2c7.7,5.8,18.3,5.8,26,0l31.9-24.2l52.6-39.7L256,360.6L158.3,434.3z"/>
	<path class="st1" d="M102.9,244.9c-27.7-20.8-59.7-35.1-93.6-42.1l-0.7,1.8C-12,258.5,5.5,319.4,51.5,354.2l0.3,0.2l0.6,0.5
		l106,79.4l97.5-73.6L102.9,244.9z"/>
</g>
</svg>
