<?xml version="1.0" encoding="utf-8"?>
<!-- Generator: Adobe Illustrator 28.2.0, SVG Export Plug-In . SVG Version: 6.00 Build 0)  -->
<svg version="1.1"
	 id="svg10" xmlns:svg="http://www.w3.org/2000/svg" xmlns:inkscape="http://www.inkscape.org/namespaces/inkscape" xmlns:rdf="http://www.w3.org/1999/02/22-rdf-syntax-ns#" xmlns:cc="http://creativecommons.org/ns#" xmlns:dc="http://purl.org/dc/elements/1.1/" xmlns:sodipodi="http://sodipodi.sourceforge.net/DTD/sodipodi-0.dtd" inkscape:version="0.92.4 5da689c313, 2019-01-14" sodipodi:docname="centered_simple.svg"
	 xmlns="http://www.w3.org/2000/svg" xmlns:xlink="http://www.w3.org/1999/xlink" x="0px" y="0px" viewBox="0 0 512 512"
	 style="enable-background:new 0 0 512 512;" xml:space="preserve">
<style type="text/css">
	.st0{fill:#64B5F6;}
</style>
<sodipodi:namedview  bordercolor="#666666" borderopacity="1" gridtolerance="10" guidetolerance="10" id="namedview12" inkscape:current-layer="Layer_x0020_1" inkscape:cx="149.37936" inkscape:cy="113.2339" inkscape:pageopacity="0" inkscape:pageshadow="2" inkscape:window-height="1983" inkscape:window-maximized="0" inkscape:window-width="1912" inkscape:window-x="1920" inkscape:window-y="173" inkscape:zoom="2.6298096" objecttolerance="10" pagecolor="#ffffff" showgrid="false" units="px">
	</sodipodi:namedview>
<g id="Layer_x0020_1" transform="translate(0,1.0152487e-4)">
	<g>
		<path id="path7_00000178196840680214727170000003357816393396691360_" inkscape:connector-curvature="0" class="st0" d="
			M148.3,154.5l73.8-42c-1.4-4.1-2.3-8.3-2.3-13c0-17.8,13-32.5,30-35.6V0h12.4v63.9c17,3.1,30,17.8,30,35.6c0,4.6-1,8.9-2.5,13
			l74,42c2.7-3.1,6-5.8,9.7-8.1c15.5-8.9,34.9-5,45.9,8.1l55.4-32l6.2,10.8l-55.4,32c6,16.3-0.4,34.9-15.9,43.8
			c-3.5,1.9-7,3.3-10.7,4.1v85.6c3.7,0.8,7.2,2.1,10.7,4.1c15.5,8.9,21.9,27.5,15.9,43.8l55.4,32l-6.2,10.8l-55.4-32
			c-11,13.2-30.4,17-45.9,8.1c-3.7-2.3-7-5-9.7-8.1c-24.6,13.9-49.2,28.1-74,42c1.5,4.1,2.5,8.3,2.5,13c0,17.8-13,32.5-30,35.6V512
			h-12.4v-63.9c-17-3.1-30-17.8-30-35.6c0-4.6,1-8.9,2.3-13l-73.8-42c-2.7,3.1-6,5.8-9.7,8.1c-15.5,8.9-34.9,5-45.9-8.1l-55.4,32
			l-6.2-10.8l55.4-32c-6-16.3,0.4-34.9,15.9-43.8c3.5-1.9,7-3.3,10.7-4.1v-85.6c-3.7-0.8-7.2-2.1-10.7-4.1
			c-15.5-8.9-21.9-27.5-15.9-43.8l-55.4-32l6.2-10.8l55.4,32c11-13.2,30.4-17,45.9-8.1C142.3,148.7,145.6,151.4,148.3,154.5z
			 M357.5,346.6c-3.5-9.7-2.9-20.9,2.7-30.4c5.8-10.1,15.7-16.3,26.3-17.8v-84.8c-10.7-1.5-20.5-7.7-26.3-17.8
			c-5.6-9.5-6.2-20.7-2.7-30.4l-74-42.2c-6.8,7.7-16.5,12.6-27.5,12.6c-11,0-20.7-4.8-27.5-12.6l-74,42.2c3.5,9.7,2.9,20.9-2.7,30.4
			c-5.8,10.1-15.7,16.3-26.3,17.8v84.8c10.7,1.5,20.5,7.7,26.3,17.8c5.6,9.5,6.2,20.7,2.7,30.4l74,42.2c6.8-7.7,16.5-12.6,27.5-12.6
			c11,0,20.7,4.8,27.5,12.6L357.5,346.6z"/>
	</g>
</g>
</svg>
