<?xml version="1.0" encoding="utf-8"?>
<!-- Generator: Adobe Illustrator 28.2.0, SVG Export Plug-In . SVG Version: 6.00 Build 0)  -->
<svg version="1.1" id="Layer_1" xmlns="http://www.w3.org/2000/svg" xmlns:xlink="http://www.w3.org/1999/xlink" x="0px" y="0px"
	 viewBox="0 0 512 512" style="enable-background:new 0 0 512 512;" xml:space="preserve">
<style type="text/css">
	.st0{fill:#FFFFFF;}
	.st1{clip-path:url(#SVGID_00000154396841570412014840000012557054993305596289_);}
	.st2{fill:url(#path46_00000181067233511449385280000015292133859552652210_);}
	.st3{clip-path:url(#SVGID_00000079474515036661939620000014085648815926039449_);}
	.st4{fill:url(#path64_00000034804098885569266820000000660497185708794288_);}
	.st5{clip-path:url(#SVGID_00000108310137376219100900000017511287497706712245_);}
	.st6{fill:url(#path82_00000155866301817990884460000006572949600955672235_);}
	.st7{clip-path:url(#SVGID_00000130638944082291365230000016763478620626616233_);}
	.st8{fill:url(#path100_00000129184794267501685320000002929060968166237078_);}
	.st9{clip-path:url(#SVGID_00000172429117698276999060000005546794264388124335_);}
	.st10{fill:url(#path118_00000009573186223497889080000012985292775553516689_);}
	.st11{fill:#696566;}
	.st12{clip-path:url(#SVGID_00000054951279685886712840000016384467360991815082_);}
	.st13{fill:url(#path142_00000121273425396747719820000009707031422925055882_);}
	.st14{clip-path:url(#SVGID_00000019679843730307600200000001124390567173759927_);}
	.st15{fill:url(#path160_00000053534958419245899350000004680974086472184480_);}
	.st16{clip-path:url(#SVGID_00000051343599143495710710000011568745204345827248_);}
	.st17{fill:url(#path178_00000111886915168772191800000003015462223356686235_);}
</style>
<g id="g12">
	<path id="path14" class="st0" d="M35.2,256c0-121.1,98.1-219.2,219.2-219.2S473.5,134.9,473.5,256c0,121.1-98.1,219.2-219.2,219.2
		c0,0,0,0,0,0C133.3,475.2,35.2,377.1,35.2,256"/>
	<g>
		<defs>
			<polygon id="SVGID_1_" points="246.5,437.9 145.4,393.3 139.7,457 250.9,492.3 246.5,437.9 			"/>
		</defs>
		<clipPath id="SVGID_00000178885896707708967150000000803906827744538295_">
			<use xlink:href="#SVGID_1_"  style="overflow:visible;"/>
		</clipPath>
		<g id="g30" style="clip-path:url(#SVGID_00000178885896707708967150000000803906827744538295_);">
			<g id="g32">
				
					<linearGradient id="path46_00000001634720254593262730000003979539429826721698_" gradientUnits="userSpaceOnUse" x1="218.9348" y1="-290.1127" x2="222.5878" y2="-290.1127" gradientTransform="matrix(30.43 0 0 30.43 -6521.832 9270.957)">
					<stop  offset="0" style="stop-color:#60B932"/>
					<stop  offset="0.28" style="stop-color:#60B932"/>
					<stop  offset="1" style="stop-color:#367C34"/>
				</linearGradient>
				<path id="path46" style="fill:url(#path46_00000001634720254593262730000003979539429826721698_);" d="M246.5,437.9l-101.1-44.5
					l-5.6,63.6l111.2,35.3L246.5,437.9"/>
			</g>
		</g>
	</g>
	<g>
		<defs>
			<path id="SVGID_00000027597333285634247110000016315922499816364688_" d="M165.2,191.8h56.8v48.4h-13.5v-20.6
				c0-8.2-6.7-14.9-14.9-14.9c-8.2,0-14.9,6.7-14.9,14.9c0,0,0,0,0,0v20.6h-13.5L165.2,191.8z M153.8,297.8l84.2,37.1l-5.8-71h11
				v-23.7h-8.2v-48.4h8.2v-13.9l-45.4-44.5v-3.1c0-2.4-1.9-4.3-4.3-4.3s-4.3,1.9-4.3,4.3v3.1l-45.4,44.5v13.9h8.2v48.4h-8.2V264h13
				L153.8,297.8z"/>
		</defs>
		<clipPath id="SVGID_00000057112844980708135710000005821663563961849278_">
			<use xlink:href="#SVGID_00000027597333285634247110000016315922499816364688_"  style="overflow:visible;"/>
		</clipPath>
		<g id="g48" style="clip-path:url(#SVGID_00000057112844980708135710000005821663563961849278_);">
			<g id="g50">
				
					<linearGradient id="path64_00000089576356790433968300000008768269680571640477_" gradientUnits="userSpaceOnUse" x1="218.2692" y1="-295.0144" x2="221.9354" y2="-295.0144" gradientTransform="matrix(27.21 0 0 27.21 -5797.292 8257.8252)">
					<stop  offset="0" style="stop-color:#60B932"/>
					<stop  offset="0.28" style="stop-color:#60B932"/>
					<stop  offset="1" style="stop-color:#367C34"/>
				</linearGradient>
				<path id="path64" style="fill:url(#path64_00000089576356790433968300000008768269680571640477_);" d="M165.2,191.8h56.8v48.4
					h-13.5v-20.6c0-8.2-6.7-14.9-14.9-14.9c-8.2,0-14.9,6.7-14.9,14.9c0,0,0,0,0,0v20.6h-13.5L165.2,191.8z M153.8,297.8l84.2,37.1
					l-5.8-71h11v-23.7h-8.2v-48.4h8.2v-13.9l-45.4-44.5v-3.1c0-2.4-1.9-4.3-4.3-4.3s-4.3,1.9-4.3,4.3v3.1l-45.4,44.5v13.9h8.2v48.4
					h-8.2V264h13L153.8,297.8"/>
			</g>
		</g>
	</g>
	<g>
		<defs>
			<polygon id="SVGID_00000101068999868315651800000008469884088247459715_" points="148.9,353.6 242.9,395.1 241.5,377.8 
				150.3,337.6 148.9,353.6 			"/>
		</defs>
		<clipPath id="SVGID_00000084503067380412070260000003918706696496532654_">
			<use xlink:href="#SVGID_00000101068999868315651800000008469884088247459715_"  style="overflow:visible;"/>
		</clipPath>
		<g id="g66" style="clip-path:url(#SVGID_00000084503067380412070260000003918706696496532654_);">
			<g id="g68">
				
					<linearGradient id="path82_00000039129121619710344810000011548896335596865680_" gradientUnits="userSpaceOnUse" x1="218.0526" y1="-290.7933" x2="221.7041" y2="-290.7933" gradientTransform="matrix(25.75 0 0 25.75 -5465.6812 7854.2729)">
					<stop  offset="0" style="stop-color:#60B932"/>
					<stop  offset="0.28" style="stop-color:#60B932"/>
					<stop  offset="1" style="stop-color:#367C34"/>
				</linearGradient>
				<path id="path82" style="fill:url(#path82_00000039129121619710344810000011548896335596865680_);" d="M148.9,353.6l94,41.5
					l-1.5-17.3l-91.3-40.2l-1.5,16"/>
			</g>
		</g>
	</g>
	<g>
		<defs>
			<polygon id="SVGID_00000120532363009261308240000000484846719056553401_" points="146.4,381.5 245.4,425.1 244,407.9 
				147.8,365.5 			"/>
		</defs>
		<clipPath id="SVGID_00000159470119474243750800000005871105978880356514_">
			<use xlink:href="#SVGID_00000120532363009261308240000000484846719056553401_"  style="overflow:visible;"/>
		</clipPath>
		<g id="g84" style="clip-path:url(#SVGID_00000159470119474243750800000005871105978880356514_);">
			<g id="g86">
				
					<linearGradient id="path100_00000102525008118918355670000005741244642861759151_" gradientUnits="userSpaceOnUse" x1="218.3508" y1="-290.3119" x2="222.0023" y2="-290.3119" gradientTransform="matrix(27.1 0 0 27.1 -5769.6992 8262.7529)">
					<stop  offset="0" style="stop-color:#60B932"/>
					<stop  offset="0.28" style="stop-color:#60B932"/>
					<stop  offset="1" style="stop-color:#367C34"/>
				</linearGradient>
				<path id="path100" style="fill:url(#path100_00000102525008118918355670000005741244642861759151_);" d="M146.4,381.5l99,43.6
					l-1.5-17.3l-96.2-42.4l-1.5,16"/>
			</g>
		</g>
	</g>
	<g>
		<defs>
			<polygon id="SVGID_00000040564380979768052310000001852405106577024137_" points="152.8,309.7 151.4,325.7 240.5,365 
				239.1,347.8 			"/>
		</defs>
		<clipPath id="SVGID_00000018232709090824804650000006421363624986160544_">
			<use xlink:href="#SVGID_00000040564380979768052310000001852405106577024137_"  style="overflow:visible;"/>
		</clipPath>
		<g id="g102" style="clip-path:url(#SVGID_00000018232709090824804650000006421363624986160544_);">
			<g id="g104">
				
					<linearGradient id="path118_00000154426490230095734910000004335483101919895448_" gradientUnits="userSpaceOnUse" x1="217.7128" y1="-291.33" x2="221.3643" y2="-291.33" gradientTransform="matrix(24.4 0 0 24.4 -5161.6626 7445.793)">
					<stop  offset="0" style="stop-color:#60B932"/>
					<stop  offset="0.28" style="stop-color:#60B932"/>
					<stop  offset="1" style="stop-color:#367C34"/>
				</linearGradient>
				<path id="path118" style="fill:url(#path118_00000154426490230095734910000004335483101919895448_);" d="M152.8,309.7l-1.5,16
					l89.2,39.2l-1.5-17.3L152.8,309.7"/>
			</g>
		</g>
	</g>
	<path id="path120" class="st11" d="M437.4,155.7l45.5-14.6c-0.2-0.3-0.3-0.7-0.5-1c-7.7-15-16.8-29.2-27.3-42.4l-42.8,22.1
		c9.4,10.8,17.6,22.6,24.6,35.1C437.1,155.1,437.2,155.4,437.4,155.7"/>
	<path id="path122" class="st11" d="M462.5,241.9l47.4,3.4c-0.5-12.7-2-25.2-4.4-37.7l-47.9,1.6
		C460.1,219.9,461.7,230.9,462.5,241.9"/>
	<path id="path124" class="st11" d="M257.6,464.8c-115.1,0-208.8-93.7-208.8-208.8S142.5,47.2,257.6,47.2
		c39.8,0,78.8,11.4,112.3,32.9l33.2-34.6C360.5,15.8,309.7-0.1,257.6,0C116.5,0,1.7,114.8,1.7,256s114.8,256,256,256
		c120.6,0,221.9-83.9,248.8-196.3l-44.7-15.5C441.4,394.2,357.7,464.9,257.6,464.8"/>
	<g>
		<defs>
			<path id="SVGID_00000116217374890355027710000016717063035625712025_" d="M450.7,92c-12.9-15.5-27.6-29.4-43.8-41.4
				c-2.3-1.7-4.7-3.4-7.1-5l-33.3,34.5L245.4,206.2l167-86.4l42.8-22.1C453.7,95.7,452.2,93.8,450.7,92z"/>
		</defs>
		<clipPath id="SVGID_00000177459081754958078580000009607697968871820727_">
			<use xlink:href="#SVGID_00000116217374890355027710000016717063035625712025_"  style="overflow:visible;"/>
		</clipPath>
		<g id="g126" style="clip-path:url(#SVGID_00000177459081754958078580000009607697968871820727_);">
			<g id="g128">
				
					<linearGradient id="path142_00000161602618509699560010000010092661787384555402_" gradientUnits="userSpaceOnUse" x1="223.1255" y1="-298.4791" x2="226.7769" y2="-298.4791" gradientTransform="matrix(53.1132 -39.3304 39.3304 53.1132 138.2111 24831.9668)">
					<stop  offset="0" style="stop-color:#4596D8"/>
					<stop  offset="0.2" style="stop-color:#4596D8"/>
					<stop  offset="1" style="stop-color:#FFFFFF"/>
				</linearGradient>
				<path id="path142" style="fill:url(#path142_00000161602618509699560010000010092661787384555402_);" d="M450.7,92
					c-12.9-15.5-27.6-29.4-43.8-41.4c-2.3-1.7-4.7-3.4-7.1-5l-33.3,34.5L245.4,206.2l167-86.4l42.8-22.1
					C453.7,95.8,452.2,93.9,450.7,92"/>
			</g>
		</g>
	</g>
	<g>
		<defs>
			<path id="SVGID_00000069390308661347361130000003123699936370525085_" d="M510.3,254c0-2.9-0.2-5.9-0.3-8.7l-47.4-3.4
				l-217.1-15.6l213,73.9l44.8,15.5c0.1-0.5,0.3-1,0.4-1.6c4.5-19.1,6.7-38.5,6.7-58.1L510.3,254L510.3,254z"/>
		</defs>
		<clipPath id="SVGID_00000094605622570159155610000004358549429867567510_">
			<use xlink:href="#SVGID_00000069390308661347361130000003123699936370525085_"  style="overflow:visible;"/>
		</clipPath>
		<g id="g144" style="clip-path:url(#SVGID_00000094605622570159155610000004358549429867567510_);">
			<g id="g146">
				
					<linearGradient id="path160_00000046324078301390854660000009937889814944986034_" gradientUnits="userSpaceOnUse" x1="224.004" y1="-297.1109" x2="227.6555" y2="-297.1109" gradientTransform="matrix(76.2273 15.564 -15.564 76.2273 -21451.3984 19389.2637)">
					<stop  offset="0" style="stop-color:#4194D7"/>
					<stop  offset="0.2" style="stop-color:#4194D7"/>
					<stop  offset="1" style="stop-color:#FFFFFF"/>
				</linearGradient>
				<path id="path160" style="fill:url(#path160_00000046324078301390854660000009937889814944986034_);" d="M510.3,254
					c0-2.9-0.2-5.9-0.3-8.7l-47.4-3.4l-217.1-15.6l213,73.9l44.8,15.5c0.1-0.5,0.3-1,0.4-1.6c4.5-19.1,6.7-38.5,6.7-58.1L510.3,254"
					/>
			</g>
		</g>
	</g>
	<g>
		<defs>
			<path id="SVGID_00000001656573736270727390000011475236799380566433_" d="M503.3,196.6c-4.6-19.2-11.4-37.9-20.4-55.5l-45.6,14.6
				l-188.7,60.6l209.1-7.1l47.9-1.6C504.9,203.9,504.2,200.2,503.3,196.6z"/>
		</defs>
		<clipPath id="SVGID_00000062897075819425661370000004930501798529094064_">
			<use xlink:href="#SVGID_00000001656573736270727390000011475236799380566433_"  style="overflow:visible;"/>
		</clipPath>
		<g id="g162" style="clip-path:url(#SVGID_00000062897075819425661370000004930501798529094064_);">
			<g id="g164">
				
					<linearGradient id="path178_00000021110299011633736380000013180812640061663890_" gradientUnits="userSpaceOnUse" x1="223.3771" y1="-297.6525" x2="227.0286" y2="-297.6525" gradientTransform="matrix(70.2157 -12.6718 12.6718 70.2157 -11676.3525 23951.2852)">
					<stop  offset="0" style="stop-color:#4194D7"/>
					<stop  offset="0.33" style="stop-color:#4496D8"/>
					<stop  offset="1" style="stop-color:#FFFFFF"/>
				</linearGradient>
				<path id="path178" style="fill:url(#path178_00000021110299011633736380000013180812640061663890_);" d="M503.3,196.6
					c-4.6-19.2-11.4-37.9-20.4-55.5l-45.6,14.6l-188.7,60.6l209.1-7.1l47.9-1.6C504.9,203.8,504.1,200.2,503.3,196.6"/>
			</g>
		</g>
	</g>
</g>
</svg>
