<?xml version="1.0" encoding="utf-8"?>
<!-- Generator: Adobe Illustrator 28.2.0, SVG Export Plug-In . SVG Version: 6.00 Build 0)  -->
<svg version="1.1" id="Layer_1" xmlns="http://www.w3.org/2000/svg" xmlns:xlink="http://www.w3.org/1999/xlink" x="0px" y="0px"
	 viewBox="0 0 512 512" style="enable-background:new 0 0 512 512;" xml:space="preserve">
<style type="text/css">
	.st0{fill-rule:evenodd;clip-rule:evenodd;fill:#FF4088;}
	.st1{fill:#C9177E;}
	.st2{fill-rule:evenodd;clip-rule:evenodd;fill:#FFFFFF;}
</style>
<g>
	<g>
		<path class="st0" d="M285.8,27l151.4,88.1c17.9,10.5,29,29.6,29,50.3V346c0,22.9-12.3,44.1-32.4,55.3l-150.2,84.6
			c-20,11.2-44.3,11.1-64.2-0.3L81,406c-21.7-12.6-35.2-35.7-35.2-60.7V173.9c0-25.3,13.1-48.7,34.5-61.9l136-84
			C237.6,14.9,264.3,14.6,285.8,27z"/>
		<path class="st1" d="M251.7,512c-14.3,0-28.5-3.6-41.2-10.9L72.1,421.5c-27.3-15.8-44.2-45-44.2-76.2V173.9
			c0-31.7,16.1-60.5,43-77.1l136-84c26.8-16.6,60.4-17,87.7-1.2l0,0l151.4,88.1c23.4,13.7,37.9,38.9,37.9,65.7V346
			c0,29.4-15.9,56.6-41.6,70.9l-150.2,84.5C279.7,508.5,265.7,512,251.7,512z M251.8,35.7c-9,0-18,2.5-26,7.4l-136.1,84
			c-16.3,10.1-26.1,27.5-26.1,46.7v171.4c0,18.5,10.1,35.9,26.3,45.3l138.2,79.5c14.3,8.2,32.1,8.3,46.5,0.2L425,385.7
			c14.4-8.1,23.3-23.3,23.3-39.7V165.5c0-14.2-7.7-27.6-20.1-34.9L276.8,42.5C269,38,260.4,35.7,251.8,35.7z"/>
	</g>
	<polygon class="st2" points="150.9,392 150.9,117.8 208.4,117.8 208.4,217.7 303.5,217.7 303.5,117.8 361.1,117.8 361.1,392 
		303.5,392 303.5,272.1 208.4,272.1 208.4,392 	"/>
</g>
</svg>
