<?xml version="1.0" encoding="UTF-8" standalone="no"?>
<!-- Generator: Adobe Illustrator 26.1.0, SVG Export Plug-In . SVG Version: 6.00 Build 0)  -->

<svg
   version="1.1"
   id="Layer_1"
   width="100"
   height="96"
   viewBox="0 0 100 96"
   xml:space="preserve"
   sodipodi:docname="jellyseerr.svg"
   inkscape:version="1.2.2 (b0a8486, 2022-12-01)"
   xmlns:inkscape="http://www.inkscape.org/namespaces/inkscape"
   xmlns:sodipodi="http://sodipodi.sourceforge.net/DTD/sodipodi-0.dtd"
   xmlns="http://www.w3.org/2000/svg"
   xmlns:svg="http://www.w3.org/2000/svg"><defs
   id="defs63" /><sodipodi:namedview
   id="namedview61"
   pagecolor="#505050"
   bordercolor="#eeeeee"
   borderopacity="1"
   inkscape:showpageshadow="0"
   inkscape:pageopacity="0"
   inkscape:pagecheckerboard="0"
   inkscape:deskcolor="#505050"
   showgrid="false"
   inkscape:zoom="3.7105263"
   inkscape:cx="228"
   inkscape:cy="47.702128"
   inkscape:window-width="1792"
   inkscape:window-height="994"
   inkscape:window-x="0"
   inkscape:window-y="25"
   inkscape:window-maximized="0"
   inkscape:current-layer="Layer_1" />
<style
   type="text/css"
   id="style9">
	.st0{fill:#000B25;}
	.st1{fill:#FFFFFF;}
	.st2{fill:url(#SVGID_1_);}
	.st3{fill-rule:evenodd;clip-rule:evenodd;fill:#1D1D1B;}
	.st4{fill-rule:evenodd;clip-rule:evenodd;fill:#FFFFFF;}
	.st5{enable-background:new    ;}
</style>
<g
   id="g36"
   transform="translate(-0.09999847)">
	<ellipse
   class="st0"
   cx="50.099998"
   cy="48"
   rx="50"
   ry="48"
   id="ellipse11" />
	<rect
   x="36.400002"
   y="20.6"
   class="st1"
   width="13.5"
   height="5.5999999"
   id="rect13" />
	
		<linearGradient
   id="SVGID_1_"
   gradientUnits="userSpaceOnUse"
   x1="16.6369"
   y1="59.780102"
   x2="85.968002"
   y2="19.751801"
   gradientTransform="matrix(1,0,0,-1,0,98)">
		<stop
   offset="4.993059e-09"
   style="stop-color:#FFFFFF"
   id="stop15" />
		<stop
   offset="1.298195e-07"
   style="stop-color:#A85DC3"
   id="stop17" />
		<stop
   offset="0.1475"
   style="stop-color:#9864C5"
   id="stop19" />
		<stop
   offset="0.4344"
   style="stop-color:#6F75CC"
   id="stop21" />
		<stop
   offset="0.8288"
   style="stop-color:#2E90D5"
   id="stop23" />
		<stop
   offset="1"
   style="stop-color:#0F9DDA"
   id="stop25" />
	</linearGradient>
	<path
   class="st2"
   d="M 85.9,51.5 C 85.4,33.2 68.1,15.9 50.2,15.7 32.2,15.5 14.5,32.4 13.6,50.6 c -0.4,8.6 0.2,9.4 8.9,10.9 0.9,9.6 -0.5,15 -6.5,21.7 0.8,0.7 1.6,1.4 2.5,2.1 0.2,-0.2 0.4,-0.4 0.6,-0.7 5.3,-7.3 7.9,-10.3 7.3,-18.8 -0.4,-5.6 1.2,-8.3 7.2,-7.9 0.9,11.2 -1.5,16.8 -6.1,27.3 -0.7,1.6 -1.5,3.1 -2.4,4.4 1.1,0.6 2.3,1.2 3.4,1.8 1.2,-2.1 2.2,-4.4 2.9,-6.8 2.7,-9.6 5,-14.3 6,-24.4 0.4,-3.8 1.4,-5.3 5.7,-4.4 1.4,12.2 -1.3,18.7 -5,30.5 -0.9,2.7 -1.9,5.2 -3.1,7.6 1.1,0.3 2.3,0.7 3.5,0.9 0.7,-1.5 1.4,-3 2,-4.6 4.5,-11.8 7.4,-18.6 6.5,-31.1 -0.3,-4.6 1.5,-5.4 5,-4 0.5,9 -1.1,12.1 -0.1,20.7 0.9,7.5 2.9,14.1 6,19.8 1.1,-0.2 2.2,-0.4 3.3,-0.6 -5.3,-10.5 -5.1,-23.8 -4.9,-39 4.6,-1 5.8,0.3 6.1,4.2 0.5,8.8 -0.7,12.2 1.1,20.9 0.9,4.3 2.6,8.3 5.1,11.7 1.2,-0.5 2.4,-0.9 3.5,-1.5 -7.6,-8.8 -6.2,-19.6 -6.1,-33.6 7.4,1.5 6.7,1.5 7.4,7.9 0.8,7.9 1.3,9 3.5,16.6 0.3,1 1.3,2.8 2.6,4.8 1,-0.7 2,-1.4 2.9,-2.2 C 77,73.7 75.7,69.2 77.8,61.2 c 7.6,-0.9 8.3,-1.7 8.1,-9.7 z M 20.5,51.3 C 18.4,42.2 26.2,28.2 33.4,27.2 29.3,34.9 24.9,43.1 20.5,51.3 Z m 16.4,-25 c -0.2,-0.9 -0.5,-1.9 -0.7,-2.8 4.3,-1 8.5,-2.1 12.8,-3.1 0.2,0.9 0.5,1.8 0.7,2.8 -4.3,1.1 -8.5,2.1 -12.8,3.1 z"
   id="path28"
   style="fill:url(#SVGID_1_)" />
	<path
   class="st1"
   d="M 20.5,51.3 C 18.4,42.2 26.2,28.2 33.4,27.2 29.3,34.9 24.9,43.1 20.5,51.3 Z"
   id="path30" />
	<path
   class="st3"
   d="m 50.1,29.5 c -1.7,0 -3.2,0.5 -4.5,1.4 0.2,0 0.4,0 0.6,0 2.2,0 3.9,1.8 3.9,3.9 0,2.1 -1.8,3.9 -3.9,3.9 -1.8,0 -3.3,-1.2 -3.8,-2.8 -0.1,0.5 -0.1,0.9 -0.1,1.4 0,4.3 3.5,7.8 7.8,7.8 4.3,0 7.8,-3.5 7.8,-7.8 0,-4.3 -3.5,-7.8 -7.8,-7.8 z"
   id="path32" />
	<circle
   class="st4"
   cx="46.200001"
   cy="34.599998"
   r="3.9000001"
   id="circle34" />
</g>

</svg>
