<?xml version="1.0" encoding="utf-8"?>
<!-- Generator: Adobe Illustrator 28.2.0, SVG Export Plug-In . SVG Version: 6.00 Build 0)  -->
<svg version="1.1"
	 id="svg2" xmlns:cc="http://creativecommons.org/ns#" xmlns:rdf="http://www.w3.org/1999/02/22-rdf-syntax-ns#" xmlns:dc="http://purl.org/dc/elements/1.1/" xmlns:svg="http://www.w3.org/2000/svg" xmlns:sodipodi="http://sodipodi.sourceforge.net/DTD/sodipodi-0.dtd" xmlns:inkscape="http://www.inkscape.org/namespaces/inkscape"
	 xmlns="http://www.w3.org/2000/svg" xmlns:xlink="http://www.w3.org/1999/xlink" x="0px" y="0px" viewBox="0 0 512 512"
	 style="enable-background:new 0 0 512 512;" xml:space="preserve">
<style type="text/css">
	.st0{fill:url(#path28_00000097481936329805873280000010326166242806679196_);}
	.st1{fill:#FFFFFF;}
</style>
<g id="g12" transform="scale(0.1)">
	
		<linearGradient id="path28_00000005230955014464247720000009824039503004520368_" gradientUnits="userSpaceOnUse" x1="-502.2458" y1="6527.4272" x2="-501.4958" y2="6527.4272" gradientTransform="matrix(-585.0547 -585.0547 -585.0547 585.0547 3529814.5 -4107989)">
		<stop  offset="0" style="stop-color:#004CAF"/>
		<stop  offset="1" style="stop-color:#1F95F8"/>
	</linearGradient>
	<path id="path28" style="fill:url(#path28_00000005230955014464247720000009824039503004520368_);" d="M3873.9,5120H1246.1
		C560.8,5120,0,4559.2,0,3873.9V1246.1C0,560.8,560.8,0,1246.1,0h2627.8C4559.2,0,5120,560.8,5120,1246.1v2627.8
		C5120,4559.2,4559.2,5120,3873.9,5120"/>
	<path id="path30" class="st1" d="M3961.6,684.8H2570.2c-13.1,0-23.8,10.6-23.8,23.8v441.8c0,14.9,12,26.9,26.9,26.9h190.8
		c77.2,0,139.7,59.4,146.4,134.8V1615v168.8v1607.5v11.4h-0.1c0.5,16.8-0.2,33.4-1.8,49.7c-0.2,2.4-0.5,4.7-0.8,7.1
		c-1.1,9.5-2.3,19-4.2,28.3c-1,5.3-2.4,10.4-3.7,15.7c-1.7,6.9-3.1,14-5.2,20.7c-12.6,40.3-32.5,77.6-60,110.5
		c-1,1.2-2.3,2.2-3.3,3.4c-8.4,9.7-17.2,19.2-26.9,28.1c-9.8,8.9-20.3,17.3-31.2,25c-77.8,55.1-182.6,79.4-299.7,68.2
		c-149.3-14-297.3-81.7-417-190.6c-119.7-108.9-194.1-243.6-209.5-379.4c-13.8-121.5,22.6-228.4,102.4-301.1
		c0.2-0.2,0.4-0.3,0.6-0.5c3.1-2.8,6.5-5.2,9.7-7.9c57.2-47.9,131.7-76.9,216.7-84.9c1-0.1,1.9-0.2,2.8-0.3
		c8.9-0.8,18.1-1.1,27.3-1.5c4.8-0.2,9.6-0.5,14.4-0.5c1.6,0,3.2-0.2,4.8-0.2c2.9,0,5.9,0.4,8.8,0.4c13.4,0.2,26.9,0.8,40.7,1.9
		c1.7,0.1,3.4,0.1,5.2,0.2c1.3,0.1,2.5,0.4,3.8,0.5c78,7.8,155.2,31.1,228.5,66.4c1.5,0.1,3.3,0.5,5.5,1.8
		c22.3,12.3,26.6-0.9,27.3-9.6v-382.2V2189c0-19.1-13.2-35.9-31.8-40c-394.8-86.9-782.1,3.6-1055.4,252.3
		c-238.8,217.2-354.2,530.6-316.8,859.8c33.4,293.2,183.9,574.9,423.9,793.3c233.9,212.8,531.7,345.9,838.9,374.8
		c42.3,3.9,84.9,5.9,126.4,5.9c293.4,0,565.6-100.6,766.5-283.4c190.3-173.3,304.4-411.3,321.1-670.2l1.6-1697.9h0.2v-454h0.1v-7.9
		c1.7-80.1,67.1-144.6,147.6-144.6h190.8c14.9,0,26.9-12.1,26.9-26.9V708.5C3985.4,695.4,3974.7,684.8,3961.6,684.8"/>
</g>
</svg>
