<?xml version="1.0" encoding="utf-8"?>
<!-- Generator: Adobe Illustrator 28.2.0, SVG Export Plug-In . SVG Version: 6.00 Build 0)  -->
<svg version="1.1" id="Layer_1" transform="translate(0 .000021)"
	 xmlns="http://www.w3.org/2000/svg" xmlns:xlink="http://www.w3.org/1999/xlink" x="0px" y="0px" viewBox="0 0 512 512"
	 style="enable-background:new 0 0 512 512;" xml:space="preserve">
<style type="text/css">
	.st0{fill:#20AC64;}
	.st1{fill-rule:evenodd;clip-rule:evenodd;fill:#FFFFFF;}
</style>
<g>
	<path class="st0" d="M64,0h384c35.3,0,64,28.7,64,64v384c0,35.3-28.7,64-64,64H64c-35.3,0-64-28.7-64-64V64C0,28.7,28.7,0,64,0z"/>
	<path class="st1" d="M203.1,124c0-2.6-2.4-4.8-5.3-4.8c-2.9,0-5.3,2.1-5.3,4.8c0,12.5,15.3,29.6,17.1,31.5c1,1.1,2.6,1.7,4.1,1.7
		c1.2,0,2.4-0.4,3.4-1.1c2.3-1.7,2.6-4.7,0.7-6.7C212.1,143.3,203.1,130.9,203.1,124z M314.2,119.3c-2.9,0-5.3,2.1-5.3,4.8
		c0,6.9-9,19.3-14.7,25.5c-1.8,2-1.5,5,0.7,6.7c1,0.7,2.2,1.1,3.4,1.1c1.5,0,3-0.6,4.1-1.7c1.7-1.9,17.1-19.1,17.1-31.5
		C319.5,121.4,317.1,119.3,314.2,119.3z M256,119.3c-2.9,0-5.3,2.1-5.3,4.8v28.5c0,2.6,2.4,4.8,5.3,4.8c2.9,0,5.3-2.1,5.3-4.8V124
		C261.3,121.4,258.9,119.3,256,119.3L256,119.3z M314.2,59.4c-3.2,0-6.6,0.4-10,1c-11.6-12.2-28.9-20-48.1-20s-36.5,7.8-48.1,20
		c-3.5-0.6-6.8-1-10-1c-32.1,0-58.2,23.5-58.2,52.3c0,19.8,12.4,37.7,31.9,46.6l-0.1,46.3c0,5.2,2.2,10.1,6.3,13.7
		c4.1,3.7,9.5,5.7,15.3,5.7h126c11.9,0,21.6-8.7,21.6-19.4v-46.4c19.4-8.9,31.7-26.8,31.7-46.5C372.3,82.8,346.2,59.4,314.2,59.4
		L314.2,59.4z M330,204.6c0,5.5-4.9,9.9-11,9.9H193c-2.9,0-5.7-1-7.8-2.9c-2.1-1.9-3.2-4.4-3.2-7l0-3.3h148V204.6z M333.3,150.8
		c-0.3,0.1-0.5,0.2-0.8,0.4c-0.6,0.4-1.2,0.8-1.6,1.4c-0.4,0.6-0.7,1.2-0.8,1.9c0,0.3-0.1,0.5-0.1,0.8v36.5H182l0.1-36.4
		c0-0.3,0-0.5-0.1-0.8c-0.1-0.7-0.4-1.4-0.8-2c-0.4-0.6-1-1-1.6-1.4c-0.3-0.2-0.5-0.3-0.8-0.4c-17.4-6.8-28.6-22.2-28.6-39.2
		c0-23.6,21.3-42.8,47.6-42.8c1,0,2.1,0.1,3.2,0.2c-5.3,8.4-8.5,18-8.5,28.3c0,2.6,2.4,4.8,5.3,4.8c2.9,0,5.3-2.1,5.3-4.8
		c0-26.2,23.7-47.5,52.9-47.5s52.9,21.3,52.9,47.5c0,2.6,2.4,4.8,5.3,4.8c2.9,0,5.3-2.1,5.3-4.8c0-10.3-3.1-20-8.5-28.3
		c1.1-0.1,2.1-0.2,3.2-0.2c26.2,0,47.6,19.2,47.6,42.8C361.8,128.6,350.6,143.9,333.3,150.8L333.3,150.8z M395.6,321L395.6,321
		c0,46.2-37.5,83.7-83.7,83.7c-13.1,0-26-3.1-37.7-9c0.4-0.5,0.8-0.9,1.2-1.4c4.4-5.4,9-12.5,13.6-21c1.3-2.3,2-4.8,2.2-7.4
		c5.9,2.4,12.2,3.7,18.5,3.7c26.8,0,48.6-21.8,48.6-48.6s-21.8-48.6-48.6-48.6c-26.8,0-48.6,21.8-48.6,48.6c0,7.4,1.7,14.4,4.6,20.7
		c-3.2-0.7-6.5-1.1-9.8-1.1c-3.2,0-6.5,0.4-9.8,1.1c3-6.5,4.6-13.5,4.6-20.7c0-26.8-21.8-48.6-48.6-48.6s-48.6,21.8-48.6,48.6
		s21.8,48.6,48.6,48.6c6.4,0,12.7-1.2,18.5-3.7c0.2,2.6,1,5.1,2.2,7.4c4.7,8.5,9.3,15.6,13.6,21c0.4,0.5,0.8,0.9,1.2,1.4
		c-8.2,4.2-17.1,6.9-26.3,8.2c-2.8,0.4-4.8,3.1-4.3,5.9c0.4,2.8,3,4.7,5.7,4.4c11.5-1.6,22.6-5.3,32.7-10.9c3.6,2.6,7,3.9,10.3,3.9
		c3.3,0,6.8-1.3,10.3-3.9c13.9,7.7,29.6,11.8,45.6,11.8c12.4,0,24.3-2.4,35.2-6.8c10.2,15.9,16,34.1,16.9,53.1H148
		c0.9-18.9,6.7-37.1,16.9-53.1c8.6,3.5,17.7,5.6,26.9,6.5c2.8,0.3,5.4-1.9,5.6-4.7c0,0,0,0,0,0c0.3-2.8-1.9-5.4-4.7-5.6c0,0,0,0,0,0
		c-42.8-3.8-76.3-40.4-76.3-83.4V208.6c20,18.4,46.2,28.7,73.7,28.7h89.5l51.3-0.4c4.5-0.4,8.9-1,13.3-1.9c0.1,0,0.3-0.1,0.4-0.1
		c19.1-4.1,36.7-13.1,51.1-26.3L395.6,321z M235.2,357.1c7-4,14-6.1,20.8-6.1c6.8,0,13.8,2,20.8,6.1c3.9,2.3,5.3,7.3,3.1,11.3
		c-11.6,21-20.1,28.5-24,28.5c-3.8,0-12.4-7.5-24-28.5C229.9,364.4,231.3,359.3,235.2,357.1z M202.2,359.3
		c-21.1,0-38.3-17.2-38.3-38.3c0-21.1,17.2-38.3,38.3-38.3c21.1,0,38.3,17.2,38.3,38.3C240.5,342.1,223.3,359.3,202.2,359.3z
		 M402.6,191c-2-0.8-4.3-0.2-5.7,1.5c-12.8,15-39,28.2-48.4,30.8c-9.4,2.6-10.9,3.9-92.4,3.9s-83.2-1.3-92.4-3.9
		c-9.3-2.6-35.6-15.8-48.4-30.9c-1.9-2.2-5.1-2.4-7.3-0.6c-1.1,1-1.8,2.4-1.8,3.9V321c0,23.7,8.8,46.3,24.8,63.7
		c7.1,7.7,15.4,14.1,24.5,19.1c-11.7,18.8-17.9,40.3-17.9,62.7c0,2.9,2.3,5.2,5.2,5.2c0,0,0,0,0,0h226.7c2.9,0,5.2-2.3,5.2-5.2
		c0,0,0,0,0,0c0-22.4-6.2-43.9-17.9-62.7c29.4-15.9,49.4-47,49.4-82.8V195.9C406,193.7,404.6,191.7,402.6,191L402.6,191z M271.5,321
		c0-21.1,17.2-38.3,38.3-38.3c21.1,0,38.3,17.2,38.3,38.3c0,21.1-17.2,38.3-38.3,38.3C288.7,359.3,271.5,342.1,271.5,321z
		 M202.2,312c-2.9,0-5.2,2.3-5.2,5.2c0,0,0,0,0,0v7.7c0,2.9,2.3,5.2,5.2,5.2c2.9,0,5.2-2.3,5.2-5.2c0,0,0,0,0,0v-7.7
		C207.4,314.3,205.1,312,202.2,312L202.2,312z M309.8,312c-2.9,0-5.2,2.3-5.2,5.2c0,0,0,0,0,0v7.7c0,2.9,2.3,5.2,5.2,5.2
		c2.9,0,5.2-2.3,5.2-5.2v-7.7C315,314.3,312.7,312,309.8,312C309.8,312,309.8,312,309.8,312z"/>
</g>
</svg>
