<?xml version="1.0" encoding="utf-8"?>
<!-- Generator: Adobe Illustrator 28.2.0, SVG Export Plug-In . SVG Version: 6.00 Build 0)  -->
<svg version="1.1" id="Layer_1" xmlns="http://www.w3.org/2000/svg" xmlns:xlink="http://www.w3.org/1999/xlink" x="0px" y="0px"
	 viewBox="0 0 512 512" style="enable-background:new 0 0 512 512;" xml:space="preserve">
<style type="text/css">
	.st0{fill:#0C1221;}
</style>
<g>
	<g>
		<path class="st0" d="M152,134.4c21.5,17.5,47.1,29.2,74.4,34.2V22.9l29.7-17.1l29.6,17.1v145.6c27.3-4.9,52.9-16.7,74.5-34.2
			l53.8,31.1c-87.6,86.6-228.5,86.6-316.1,0L152,134.4z M217.5,506.2C248.7,387,178.1,264.9,59.3,232.5v62.3
			c25.9,9.9,48.9,26.2,66.8,47.4L0,414.9v34.2l29.7,17l126.1-72.8c9.4,26.1,12,54.2,7.6,81.5L217.5,506.2z M452.8,232.5
			C334,265,263.6,387.1,294.8,506.2l54-31.2c-4.4-27.4-1.7-55.4,7.6-81.5l126,72.7l29.6-17.1v-34.2l-126.1-72.8
			c17.9-21.2,40.9-37.5,66.8-47.4L452.8,232.5z"/>
	</g>
</g>
</svg>
