<?xml version="1.0" encoding="utf-8"?>
<!-- Generator: Adobe Illustrator 28.2.0, SVG Export Plug-In . SVG Version: 6.00 Build 0)  -->
<svg version="1.1" id="Layer_1" xmlns="http://www.w3.org/2000/svg" xmlns:xlink="http://www.w3.org/1999/xlink" x="0px" y="0px"
	 viewBox="0 0 512 512" style="enable-background:new 0 0 512 512;" xml:space="preserve">
<style type="text/css">
	.st0{fill:url(#SVGID_1_);}
	.st1{fill:#666666;}
	.st2{opacity:0.32;}
	.st3{fill:#FFFFFF;}
	.st4{opacity:0.24;}
	.st5{fill:url(#SVGID_00000166667702983388535310000015058544129136427399_);}
	.st6{fill:url(#SVGID_00000008870388485378301390000007322223250259212435_);}
	.st7{fill:url(#SVGID_00000034789973491752866370000000268742190813656508_);}
	.st8{fill:url(#SVGID_00000047038630612803199650000014706569506903084223_);}
	.st9{fill:url(#SVGID_00000029019249099389202760000004144537392930099092_);}
	.st10{fill:url(#SVGID_00000080199169260293295790000010008937493367239087_);}
	.st11{fill:url(#SVGID_00000026867164393273272580000000617150060768260282_);}
</style>
<g>
	<g>
		<linearGradient id="SVGID_1_" gradientUnits="userSpaceOnUse" x1="428.9" y1="555.4716" x2="83.1" y2="-43.4716">
			<stop  offset="0" style="stop-color:#D7CCB3"/>
			<stop  offset="1" style="stop-color:#F2E6CA"/>
		</linearGradient>
		<path class="st0" d="M501.3,512H10.7C4.8,512,0,507.2,0,501.3V10.7C0,4.8,4.8,0,10.7,0h490.7c5.9,0,10.7,4.8,10.7,10.7v490.7
			C512,507.2,507.2,512,501.3,512z"/>
	</g>
	<rect x="36.6" y="36.6" class="st1" width="438.9" height="438.9"/>
	<g>
		<g class="st2">
			
				<image style="overflow:visible;" width="372" height="253" xlink:href="967E9447.png"  transform="matrix(1 0 0 1 70.0716 73.0716)">
			</image>
			<path class="st3" d="M419.8,304H92.2c-2.9,0-5.3-2.4-5.3-5.3V89.9c0-2.9,2.4-5.3,5.3-5.3h327.7c2.9,0,5.3,2.4,5.3,5.3v208.8
				C425.1,301.6,422.8,304,419.8,304z"/>
		</g>
		<g class="st4">
			
				<image style="overflow:visible;" width="346" height="226" xlink:href="967E9445.png"  transform="matrix(1 0 0 1 83.0135 82.0135)">
			</image>
			<path class="st3" d="M419.8,304H92.2c-2.9,0-5.3-2.4-5.3-5.3V89.9c0-2.9,2.4-5.3,5.3-5.3h327.7c2.9,0,5.3,2.4,5.3,5.3v208.8
				C425.1,301.6,422.8,304,419.8,304z"/>
		</g>
	</g>
	
		<linearGradient id="SVGID_00000150786872926531656440000007524216003383631779_" gradientUnits="userSpaceOnUse" x1="271.7934" y1="294.8817" x2="155.6352" y2="93.6898">
		<stop  offset="0" style="stop-color:#000000"/>
		<stop  offset="2.793296e-03" style="stop-color:#FFB900"/>
		<stop  offset="1" style="stop-color:#FEF000"/>
	</linearGradient>
	
		<rect x="171.4" y="84.6" style="fill:url(#SVGID_00000150786872926531656440000007524216003383631779_);" width="84.6" height="219.4"/>
	
		<linearGradient id="SVGID_00000181070964345751592090000012435580401134725559_" gradientUnits="userSpaceOnUse" x1="189.1575" y1="293.7642" x2="75.2343" y2="96.4433">
		<stop  offset="0" style="stop-color:#000000"/>
		<stop  offset="2.793296e-03" style="stop-color:#D83B01"/>
		<stop  offset="1" style="stop-color:#EC6725"/>
	</linearGradient>
	<path style="fill:url(#SVGID_00000181070964345751592090000012435580401134725559_);" d="M171.4,304H99.1
		c-6.7,0-12.2-5.5-12.2-12.2v-195c0-6.7,5.5-12.2,12.2-12.2h72.4V304z"/>
	
		<linearGradient id="SVGID_00000045614712505125722750000015632270481383618731_" gradientUnits="userSpaceOnUse" x1="356.3648" y1="294.8817" x2="240.2066" y2="93.6898">
		<stop  offset="0" style="stop-color:#000000"/>
		<stop  offset="2.793296e-03" style="stop-color:#56B60E"/>
		<stop  offset="1" style="stop-color:#66EB6E"/>
	</linearGradient>
	
		<rect x="256" y="84.6" style="fill:url(#SVGID_00000045614712505125722750000015632270481383618731_);" width="84.6" height="219.4"/>
	
		<linearGradient id="SVGID_00000013907522996126335180000004530868557121495686_" gradientUnits="userSpaceOnUse" x1="439.1117" y1="293.677" x2="323.9312" y2="94.1786">
		<stop  offset="0" style="stop-color:#000000"/>
		<stop  offset="2.793296e-03" style="stop-color:#0078D4"/>
		<stop  offset="1" style="stop-color:#28AFEA"/>
	</linearGradient>
	<path style="fill:url(#SVGID_00000013907522996126335180000004530868557121495686_);" d="M419.8,304h-79.2V84.6h79.2
		c3,0,5.3,2.4,5.3,5.3v208.7C425.1,301.6,422.7,304,419.8,304z"/>
	<g>
		
			<linearGradient id="SVGID_00000110464557101985534530000000807523716441358738_" gradientUnits="userSpaceOnUse" x1="147.5536" y1="430.3573" x2="99.3035" y2="346.7856">
			<stop  offset="0" style="stop-color:#D7CCB3"/>
			<stop  offset="1" style="stop-color:#F2E6CA"/>
		</linearGradient>
		<path style="fill:url(#SVGID_00000110464557101985534530000000807523716441358738_);" d="M155.3,425.1H91.5
			c-2.6,0-4.7-2.1-4.7-4.7v-63.8c0-2.6,2.1-4.7,4.7-4.7h63.8c2.6,0,4.7,2.1,4.7,4.7v63.8C160,423.1,157.9,425.1,155.3,425.1z"/>
		
			<linearGradient id="SVGID_00000051356807967152245850000015640649156886892731_" gradientUnits="userSpaceOnUse" x1="280.1251" y1="430.3573" x2="231.8749" y2="346.7856">
			<stop  offset="0" style="stop-color:#D7CCB3"/>
			<stop  offset="1" style="stop-color:#F2E6CA"/>
		</linearGradient>
		<path style="fill:url(#SVGID_00000051356807967152245850000015640649156886892731_);" d="M287.9,425.1h-63.8
			c-2.6,0-4.7-2.1-4.7-4.7v-63.8c0-2.6,2.1-4.7,4.7-4.7h63.8c2.6,0,4.7,2.1,4.7,4.7v63.8C292.6,423.1,290.5,425.1,287.9,425.1z"/>
		
			<linearGradient id="SVGID_00000002355599869589059280000001746690797765696400_" gradientUnits="userSpaceOnUse" x1="412.6965" y1="430.3573" x2="364.4464" y2="346.7856">
			<stop  offset="0" style="stop-color:#D7CCB3"/>
			<stop  offset="1" style="stop-color:#F2E6CA"/>
		</linearGradient>
		<path style="fill:url(#SVGID_00000002355599869589059280000001746690797765696400_);" d="M420.5,425.1h-63.8
			c-2.6,0-4.7-2.1-4.7-4.7v-63.8c0-2.6,2.1-4.7,4.7-4.7h63.8c2.6,0,4.7,2.1,4.7,4.7v63.8C425.1,423.1,423.1,425.1,420.5,425.1z"/>
	</g>
</g>
</svg>
