<svg width="160" height="24" viewBox="0 0 160 24" fill="none" xmlns="http://www.w3.org/2000/svg">
<rect width="159.429" height="24" fill="black" fill-opacity="0"/>
<rect width="159.429" height="24" fill="black" fill-opacity="0"/>
<path d="M59.9692 23.7H64.7606V0.3H59.9692V23.7ZM44.6678 1.425C44.436 0.975 44.1268 0.675 43.7404 0.375C43.354 0.15 42.8904 0 42.3494 0C41.8084 0 41.3448 0.15 40.9584 0.375C40.572 0.6 40.2629 0.975 40.031 1.425L26.6616 23.175L26.2752 23.7H31.7621L31.8393 23.55L42.1949 6.6L46.7544 14.025H40.031L39.9537 14.25L38.0217 17.475L37.7126 18H49.2273L52.6276 23.55L52.7049 23.7H58.5009L58.1918 23.175L44.6678 1.425ZM70.6339 11.7L85.5489 0.9L86.399 0.3H78.9028L78.8255 0.375L66.4608 9.6C65.9971 9.975 65.688 10.275 65.5334 10.65C65.3788 10.95 65.3016 11.325 65.3016 11.7C65.3016 12.075 65.3016 12.45 65.4561 12.675C65.6107 12.975 65.8425 13.275 66.2289 13.575L79.2892 23.55L79.3665 23.625H86.7854L85.9353 23.025L70.6339 11.7ZM20.3246 16.2L4.40496 0.975C4.09584 0.6 3.78672 0.375 3.4776 0.225C3.16848 0.075 2.78208 0 2.47296 0C1.70016 0 1.08192 0.225 0.69552 0.75C0.23184 1.275 0 1.95 0 2.775V23.7H4.6368V7.575L20.4792 23.025C21.0974 23.625 21.8702 24 22.5657 24C23.2613 24 23.8795 23.775 24.2659 23.25C24.7296 22.8 24.8841 22.125 24.8841 21.3V0.15H20.2473V16.2H20.3246ZM152.937 7.125C152.396 5.7 151.546 4.5 150.541 3.525C149.537 2.55 148.223 1.725 146.832 1.2C145.364 0.675 143.818 0.375 142.041 0.375H136.322C134.622 0.375 133.076 0.675 131.685 1.2C130.294 1.725 128.98 2.55 127.976 3.525C126.894 4.5 126.121 5.775 125.503 7.125C124.884 8.55 124.653 10.125 124.653 11.775C124.653 13.425 124.962 15.075 125.503 16.5C126.121 17.925 126.894 19.2 127.976 20.25C129.058 21.3 130.294 22.125 131.685 22.725C133.076 23.325 134.699 23.625 136.322 23.625H142.041C143.741 23.625 145.364 23.325 146.755 22.725C148.223 22.125 149.459 21.3 150.464 20.25C151.546 19.2 152.319 17.925 152.937 16.5C153.555 15.075 153.787 13.5 153.787 11.775C153.864 10.05 153.555 8.55 152.937 7.125ZM148.532 14.775C148.223 15.675 147.682 16.425 147.064 17.025C146.445 17.625 145.673 18.15 144.823 18.525C143.973 18.9 143.045 19.05 142.041 19.05H136.322C135.317 19.05 134.39 18.9 133.54 18.525C132.69 18.15 131.994 17.7 131.376 17.025C130.758 16.425 130.294 15.675 129.908 14.775C129.598 13.875 129.367 12.975 129.367 11.925C129.367 10.875 129.521 9.975 129.908 9.075C130.217 8.25 130.758 7.5 131.376 6.9C131.994 6.3 132.69 5.775 133.54 5.475C134.39 5.1 135.317 4.95 136.322 4.95H142.041C143.045 4.95 143.973 5.1 144.823 5.475C145.673 5.85 146.445 6.3 147.064 6.9C147.682 7.5 148.146 8.25 148.532 9.075C148.841 9.9 149.073 10.875 149.073 11.925C148.996 12.975 148.841 13.95 148.532 14.775ZM126.894 0.3H121.33L121.252 0.45L110.974 17.4L100.696 0.45L100.618 0.3H94.8225L95.1316 0.825L108.578 22.5C108.81 22.95 109.119 23.25 109.506 23.55C109.892 23.85 110.356 23.925 110.897 23.925C111.438 23.925 111.824 23.775 112.21 23.55C112.597 23.325 112.906 22.95 113.138 22.5L126.585 0.825L126.894 0.3ZM88.2537 23.7H93.0451V0.3H88.2537V23.7Z" fill="black"/>
<path d="M159.429 3.30005C159.429 4.80005 158.192 5.92505 156.646 5.92505C155.101 5.92505 153.864 4.72505 153.864 3.30005C153.864 1.80005 155.101 0.675049 156.646 0.675049C158.192 0.675049 159.429 1.80005 159.429 3.30005ZM154.56 3.30005C154.56 4.50005 155.487 5.40005 156.646 5.40005C157.806 5.40005 158.733 4.50005 158.733 3.30005C158.733 2.10005 157.806 1.20005 156.646 1.20005C155.41 1.20005 154.56 2.10005 154.56 3.30005ZM156.183 4.65005H155.565V2.02505C155.796 2.02505 156.183 1.95005 156.646 1.95005C157.187 1.95005 157.419 2.02505 157.574 2.17505C157.728 2.32505 157.883 2.47505 157.883 2.77505C157.883 3.07505 157.651 3.30005 157.342 3.37505C157.574 3.45005 157.728 3.67505 157.806 4.05005C157.883 4.42505 157.96 4.57505 158.038 4.72505H157.342C157.265 4.65005 157.187 4.42505 157.11 4.05005C157.033 3.75005 156.878 3.67505 156.569 3.67505H156.26V4.65005H156.183ZM156.183 3.15005H156.492C156.878 3.15005 157.11 3.00005 157.11 2.77505C157.11 2.55005 156.956 2.40005 156.492 2.40005C156.337 2.40005 156.183 2.40005 156.106 2.40005V3.15005H156.183Z" fill="black"/>
</svg>