<?xml version="1.0" encoding="utf-8"?>
<!-- Generator: Adobe Illustrator 28.2.0, SVG Export Plug-In . SVG Version: 6.00 Build 0)  -->
<svg version="1.1" id="Layer_1" xmlns="http://www.w3.org/2000/svg" xmlns:xlink="http://www.w3.org/1999/xlink" x="0px" y="0px"
	 viewBox="0 0 512 512" style="enable-background:new 0 0 512 512;" xml:space="preserve">
<style type="text/css">
	.st0{fill:#FF5100;}
	.st1{fill:url(#SVGID_1_);}
	.st2{fill:url(#SVGID_00000054950446126747022840000002692866078206309304_);}
	.st3{fill:#FF8C44;}
</style>
<g>
	<path class="st0" d="M464.1,114.1c-17.4,0-33.5,9.4-41.9,24.7l-1,2l-37.3,74.1l-47.5,93.6l31.1,61.3l1.7,3.4
		c4.8,8.5,12,15.3,20.8,19.7c8.7-4.3,16-11.2,20.8-19.7l1.7-3.4l93.3-184l2.3-4.4c10.6-24.2-0.5-52.5-24.8-63c-6-2.6-12.5-4-19-4
		L464.1,114.1z M175.9,203.2l-31.1-60.9l-1.7-3.4c-4.8-8.5-12-15.3-20.7-19.6c-8.7,4.3-15.9,11.1-20.7,19.6l-1.8,3.4L6.6,326.1
		l-2.3,4.4c-10.8,24.1,0.1,52.5,24.2,63.2c22.7,10.1,49.4,1.2,61.4-20.6l1-1.9l37.6-74.1l47.5-93.6
		C176,203.6,175.9,203.2,175.9,203.2z"/>
	
		<linearGradient id="SVGID_1_" gradientUnits="userSpaceOnUse" x1="-35.4423" y1="641.1797" x2="-33.7601" y2="646.8945" gradientTransform="matrix(28.8864 0 0 -45.76 1421.5656 29718.8984)">
		<stop  offset="0" style="stop-color:#D4202C"/>
		<stop  offset="9.999999e-02" style="stop-color:#DC3D29;stop-opacity:0.79"/>
		<stop  offset="0.2" style="stop-color:#E45926;stop-opacity:0.58"/>
		<stop  offset="0.32" style="stop-color:#EA7123;stop-opacity:0.4"/>
		<stop  offset="0.43" style="stop-color:#F08521;stop-opacity:0.25"/>
		<stop  offset="0.55" style="stop-color:#F4941F;stop-opacity:0.14"/>
		<stop  offset="0.68" style="stop-color:#F79F1E;stop-opacity:6.000000e-02"/>
		<stop  offset="0.82" style="stop-color:#F8A51D;stop-opacity:2.000000e-02"/>
		<stop  offset="1" style="stop-color:#F9A71D;stop-opacity:0"/>
	</linearGradient>
	<path class="st1" d="M464,114.1c-17.4,0-33.4,9.5-41.8,24.7l-1,2l-37.6,74.1L336,308.5l31.2,61.3l1.7,3.4
		c4.8,8.5,12,15.4,20.8,19.7c8.7-4.3,16-11.2,20.8-19.7l1.8-3.4l93.6-184l2.2-4.4c10.6-24.2-0.5-52.5-24.8-63c-6-2.6-12.5-4-19-4
		C464.1,114.3,464,114.1,464,114.1z"/>
	
		<linearGradient id="SVGID_00000006688746562915397380000017502013613280645513_" gradientUnits="userSpaceOnUse" x1="-43.3498" y1="646.5544" x2="-45.0331" y2="640.8397" gradientTransform="matrix(28.9064 0 0 -45.76 1367.3895 29719.7422)">
		<stop  offset="0" style="stop-color:#D4202C"/>
		<stop  offset="9.999999e-02" style="stop-color:#DC3D29;stop-opacity:0.79"/>
		<stop  offset="0.2" style="stop-color:#E45926;stop-opacity:0.58"/>
		<stop  offset="0.32" style="stop-color:#EA7123;stop-opacity:0.4"/>
		<stop  offset="0.43" style="stop-color:#F08521;stop-opacity:0.25"/>
		<stop  offset="0.55" style="stop-color:#F4941F;stop-opacity:0.14"/>
		<stop  offset="0.68" style="stop-color:#F79F1E;stop-opacity:6.000000e-02"/>
		<stop  offset="0.82" style="stop-color:#F8A51D;stop-opacity:2.000000e-02"/>
		<stop  offset="1" style="stop-color:#F9A71D;stop-opacity:0"/>
	</linearGradient>
	<path style="fill:url(#SVGID_00000006688746562915397380000017502013613280645513_);" d="M48,397.8c17.3,0.1,33.3-9.3,41.8-24.4
		l1-2l37.6-74.1l47.5-93.6L145,142.1l-1.7-3.4c-4.8-8.5-12.1-15.4-20.8-19.7c-8.7,4.3-16,11.2-20.8,19.7l-1.7,3.4l-93.7,184L4,330.6
		c-10.6,24.2,0.5,52.5,24.8,63c6,2.6,12.5,4,19,4C47.8,397.6,48,397.8,48,397.8z"/>
	<path class="st3" d="M175.9,203.2l-31.1-60.9l-1.7-3.4c-4.8-8.5-12-15.4-20.8-19.7c2.9-1.4,5.9-2.6,9.1-3.4c4-1,8.1-1.5,12.2-1.5
		h65.1c17.3,0,33.2,9.3,41.8,24.4l1.7,3.4l84.1,166.7l31,60.9l1.7,3.4c4.8,8.6,12.2,15.5,21,19.9c-6.6,3.2-13.8,4.9-21.1,4.9h-65.4
		c-17.3-0.1-33.2-9.4-41.7-24.4L260,370C260,370,175.9,203.2,175.9,203.2z"/>
</g>
</svg>
