<?xml version="1.0" encoding="UTF-8" standalone="no"?>
<svg
   xmlns:dc="http://purl.org/dc/elements/1.1/"
   xmlns:cc="http://creativecommons.org/ns#"
   xmlns:rdf="http://www.w3.org/1999/02/22-rdf-syntax-ns#"
   xmlns:svg="http://www.w3.org/2000/svg"
   xmlns="http://www.w3.org/2000/svg"
   viewBox="0 0 270 270"
   height="270"
   width="270"
   xml:space="preserve"
   id="svg2"
   version="1.1"><metadata
     id="metadata8"><rdf:RDF><cc:Work
         rdf:about=""><dc:format>image/svg+xml</dc:format><dc:type
           rdf:resource="http://purl.org/dc/dcmitype/StillImage" /><dc:title></dc:title></cc:Work></rdf:RDF></metadata><defs
     id="defs6"><clipPath
       id="clipPath24"
       clipPathUnits="userSpaceOnUse"><path
         id="path22"
         d="m 1736.15,294.105 c -12.94,6.184 -23.73,15.528 -32.07,27.766 -7.78,11.43 -13.61,25.746 -17.34,42.559 -3.5,15.785 -5.27,34.359 -5.27,55.203 v 530.051 c 0,20.695 1.78,39.136 5.28,54.816 3.74,16.71 9.58,30.93 17.38,42.28 8.34,12.15 19.14,21.42 32.08,27.55 12.43,5.89 26.92,8.87 43.08,8.87 19.73,0 37.62,-5.28 53.17,-15.71 9.15,-6.15 17.61,-14.19 25.3,-24.01 14.04,11.86 29.69,21.41 46.73,28.48 24.23,10.05 51.1,15.15 79.87,15.15 36.5,0 70.67,-7.26 101.57,-21.56 30.8,-14.27 58.99,-35.84 83.77,-64.13 24.63,-28.115 43.36,-60.19 55.68,-95.338 12.22,-34.871 18.41,-73.613 18.41,-115.168 0,-41.414 -6.34,-80.344 -18.86,-115.719 -12.58,-35.558 -31.7,-68.394 -56.83,-97.586 -25.3,-29.406 -53.74,-51.843 -84.52,-66.691 -31.01,-14.957 -65.05,-22.547 -101.17,-22.547 -25.97,0 -50.5,4.277 -72.93,12.707 -10.88,4.09 -21.53,9.207 -31.89,15.309 0,-38.77 0,-96.754 0,-96.754 0,-20.856 -1.8,-39.449 -5.36,-55.258 -3.78,-16.82 -9.69,-31.152 -17.57,-42.59 -8.42,-12.211 -19.26,-21.527 -32.22,-27.691 -12.49,-5.942 -27,-8.953 -43.15,-8.953 -16.18,0 -30.69,3.019 -43.14,8.964 m 190.38,600.36 c -9.83,-4.824 -18.85,-12.301 -26.78,-22.227 -8.21,-10.265 -14.47,-22.312 -18.62,-35.793 -4.3,-13.976 -6.48,-29.953 -6.48,-47.484 0,-18.254 2.16,-34.816 6.42,-49.215 4.09,-13.844 10.25,-26.094 18.32,-36.426 7.76,-9.933 16.68,-17.418 26.53,-22.25 9.95,-4.882 20.93,-7.254 33.54,-7.254 12.59,0 23.54,2.391 33.49,7.297 9.84,4.86 18.77,12.399 26.53,22.403 8.09,10.425 14.27,22.718 18.37,36.55 4.26,14.356 6.41,30.809 6.41,48.895 0,17.352 -2.19,33.203 -6.52,47.117 -4.19,13.461 -10.51,25.543 -18.81,35.902 -8.04,10.032 -17.09,17.59 -26.92,22.458 -9.82,4.863 -20.46,7.226 -32.55,7.226 -12.28,0 -23.05,-2.355 -32.93,-7.199 m -629.2,-399.809 c -18.89,3.547 -37.16,8.949 -54.28,16.063 -34.3,14.25 -65.32,35.863 -92.21,64.25 -26.82,28.304 -47.21,60.937 -60.63,97.008 -6.69,17.953 -11.76,37.101 -15.09,56.921 -3.31,19.661 -4.98,40.532 -4.98,62.016 0,21.484 1.67,42.352 4.98,62.008 3.33,19.805 8.4,38.941 15.09,56.875 13.42,36.027 33.83,68.605 60.65,96.843 26.89,28.29 57.92,49.84 92.2,64.04 17.12,7.1 35.39,12.49 54.28,16.02 18.75,3.51 38.63,5.3 59.09,5.3 20.54,0 40.47,-1.78 59.24,-5.27 18.92,-3.53 37.19,-8.91 54.3,-15.98 34.27,-14.17 65.17,-35.67 91.83,-63.92 26.58,-28.146 46.79,-60.717 60.08,-96.795 13.18,-35.765 19.86,-75.844 19.86,-119.121 0,-21.555 -1.66,-42.473 -4.92,-62.18 -3.3,-19.855 -8.32,-39.035 -14.93,-56.996 -13.3,-36.109 -33.5,-68.734 -60.07,-96.961 -26.66,-28.328 -57.55,-49.902 -91.84,-64.117 -17.1,-7.097 -35.37,-12.484 -54.3,-16.027 -18.78,-3.504 -38.71,-5.285 -59.25,-5.285 -20.47,0 -40.35,1.785 -59.1,5.308 m 25.85,403.703 c -9.84,-4.804 -18.81,-12.261 -26.66,-22.156 -8.14,-10.265 -14.35,-22.316 -18.47,-35.808 -4.26,-13.989 -6.42,-29.973 -6.42,-47.528 0,-18.258 2.16,-34.816 6.41,-49.211 4.09,-13.847 10.26,-26.105 18.33,-36.429 7.75,-9.934 16.68,-17.418 26.52,-22.247 9.95,-4.886 20.93,-7.257 33.54,-7.257 12.59,0 23.54,2.386 33.49,7.297 9.85,4.859 18.78,12.398 26.54,22.402 8.08,10.422 14.26,22.719 18.36,36.551 4.26,14.355 6.41,30.808 6.41,48.894 0,17.352 -2.19,33.203 -6.52,47.117 -4.18,13.461 -10.51,25.543 -18.81,35.903 -8.03,10.035 -17.09,17.59 -26.92,22.453 -9.82,4.867 -20.46,7.23 -32.55,7.23 -12.46,0 -23.33,-2.359 -33.25,-7.211 M 855.262,507.574 c -12.965,6.164 -23.809,15.485 -32.219,27.696 v -0.004 c -7.879,11.422 -13.785,25.703 -17.57,42.445 -3.551,15.734 -5.352,34.211 -5.352,54.922 0,0 0,228.074 0,260.695 -10.394,0.738 -20.078,2.356 -28.902,4.84 -13.199,3.707 -24.875,9.437 -34.692,17.035 -10.25,7.93 -18.105,17.508 -23.336,28.465 -5.175,10.828 -7.796,23.047 -7.796,36.309 0,13.57 2.617,25.953 7.781,36.823 5.293,11.13 13.25,20.69 23.652,28.41 9.735,7.24 21.797,12.91 35.84,16.87 8.309,2.34 17.492,4.13 27.453,5.37 0,19.6 0,51.75 0,51.75 0,20.71 1.801,39.19 5.352,54.91 3.781,16.75 9.691,31.03 17.57,42.46 8.414,12.21 19.254,21.52 32.219,27.69 12.48,5.94 27,8.95 43.16,8.95 16.027,0 30.433,-3.02 42.816,-8.99 12.832,-6.18 23.563,-15.51 31.891,-27.74 7.773,-11.43 13.605,-25.69 17.336,-42.42 3.508,-15.71 5.285,-34.17 5.285,-54.86 0,0 0,-30.17 0,-50.24 14.98,-0.33 28.71,-2.07 40.89,-5.17 14.41,-3.66 27.09,-9.33 37.69,-16.87 11.23,-7.98 19.83,-17.75 25.58,-29.05 5.73,-11.23 8.63,-23.979 8.63,-37.893 0,-14.168 -2.79,-26.977 -8.28,-38.075 -5.66,-11.425 -14.16,-21.054 -25.27,-28.613 -10.33,-7.027 -23.06,-12.297 -37.84,-15.668 -12.14,-2.766 -26.04,-4.336 -41.4,-4.68 0,-33.195 0,-260.308 0,-260.308 0,-20.828 -1.75,-39.375 -5.211,-55.11 -3.687,-16.781 -9.453,-31.039 -17.148,-42.382 -8.258,-12.188 -19.004,-21.481 -31.938,-27.633 -12.398,-5.891 -26.875,-8.879 -43.031,-8.879 -16.16,0 -30.68,3.008 -43.16,8.945 m -293.946,0 c -12.964,6.164 -23.808,15.485 -32.218,27.696 v -0.004 c -7.879,11.422 -13.785,25.703 -17.571,42.445 -3.55,15.734 -5.351,34.211 -5.351,54.922 v 178.312 c 0,49.477 -8.852,72.442 -16.278,82.989 -9.445,13.418 -25.632,19.941 -49.48,19.941 -11.477,0 -21.363,-1.859 -29.363,-5.523 -7.512,-3.438 -13.539,-8.481 -18.43,-15.414 -5.34,-7.567 -9.492,-17.821 -12.34,-30.461 -3.094,-13.735 -4.656,-30.418 -4.656,-49.582 V 632.633 c 0,-20.711 -1.801,-39.188 -5.359,-54.922 -3.778,-16.738 -9.688,-31.02 -17.563,-42.445 -8.418,-12.211 -19.258,-21.528 -32.227,-27.692 -12.48,-5.937 -27,-8.945 -43.156,-8.945 -16.172,0 -30.679,3.016 -43.121,8.953 -12.949,6.188 -23.738,15.531 -32.074,27.781 -7.774,11.407 -13.602,25.676 -17.336,42.399 -3.5,15.715 -5.277,34.172 -5.277,54.871 v 317.051 c 0,20.695 1.777,39.136 5.285,54.816 3.734,16.71 9.578,30.93 17.371,42.28 8.348,12.15 19.141,21.42 32.086,27.55 12.43,5.89 26.918,8.87 43.066,8.87 19.746,0 37.637,-5.28 53.184,-15.71 9.152,-6.15 17.613,-14.19 25.308,-24.02 14.661,12.36 30.883,21.98 48.438,28.69 24.238,9.27 53.656,13.97 87.43,13.97 33.238,0 63.179,-4.89 88.992,-14.52 26.48,-9.9 49.246,-25 67.668,-44.88 18.293,-19.75 32.156,-44.171 41.199,-72.566 8.781,-27.578 13.238,-59.656 13.238,-95.348 V 632.633 c 0,-20.711 -1.801,-39.184 -5.359,-54.922 -3.785,-16.738 -9.692,-31.02 -17.567,-42.445 -8.417,-12.211 -19.261,-21.528 -32.226,-27.692 -12.473,-5.937 -26.996,-8.945 -43.152,-8.945 -16.161,0 -30.68,3.008 -43.161,8.945" /></clipPath></defs><g
     transform="matrix(1.3333333,0,0,-1.3333333,-26.495333,310.5792)"
     id="g10"><path
       style="display:inline;fill:#ff7500;fill-opacity:1;stroke-width:0.09995687"
       d="m 66.384572,109.39272 c -1.301838,-1.88858 -3.287282,-2.83238 -5.954431,-2.83238 -2.668048,0 -4.653492,0.9438 -5.95493,2.83238 -1.301339,1.88749 -1.951858,4.76864 -1.951858,8.64317 v 17.82351 c 0,4.39501 -0.659116,7.52765 -1.976847,9.39985 -1.317831,1.87189 -3.489494,2.80818 -6.515189,2.80818 -2.863964,0 -4.978751,-0.96908 -6.345262,-2.90574 -1.36661,-1.93707 -2.050315,-4.97326 -2.050315,-9.10737 v -18.01843 c 0,-3.87453 -0.650919,-6.75568 -1.951958,-8.64317 -1.301738,-1.88858 -3.286781,-2.83238 -5.95483,-2.83238 -2.668349,0 -4.644496,0.9438 -5.929842,2.83238 -1.285345,1.88749 -1.927668,4.76864 -1.927668,8.64317 v 31.69143 c 0,3.87403 0.642323,6.74668 1.927668,8.61888 1.285346,1.87219 3.261493,2.80778 5.929842,2.80778 1.594212,0 3.009701,-0.41582 4.247067,-1.24546 1.235767,-0.82964 2.325497,-2.0921 3.269589,-3.78437 1.69187,1.8562 3.643428,3.20662 5.856473,4.05326 2.212745,0.84563 4.897087,1.26945 8.053625,1.26945 6.214419,0 10.964769,-1.77424 14.251651,-5.32271 3.285682,-3.54846 4.929473,-8.70833 4.929473,-15.47971 v -22.60855 c 0,-3.87453 -0.651219,-6.75568 -1.952258,-8.64317 z m 39.997038,38.28348 c -1.67528,-1.13931 -4.1722,-1.70866 -7.491564,-1.70866 h -1.268553 v -27.93165 c 0,-3.90611 -0.634926,-6.79586 -1.904278,-8.66776 -1.268553,-1.87219 -3.238103,-2.80779 -5.905252,-2.80779 -2.668049,0 -4.653092,0.9438 -5.95483,2.83238 -1.301439,1.88749 -1.951958,4.76864 -1.951958,8.64317 v 27.93165 h -0.585248 c -2.766406,0 -4.938069,0.61034 -6.515988,1.83091 -1.577819,1.22097 -2.367279,2.87296 -2.367279,4.95686 0,2.14837 0.78946,3.80865 2.367279,4.98015 1.577919,1.17249 3.944398,1.83921 7.101236,2.00214 v 6.934 c 0,3.87433 0.650519,6.75509 1.951958,8.64327 1.301738,1.88719 3.286781,2.83278 5.95483,2.83278 2.635563,0 4.595317,-0.94559 5.881462,-2.83278 1.284546,-1.88818 1.928068,-4.76894 1.928068,-8.64327 v -6.934 h 1.366211 c 3.123746,0 5.555696,-0.61874 7.295946,-1.8552 1.74125,-1.23747 2.61188,-2.94673 2.61188,-5.12709 0,-2.24673 -0.83864,-3.9394 -2.51392,-5.07911 z m 48.34414,-34.10828 c -4.97885,-5.29072 -11.3561,-7.93488 -19.13274,-7.93488 -7.74466,0 -14.12991,2.65236 -19.15674,7.95907 -5.02783,5.30591 -7.54074,12.0612 -7.54074,20.26506 0,8.20386 2.51291,14.94985 7.54074,20.24086 5.02683,5.28972 11.41208,7.93457 19.15674,7.93457 7.77664,0 14.15389,-2.63686 19.13274,-7.90998 4.97785,-5.27382 7.46678,-12.02991 7.46678,-20.26545 0,-8.23665 -2.48893,-14.99943 -7.46678,-20.28925 z m -11.68996,29.98236 c -1.96815,2.45794 -4.44908,3.68671 -7.44278,3.68671 -3.05968,0 -5.55661,-1.22097 -7.49177,-3.66212 -1.93617,-2.44154 -2.90475,-5.61597 -2.90475,-9.52249 0,-4.03696 0.95959,-7.28396 2.87976,-9.74189 1.92017,-2.45794 4.42509,-3.68671 7.51676,-3.68671 3.09066,0 5.59658,1.23696 7.51675,3.71129 1.91917,2.47354 2.87876,5.71324 2.87876,9.71731 0,3.87373 -0.98458,7.03956 -2.95273,9.4979 z m 72.23483,-29.76255 c -4.73395,-5.50233 -10.43749,-8.25234 -17.10661,-8.25234 -2.37598,0 -4.58103,0.38263 -6.61415,1.1472 -2.03412,0.76407 -3.96129,1.91208 -5.7825,3.44222 V 96.74508 c 0,-3.906114 -0.65172,-6.802964 -1.95316,-8.691549 -1.30144,-1.887886 -3.28658,-2.832378 -5.95343,-2.832378 -2.66985,0 -4.646,0.944492 -5.93144,2.832378 -1.28545,1.888585 -1.92717,4.785435 -1.92717,8.691549 v 52.98224 c 0,3.87403 0.64172,6.74668 1.92717,8.61888 1.28544,1.87219 3.26159,2.80778 5.93144,2.80778 1.59331,0 3.0087,-0.41582 4.24616,-1.24546 1.23547,-0.82964 2.325,-2.0921 3.26859,-3.78437 1.6273,1.79023 3.53948,3.14165 5.73553,4.05326 2.19605,0.9106 4.61201,1.36741 7.24787,1.36741 6.76708,0 12.46162,-2.63687 17.08263,-7.91099 4.62001,-5.27392 6.93001,-11.86598 6.93001,-19.77666 0,-7.8782 -2.36698,-14.56872 -7.10094,-20.06944 z m -11.95784,29.37202 c -1.96915,2.45724 -4.45008,3.68671 -7.44278,3.68671 -3.0257,0 -5.51562,-1.22057 -7.46778,-3.66202 -1.95216,-2.44234 -2.92874,-5.61598 -2.92874,-9.52249 0,-4.03736 0.95959,-7.28396 2.87976,-9.7419 1.92017,-2.45834 4.42509,-3.68671 7.51676,-3.68671 3.09066,0 5.59658,1.23657 7.51675,3.7113 1.91917,2.47354 2.87876,5.71314 2.87876,9.71731 0,3.87373 -0.98457,7.03956 -2.95273,9.4978 z"
       id="path34" /></g></svg>