<?xml version="1.0" encoding="utf-8"?>
<!-- Generator: Adobe Illustrator 28.2.0, SVG Export Plug-In . SVG Version: 6.00 Build 0)  -->
<svg version="1.1" id="Layer_1" xmlns="http://www.w3.org/2000/svg" xmlns:xlink="http://www.w3.org/1999/xlink" x="0px" y="0px"
	 viewBox="0 0 512 512" style="enable-background:new 0 0 512 512;" xml:space="preserve">
<style type="text/css">
	.st0{fill-rule:evenodd;clip-rule:evenodd;fill:#00A870;}
</style>
<g>
	<path class="st0" d="M126,162.6l-77.4-54.2c-3.7,5.1-7.2,10.3-10.5,15.6l77.8,54.4C119,173,122.4,167.7,126,162.6z M109.6,191.3
		l-88.1-35.6c-3.2,7.1-6,14.4-8.5,21.9l88.7,35.8C103.8,205.8,106.4,198.4,109.6,191.3z M99.4,222.7l-94.6-15
		c-1.9,9.2-3.2,18.5-4,27.9L96,250.7C96.3,241.2,97.4,231.8,99.4,222.7z M95.9,256c0-0.1,0-0.3,0-0.4L0,262.3
		c0.3,11,1.3,22,3.1,32.7l96.1-6.7C97,277.9,95.9,267.1,95.9,256z M512,256c0,135.2-114.7,256-256.1,256c-80.3,0-152-39-198.9-97.5
		l39.6-36.9l-47,27.1c-8.5-11.6-15.9-23.8-22.4-36.6l65.2-37.6l-72.5,22.1c-5-11.7-9.1-23.8-12.3-36.2l91.6-28
		c15,72.7,79.5,127.4,156.7,127.4c88.4,0,160-71.6,160-160s-71.7-160-160-160c-46.7,0-88.6,20-117.9,51.8L74.7,77.5
		C121,30.3,185.1,0,255.9,0C397.3,0,512,120.8,512,256z"/>
</g>
</svg>
