<?xml version="1.0" encoding="utf-8"?>
<!-- Generator: Adobe Illustrator 28.2.0, SVG Export Plug-In . SVG Version: 6.00 Build 0)  -->
<svg version="1.1" id="Layer_1" xmlns="http://www.w3.org/2000/svg" xmlns:xlink="http://www.w3.org/1999/xlink" x="0px" y="0px"
	 viewBox="0 0 512 512" style="enable-background:new 0 0 512 512;" xml:space="preserve">
<style type="text/css">
	.st0{fill:#ED7778;}
	.st1{fill:#FFFFFF;}
</style>
<g>
	<g>
		<path class="st0" d="M256,0C114.6,0,0.4,114.2,0.4,255.6S114.6,512,256,512s255.6-114.2,255.6-255.6S397.4,0,256,0z"/>
	</g>
	<g>
		<g>
			<path class="st1" d="M188.7,149.7c-19.7-10.6-41.6-18.9-64.3-24.2c-4.5,9.8-6.8,19.7-6.8,31c0,16.6,5.3,31.8,14.4,43.9
				C146.3,179.2,165.2,161.1,188.7,149.7z"/>
			<path class="st1" d="M380,200.4c9.1-12.1,14.4-27.2,14.4-43.9c0-11.3-2.3-21.9-6.8-31c-22.7,4.5-44.6,12.9-64.3,24.2
				C346,161.1,365.7,179.2,380,200.4z"/>
		</g>
		<g>
			<path class="st1" d="M290,235.2c-4.5,0-8.3,3.8-8.3,8.3c0,1.5,0.8,3,1.5,4.5l0,0c3,4.5,7.6,7.6,12.9,9.1c1.5-3,2.3-6.8,2.3-10.6
				c0-1.5,0-2.3,0-3.8C297.6,238.2,294.6,235.2,290,235.2z"/>
			<path class="st1" d="M250.7,142.9c-74.9,3-133.1,66.6-133.1,141.4v77.9c0,13.6,11.3,25,25,25s25-11.3,25-25v-20.4H343v20.4
				c0,13.6,11.3,25,25,25c13.6,0,25-11.3,25-25v-81.7C393.6,202.7,329.4,139.9,250.7,142.9z M329.4,251.8
				c-4.5,7.6-11.3,12.9-19.7,15.9c-5.3,10.6-16.6,18.2-29.5,18.2c-1.5,0-3,0-3.8,0c-4.5,0-8.3-3.8-8.3-8.3s3.8-8.3,8.3-8.3l0,0
				c3.8,0,7.6-1.5,10.6-3c-4.5-2.3-9.1-5.3-12.1-9.8c-3-3.8-4.5-7.6-4.5-12.9c0-10.6,9.1-19.7,19.7-19.7c6.8,0,12.1,3,15.9,8.3
				c4.5,6.1,7.6,12.9,7.6,21.2c0,0.8,0,1.5,0,3c3.8-1.5,6.8-4.5,9.1-7.6c1.5-2.3,3.8-2.3,6.1-1.5
				C330.1,246.5,330.9,249.6,329.4,251.8z"/>
		</g>
	</g>
</g>
</svg>
