<?xml version="1.0" encoding="UTF-8"?>
<svg xmlns="http://www.w3.org/2000/svg" xmlns:xlink="http://www.w3.org/1999/xlink" width="128px" height="128px" viewBox="0 0 128 128" version="1.1">
<g id="surface1">
<rect x="0" y="0" width="128" height="128" style="fill:rgb(100%,100%,100%);fill-opacity:1;stroke:none;"/>
<path style=" stroke:none;fill-rule:nonzero;fill:rgb(0.392157%,0.392157%,0.392157%);fill-opacity:1;" d="M 25.726562 18.816406 L 25.726562 18.945312 C 35.792969 29.015625 44.714844 40.242188 54.527344 50.558594 C 56.867188 53.019531 59.15625 55.566406 61.402344 58.113281 C 61.914062 58.691406 63.171875 60.644531 64 60.644531 C 64.828125 60.644531 66.085938 58.691406 66.597656 58.113281 C 68.84375 55.566406 71.132812 53.019531 73.472656 50.558594 C 83.285156 40.242188 92.207031 29.015625 102.273438 18.945312 C 101.007812 17.152344 98.660156 15.851562 96.640625 15.097656 C 91.507812 13.179688 85.625 13.796875 81.152344 17.042969 C 77.410156 19.757812 74.402344 23.847656 71.316406 27.265625 C 69.542969 29.230469 67.710938 31.152344 65.972656 33.152344 C 65.589844 33.59375 64.625 35.066406 64 35.066406 C 63.351562 35.066406 62.296875 33.484375 61.898438 33.023438 C 60.042969 30.890625 58.066406 28.851562 56.171875 26.753906 C 52.878906 23.113281 49.652344 18.734375 45.441406 16.136719 C 39.222656 12.296875 30.773438 13.773438 25.726562 18.816406 Z M 25.726562 18.816406 "/>
<path style=" stroke:none;fill-rule:nonzero;fill:rgb(89.803922%,44.313725%,0.392157%);fill-opacity:1;" d="M 18.175781 26.679688 C 14.78125 27.125 11.707031 27.777344 8.832031 29.789062 C 8.238281 30.203125 6.621094 31.109375 6.519531 31.882812 C 6.4375 32.492188 7.433594 33.273438 7.804688 33.664062 C 9.148438 35.089844 10.433594 36.578125 11.765625 38.015625 C 17.289062 43.980469 22.644531 50.101562 28.171875 56.0625 C 29.976562 58.011719 31.707031 60.027344 33.535156 61.953125 C 33.933594 62.371094 35.335938 63.511719 35.171875 64.128906 C 34.992188 64.820312 33.898438 65.660156 33.414062 66.175781 C 31.992188 67.683594 30.589844 69.230469 29.21875 70.785156 C 23.964844 76.746094 18.574219 82.617188 13.171875 88.449219 C 11.484375 90.269531 9.796875 92.089844 8.15625 93.953125 C 7.695312 94.472656 6.597656 95.261719 6.515625 96 C 6.425781 96.851562 8.464844 98.042969 9.089844 98.449219 C 12.050781 100.394531 15.410156 101.398438 18.945312 101.488281 C 26.859375 101.683594 31.765625 96.140625 36.628906 90.753906 C 41.652344 85.191406 46.851562 79.769531 51.765625 74.113281 C 53.917969 71.632812 56.191406 69.25 58.390625 66.816406 C 58.957031 66.1875 60.6875 64.886719 60.6875 64 C 60.6875 63.125 58.949219 61.800781 58.378906 61.183594 C 56.101562 58.726562 53.851562 56.242188 51.605469 53.761719 C 45.953125 47.507812 40.300781 41.253906 34.570312 35.070312 C 30.339844 30.507812 24.976562 25.785156 18.175781 26.679688 M 108.160156 26.679688 C 105.261719 27.058594 102.683594 27.558594 100.097656 29.039062 C 95.886719 31.449219 92.78125 35.746094 89.578125 39.296875 C 85.207031 44.136719 80.769531 48.921875 76.394531 53.761719 C 74.148438 56.242188 71.898438 58.726562 69.621094 61.183594 C 69.050781 61.800781 67.3125 63.125 67.3125 64 C 67.3125 64.921875 69.140625 66.28125 69.722656 66.945312 C 72.238281 69.796875 74.886719 72.539062 77.402344 75.390625 C 81.558594 80.105469 85.878906 84.679688 90.089844 89.34375 C 92.703125 92.234375 95.183594 95.554688 98.304688 97.914062 C 102.808594 101.320312 108.664062 102.191406 114.046875 100.75 C 116.148438 100.1875 118.234375 99.050781 119.9375 97.707031 C 120.378906 97.355469 121.40625 96.734375 121.480469 96.128906 C 121.558594 95.507812 120.574219 94.738281 120.195312 94.335938 C 118.769531 92.824219 117.382812 91.269531 115.988281 89.726562 C 110.269531 83.402344 104.417969 77.179688 98.78125 70.785156 C 97.332031 69.140625 95.84375 67.511719 94.339844 65.921875 C 93.953125 65.507812 92.808594 64.585938 92.808594 64 C 92.808594 63.34375 94.152344 62.28125 94.585938 61.824219 C 96.289062 60.023438 97.875 58.113281 99.585938 56.320312 C 105.175781 50.4375 110.636719 44.359375 116.003906 38.273438 C 117.300781 36.804688 118.644531 35.375 119.957031 33.921875 C 120.394531 33.433594 121.40625 32.699219 121.484375 32.003906 C 121.574219 31.164062 119.398438 29.929688 118.785156 29.527344 C 115.847656 27.617188 111.710938 26.210938 108.160156 26.679688 Z M 108.160156 26.679688 "/>
<path style=" stroke:none;fill-rule:nonzero;fill:rgb(0.392157%,0.392157%,0.392157%);fill-opacity:1;" d="M 25.726562 109.054688 L 25.726562 109.183594 C 31.28125 114.730469 40.101562 115.554688 46.59375 111.136719 C 50.421875 108.527344 53.285156 104.335938 56.445312 100.992188 C 58.300781 99.027344 60.128906 97.003906 61.914062 94.976562 C 62.324219 94.511719 63.339844 92.933594 64 92.933594 C 64.679688 92.933594 65.785156 94.621094 66.210938 95.105469 C 68.085938 97.230469 70.058594 99.273438 71.957031 101.375 C 75.214844 104.976562 78.390625 109.289062 82.558594 111.863281 C 88.777344 115.703125 97.226562 114.226562 102.273438 109.183594 C 99.484375 105.226562 95.558594 101.773438 92.308594 98.175781 C 86.015625 91.207031 79.796875 84.140625 73.347656 77.3125 C 71.058594 74.886719 68.804688 72.390625 66.597656 69.886719 C 66.085938 69.308594 64.828125 67.355469 64 67.355469 C 63.171875 67.355469 61.914062 69.308594 61.402344 69.886719 C 59.15625 72.433594 56.867188 74.980469 54.527344 77.441406 C 44.714844 87.757812 35.792969 98.984375 25.726562 109.054688 Z M 25.726562 109.054688 "/>
</g>
</svg>
