<?xml version="1.0" encoding="UTF-8" standalone="no"?>
<!-- Created with Inkscape (http://www.inkscape.org/) -->

<svg
   width="128px"
   height="128px"
   viewBox="0 0 191.6311 165.94585"
   version="1.1"
   id="svg190"
   xmlns="http://www.w3.org/2000/svg"
   xmlns:svg="http://www.w3.org/2000/svg">
  <defs
     id="defs187" />
  <g
     id="layer1"
     transform="translate(-9.2167027,-67.405989)">
    <path
       style="fill:#e46f00;stroke-width:0.212855"
       d="m 80.228759,224.87785 c 0.211895,-0.23414 0.433157,-0.42571 0.491691,-0.42571 0.05853,0 -0.06697,0.19157 -0.278838,0.42571 -0.211895,0.23414 -0.433149,0.42571 -0.491683,0.42571 -0.05853,0 0.06697,-0.19157 0.27883,-0.42571 z m 48.822871,-0.79821 c -0.26476,-0.33759 -0.25723,-0.34512 0.0804,-0.0804 0.20487,0.16068 0.37249,0.3283 0.37249,0.3725 0,0.17519 -0.17479,0.0625 -0.45286,-0.29214 z m -46.800757,-1.4107 c 0,-0.0442 0.167622,-0.21182 0.372495,-0.37249 0.337598,-0.26477 0.345133,-0.25724 0.08037,0.0804 -0.278068,0.35456 -0.452863,0.46731 -0.452863,0.29212 z m 44.459367,-1.14354 c -0.26477,-0.3376 -0.25724,-0.34513 0.0804,-0.0804 0.20487,0.16068 0.37249,0.3283 0.37249,0.3725 0,0.17518 -0.17479,0.0624 -0.45285,-0.29213 z m -81.495984,-0.13358 c 0,-0.0442 0.167623,-0.21183 0.372494,-0.37249 0.3376,-0.26477 0.345128,-0.25724 0.08036,0.0804 -0.278066,0.35456 -0.452858,0.46732 -0.452858,0.29213 z m 119.171164,-0.29213 c -0.26477,-0.3376 -0.25723,-0.34513 0.0804,-0.0804 0.20488,0.16066 0.3725,0.32829 0.3725,0.37249 0,0.17519 -0.17479,0.0624 -0.45286,-0.29213 z M 47.342796,219.05042 c 0,-0.0442 0.167623,-0.21182 0.372496,-0.37249 0.337599,-0.26476 0.345129,-0.25723 0.08036,0.0804 -0.278066,0.35457 -0.45286,0.46732 -0.45286,0.29213 z m 114.914084,-0.29213 c -0.26477,-0.33759 -0.25724,-0.34512 0.0804,-0.0804 0.35456,0.27807 0.46731,0.45286 0.29212,0.45286 -0.0442,0 -0.21182,-0.16762 -0.37249,-0.3725 z M 49.471338,216.70903 c 0,-0.0442 0.167622,-0.21182 0.372495,-0.3725 0.3376,-0.26476 0.345127,-0.25723 0.08037,0.0804 -0.278066,0.35457 -0.45286,0.46733 -0.45286,0.29214 z m 110.657002,-0.29214 c -0.26477,-0.33759 -0.25724,-0.34512 0.0804,-0.0804 0.20487,0.16068 0.37249,0.3283 0.37249,0.3725 0,0.17519 -0.17479,0.0625 -0.45285,-0.29214 z M 51.59988,214.36763 c 0,-0.0442 0.167622,-0.21182 0.372495,-0.3725 0.337598,-0.26475 0.345127,-0.25723 0.08037,0.0804 -0.278068,0.35456 -0.452861,0.46732 -0.452861,0.29213 z m 68.29903,-0.29213 c -0.26477,-0.3376 -0.25724,-0.34512 0.0804,-0.0804 0.20487,0.16068 0.37249,0.3283 0.37249,0.3725 0,0.17519 -0.17479,0.0624 -0.45285,-0.29213 z m 38.10088,0 c -0.26476,-0.3376 -0.25723,-0.34512 0.0804,-0.0804 0.20487,0.16068 0.37249,0.3283 0.37249,0.3725 0,0.17519 -0.17479,0.0624 -0.45286,-0.29213 z M 25.774681,212.19876 c -5.749844,-0.89446 -10.990399,-3.43232 -15.427892,-7.4713 l -1.1300864,-1.02859 24.1715454,-26.5521 c 13.294352,-14.60365 24.171548,-26.64953 24.171548,-26.76863 0,-0.11909 -10.87697,-12.16463 -24.171045,-26.76786 L 9.217708,97.058938 10.134437,96.246595 c 5.833342,-5.169101 12.614935,-7.80645 20.073601,-7.806583 7.398168,-1.34e-4 14.164355,2.657413 19.923242,7.825221 1.456296,1.306826 49.360777,53.821797 49.360777,54.111427 0,0.3135 -48.409648,53.53608 -49.814968,54.76762 -6.559285,5.74817 -15.443825,8.37032 -23.902408,7.05448 z m 149.706309,0.0232 c -5.71157,-0.94017 -10.84846,-3.34707 -15.10554,-7.07773 -1.40533,-1.23154 -49.81498,-54.45412 -49.81498,-54.76762 0,-0.28963 47.90449,-52.804596 49.36078,-54.111422 5.75889,-5.167808 12.52508,-7.825356 19.92325,-7.825221 7.45866,1.33e-4 14.24025,2.637482 20.0736,7.806583 l 0.91672,0.812343 -24.17104,26.551337 c -13.29407,14.60323 -24.17104,26.64936 -24.17104,26.76917 0,0.15444 38.5352,42.70219 47.83721,52.81834 l 0.51786,0.56319 -1.6682,1.43533 c -4.0077,3.44822 -8.38483,5.65156 -13.3752,6.73275 -2.55008,0.55249 -7.83556,0.70248 -10.32342,0.29295 z M 53.728422,212.02624 c 0,-0.0442 0.167622,-0.21182 0.372493,-0.3725 0.3376,-0.26476 0.345129,-0.25724 0.08037,0.0804 -0.278065,0.35456 -0.452858,0.46732 -0.452858,0.29213 z m 102.142828,-0.29213 c -0.26476,-0.33761 -0.25723,-0.34513 0.0804,-0.0804 0.20487,0.16068 0.37249,0.3283 0.37249,0.3725 0,0.17519 -0.17479,0.0625 -0.45286,-0.29213 z m -38.31374,-0.21286 c -0.26476,-0.3376 -0.25723,-0.34512 0.0804,-0.0804 0.20487,0.16067 0.37249,0.32829 0.37249,0.3725 0,0.17518 -0.17479,0.0624 -0.45286,-0.29214 z m -61.700548,-1.83641 c 0,-0.0442 0.167623,-0.21182 0.372495,-0.3725 0.3376,-0.26475 0.345128,-0.25723 0.08037,0.0804 -0.278066,0.35456 -0.45286,0.46732 -0.45286,0.29213 z m 97.885748,-0.29213 c -0.26476,-0.3376 -0.25724,-0.34512 0.0804,-0.0804 0.20487,0.16068 0.37249,0.3283 0.37249,0.3725 0,0.17519 -0.17479,0.0625 -0.45286,-0.29213 z m -38.5266,-0.4257 c -0.26476,-0.33761 -0.25723,-0.34514 0.0804,-0.0804 0.20487,0.16067 0.37249,0.3283 0.37249,0.37249 0,0.17519 -0.17479,0.0625 -0.45286,-0.29212 z m -57.230606,-1.62356 c 0,-0.0442 0.167623,-0.21182 0.372495,-0.3725 0.337598,-0.26476 0.345127,-0.25723 0.08037,0.0804 -0.278066,0.35456 -0.45286,0.46731 -0.45286,0.29213 z m 93.628666,-0.29213 c -0.26476,-0.3376 -0.25724,-0.34513 0.0804,-0.0804 0.20487,0.16068 0.3725,0.3283 0.3725,0.3725 0,0.17518 -0.1748,0.0624 -0.45286,-0.29213 z m -38.73945,-0.63857 c -0.26476,-0.33759 -0.25723,-0.34512 0.0804,-0.0804 0.20488,0.16067 0.3725,0.32829 0.3725,0.37249 0,0.17519 -0.1748,0.0625 -0.45286,-0.29213 z m -52.760674,-1.4107 c 0,-0.0442 0.167623,-0.21182 0.372493,-0.37249 0.337599,-0.26477 0.345126,-0.25724 0.08036,0.0804 -0.278063,0.35457 -0.452855,0.46732 -0.452855,0.29213 z m 89.371584,-0.29213 c -0.26476,-0.3376 -0.25724,-0.34513 0.0804,-0.0804 0.35456,0.27806 0.46732,0.45285 0.29213,0.45285 -0.0442,0 -0.21182,-0.16762 -0.37249,-0.37249 z m -38.95231,-0.85142 c -0.26476,-0.3376 -0.25723,-0.34512 0.0804,-0.0804 0.20488,0.16067 0.3725,0.32829 0.3725,0.3725 0,0.17518 -0.1748,0.0625 -0.45286,-0.29214 z m -11.041263,-0.13358 c 0,-0.0442 0.167624,-0.21181 0.372494,-0.37249 0.337599,-0.26476 0.345129,-0.25723 0.0804,0.0804 -0.27807,0.35456 -0.452864,0.46731 -0.452864,0.29212 z m -37.249473,-1.06427 c 0,-0.0442 0.167623,-0.21181 0.372496,-0.37249 0.337598,-0.26476 0.345133,-0.25723 0.08037,0.0804 -0.278069,0.35456 -0.452864,0.46731 -0.452864,0.29212 z m 85.114496,-0.29212 c -0.26476,-0.3376 -0.25723,-0.34513 0.0804,-0.0804 0.20488,0.16068 0.3725,0.3283 0.3725,0.37249 0,0.17519 -0.1748,0.0625 -0.45287,-0.29212 z m -39.16516,-1.06427 c -0.26475,-0.3376 -0.25723,-0.34514 0.0804,-0.0804 0.20487,0.16068 0.3725,0.3283 0.3725,0.37249 0,0.17519 -0.1748,0.0625 -0.45287,-0.29212 z m -6.57132,0.0793 c 0,-0.0442 0.16762,-0.21182 0.37249,-0.37249 0.33761,-0.26477 0.34513,-0.25724 0.0804,0.0804 -0.27807,0.35457 -0.45286,0.46732 -0.45286,0.29213 z m -37.249469,-1.06427 c 0,-0.0442 0.167623,-0.21182 0.372488,-0.37249 0.337599,-0.26477 0.345133,-0.25724 0.08037,0.0804 -0.278069,0.35457 -0.452857,0.46732 -0.452857,0.29213 z m 80.857409,-0.29213 c -0.26476,-0.3376 -0.25723,-0.34513 0.0804,-0.0804 0.20488,0.16067 0.3725,0.32829 0.3725,0.37249 0,0.17519 -0.1748,0.0624 -0.45287,-0.29213 z m -41.4794,-0.985 c 0,-0.0442 0.16763,-0.21182 0.3725,-0.37249 0.3376,-0.26476 0.34512,-0.25723 0.0804,0.0804 -0.27806,0.35456 -0.45286,0.46731 -0.45286,0.29212 z m -37.249469,-1.06427 c 0,-0.0442 0.167622,-0.21182 0.372495,-0.37249 0.337599,-0.26476 0.345126,-0.25723 0.08036,0.0804 -0.278069,0.35456 -0.452856,0.46731 -0.452856,0.29212 z m 76.600339,-0.29212 c -0.26477,-0.3376 -0.25724,-0.34513 0.0804,-0.0804 0.20487,0.16067 0.37249,0.3283 0.37249,0.37249 0,0.17519 -0.17479,0.0624 -0.45285,-0.29212 z m -74.4718,-2.04927 c 0,-0.0442 0.167623,-0.21183 0.372496,-0.37249 0.337598,-0.26477 0.345125,-0.25724 0.08036,0.0804 -0.278061,0.35456 -0.452857,0.46732 -0.452857,0.29213 z m 72.34326,-0.29213 c -0.26477,-0.3376 -0.25724,-0.34513 0.0804,-0.0804 0.20487,0.16066 0.37249,0.32829 0.37249,0.37249 0,0.17519 -0.17479,0.0625 -0.45285,-0.29213 z M 70.75675,193.2951 c 0,-0.0442 0.167623,-0.21182 0.372496,-0.37249 0.337598,-0.26476 0.345125,-0.25723 0.08037,0.0804 -0.278069,0.35456 -0.452864,0.46732 -0.452864,0.29213 z m 68.08617,-0.29213 c -0.26476,-0.33759 -0.25723,-0.34512 0.0804,-0.0804 0.20487,0.16067 0.37249,0.32829 0.37249,0.37249 0,0.17519 -0.17479,0.0625 -0.45286,-0.29213 z m -65.95763,-2.04926 c 0,-0.0442 0.167622,-0.21182 0.372495,-0.3725 0.337599,-0.26476 0.345133,-0.25723 0.08037,0.0804 -0.278069,0.35457 -0.452864,0.46733 -0.452864,0.29214 z m 63.82909,-0.29214 c -0.26477,-0.33759 -0.25723,-0.34512 0.0804,-0.0804 0.35456,0.27807 0.46731,0.45286 0.29212,0.45286 -0.0442,0 -0.21181,-0.16762 -0.37249,-0.3725 z m -61.700543,-2.04925 c 0,-0.0442 0.167623,-0.21183 0.372496,-0.3725 0.337598,-0.26476 0.345125,-0.25724 0.08036,0.0804 -0.278068,0.35456 -0.452856,0.46732 -0.452856,0.29214 z m 59.572003,-0.29214 c -0.26477,-0.3376 -0.25724,-0.34512 0.0804,-0.0804 0.20486,0.16067 0.37249,0.32829 0.37249,0.3725 0,0.17518 -0.17479,0.0625 -0.45286,-0.29214 z m -57.443463,-2.04926 c 0,-0.0442 0.167622,-0.21182 0.372494,-0.3725 0.337599,-0.26476 0.345126,-0.25723 0.08036,0.0804 -0.27806,0.35456 -0.452855,0.46731 -0.452855,0.29213 z m 55.314923,-0.29213 c -0.26477,-0.3376 -0.25724,-0.34513 0.0804,-0.0804 0.20487,0.16068 0.3725,0.3283 0.3725,0.3725 0,0.17518 -0.1748,0.0625 -0.45286,-0.29213 z m -53.186385,-2.04926 c 0,-0.0442 0.167623,-0.21183 0.372496,-0.3725 0.337598,-0.26477 0.345125,-0.25724 0.08037,0.0804 -0.278068,0.35456 -0.452864,0.46732 -0.452864,0.29214 z m 51.057835,-0.29214 c -0.26475,-0.3376 -0.25723,-0.34513 0.0804,-0.0804 0.20487,0.16067 0.3725,0.32829 0.3725,0.3725 0,0.17518 -0.1748,0.0624 -0.45287,-0.29214 z m -48.929295,-2.04926 c 0,-0.0442 0.167623,-0.21182 0.372496,-0.3725 0.337598,-0.26476 0.345133,-0.25723 0.08037,0.0804 -0.278069,0.35456 -0.452864,0.46731 -0.452864,0.29213 z M 128.20021,181.296 c -0.26475,-0.3376 -0.25723,-0.34513 0.0804,-0.0804 0.20487,0.16068 0.3725,0.3283 0.3725,0.3725 0,0.17518 -0.1748,0.0624 -0.45287,-0.29213 z M 81.585164,119.35541 c -0.264765,-0.3376 -0.257238,-0.34513 0.08036,-0.0804 0.354561,0.27807 0.467323,0.45287 0.292135,0.45287 -0.0442,0 -0.211826,-0.16762 -0.372495,-0.3725 z m 46.429346,0.29213 c 0,-0.0442 0.16762,-0.21183 0.3725,-0.3725 0.3376,-0.26476 0.34512,-0.25723 0.0804,0.0804 -0.27807,0.35456 -0.45287,0.46732 -0.45287,0.29213 z m -48.557894,-2.63353 c -0.264757,-0.3376 -0.25723,-0.34512 0.08037,-0.0804 0.35456,0.27806 0.467314,0.45286 0.292127,0.45286 -0.0442,0 -0.211819,-0.16762 -0.372496,-0.3725 z m 50.686434,0.29213 c 0,-0.0442 0.16762,-0.21182 0.3725,-0.37249 0.3376,-0.26476 0.34513,-0.25724 0.0804,0.0804 -0.27807,0.35456 -0.45287,0.46732 -0.45287,0.29213 z m -52.814972,-2.63352 c -0.264765,-0.3376 -0.25723,-0.34513 0.08037,-0.0804 0.35456,0.27807 0.467314,0.45287 0.292126,0.45287 -0.0442,0 -0.211819,-0.16763 -0.372494,-0.3725 z m 54.943522,0.29213 c 0,-0.0442 0.16762,-0.21182 0.37249,-0.3725 0.3376,-0.26476 0.34513,-0.25723 0.0804,0.0804 -0.27806,0.35456 -0.45285,0.46732 -0.45285,0.29213 z m -57.072062,-2.63353 c -0.264765,-0.3376 -0.257238,-0.34512 0.08036,-0.0804 0.354568,0.27806 0.467322,0.45286 0.292135,0.45286 -0.0442,0 -0.211827,-0.16762 -0.372496,-0.3725 z m 59.200602,0.29213 c 0,-0.0442 0.16762,-0.21182 0.37249,-0.37249 0.3376,-0.26476 0.34513,-0.25724 0.0804,0.0804 -0.27806,0.35456 -0.45285,0.46731 -0.45285,0.29213 z m -61.329142,-2.63352 c -0.264764,-0.3376 -0.257237,-0.34513 0.08036,-0.0804 0.354561,0.27807 0.467322,0.45286 0.292135,0.45286 -0.0442,0 -0.211827,-0.16762 -0.372496,-0.37249 z m 63.457682,0.29213 c 0,-0.0442 0.16762,-0.21182 0.37249,-0.3725 0.3376,-0.26476 0.34513,-0.25723 0.0804,0.0804 -0.27807,0.35456 -0.45286,0.46731 -0.45286,0.29213 z m -65.586229,-2.63353 c -0.264757,-0.3376 -0.25723,-0.34513 0.08037,-0.0804 0.354561,0.27806 0.467315,0.45286 0.292128,0.45286 -0.0442,0 -0.211819,-0.16763 -0.372496,-0.3725 z m 67.714769,0.29213 c 0,-0.0442 0.16762,-0.21182 0.37249,-0.37249 0.3376,-0.26477 0.34513,-0.25724 0.0804,0.0804 -0.27807,0.35456 -0.45286,0.46732 -0.45286,0.29213 z m -69.843309,-2.63352 c -0.264764,-0.3376 -0.25723,-0.34514 0.08037,-0.0804 0.35456,0.27807 0.467314,0.45286 0.292127,0.45286 -0.0442,0 -0.211819,-0.16762 -0.372496,-0.37249 z m 71.971849,0.29212 c 0,-0.0442 0.16763,-0.21181 0.37249,-0.37249 0.33761,-0.26477 0.34514,-0.25723 0.0804,0.0804 -0.27807,0.35456 -0.45286,0.46731 -0.45286,0.29213 z m -74.100388,-2.63352 c -0.264765,-0.3376 -0.257238,-0.34513 0.08037,-0.0804 0.354561,0.27807 0.467315,0.45286 0.292127,0.45286 -0.0442,0 -0.211826,-0.16762 -0.372495,-0.37249 z m 76.228928,0.29213 c 0,-0.0442 0.16763,-0.21182 0.3725,-0.37249 0.3376,-0.26477 0.34513,-0.25724 0.0804,0.0804 -0.27806,0.35456 -0.45286,0.46731 -0.45286,0.29213 z m -37.24947,-1.06427 c 0,-0.0442 0.16762,-0.21182 0.3725,-0.37249 0.33759,-0.26477 0.34512,-0.25724 0.0804,0.0804 -0.27806,0.35456 -0.45286,0.46731 -0.45286,0.29213 z m -41.107998,-1.56925 c -0.264764,-0.3376 -0.257237,-0.34513 0.08036,-0.0804 0.354561,0.27806 0.467322,0.45286 0.292135,0.45286 -0.0442,0 -0.211827,-0.16763 -0.372496,-0.3725 z m 80.486008,0.29212 c 0,-0.0442 0.16763,-0.21182 0.3725,-0.37249 0.3376,-0.26476 0.34512,-0.25723 0.0804,0.0804 -0.27807,0.35456 -0.45287,0.46732 -0.45287,0.29213 z m -37.24947,-1.064267 c 0,-0.0442 0.16762,-0.21182 0.3725,-0.372495 0.33759,-0.264762 0.34512,-0.257232 0.0804,0.08037 -0.27807,0.354561 -0.45286,0.467312 -0.45286,0.292127 z m -6.19992,-0.504982 c -0.26476,-0.337601 -0.25724,-0.345129 0.0804,-0.08037 0.35456,0.278066 0.46732,0.452861 0.29213,0.452861 -0.0442,0 -0.21182,-0.167623 -0.37249,-0.372495 z M 62.428293,98.28285 c -0.264765,-0.3376 -0.257238,-0.345129 0.08036,-0.08037 0.354561,0.278068 0.467315,0.452861 0.292128,0.452861 -0.0442,0 -0.21182,-0.167623 -0.372488,-0.372494 z m 84.743087,0.292129 c 0,-0.0442 0.16763,-0.211822 0.3725,-0.372496 0.3376,-0.264762 0.34512,-0.257233 0.0804,0.08037 -0.27807,0.354562 -0.45287,0.467316 -0.45287,0.292129 z m -37.24947,-1.06427 c 0,-0.0442 0.16762,-0.211824 0.3725,-0.372495 0.33759,-0.264763 0.34513,-0.257236 0.0804,0.08036 -0.27807,0.354562 -0.45286,0.467318 -0.45286,0.292131 z M 99.252053,96.792871 c -0.264764,-0.3376 -0.25723,-0.345129 0.08037,-0.08037 0.204865,0.160672 0.372488,0.328295 0.372488,0.372493 0,0.175188 -0.174788,0.06243 -0.452857,-0.292128 z M 60.299748,95.941454 c -0.264764,-0.3376 -0.257235,-0.345127 0.08037,-0.08037 0.204874,0.160673 0.372496,0.328296 0.372496,0.372496 0,0.175188 -0.174795,0.06243 -0.452861,-0.29213 z m 89.000172,0.29213 c 0,-0.0442 0.16763,-0.211823 0.3725,-0.372496 0.3376,-0.264761 0.34513,-0.257234 0.0804,0.08037 -0.27807,0.354562 -0.45287,0.467318 -0.45287,0.29213 z M 96.910661,94.238621 c -0.264764,-0.3376 -0.257237,-0.345129 0.08036,-0.08037 0.35456,0.278066 0.467322,0.452858 0.292135,0.452858 -0.0442,0 -0.211827,-0.167622 -0.372496,-0.372493 z M 58.171206,93.600058 c -0.264763,-0.337599 -0.257233,-0.345129 0.08036,-0.08036 0.204872,0.160672 0.372495,0.328294 0.372495,0.372493 0,0.175188 -0.174795,0.06243 -0.45286,-0.292129 z m 93.257264,0.292129 c 0,-0.0442 0.16762,-0.211821 0.3725,-0.372493 0.33759,-0.264765 0.34512,-0.257235 0.0804,0.08036 -0.27806,0.354563 -0.45286,0.467317 -0.45286,0.292129 z M 94.569262,91.684371 c -0.264765,-0.3376 -0.257231,-0.345129 0.08037,-0.08036 0.204873,0.160672 0.372495,0.328294 0.372495,0.372493 0,0.175187 -0.174795,0.06243 -0.452863,-0.292129 z M 56.042664,91.258662 c -0.264762,-0.337598 -0.257233,-0.345127 0.08037,-0.08037 0.354562,0.278066 0.467316,0.45286 0.292128,0.45286 -0.0442,0 -0.211821,-0.167622 -0.372495,-0.372495 z m 97.514346,0.29213 c 0,-0.0442 0.16762,-0.211821 0.3725,-0.372495 0.33759,-0.264762 0.34512,-0.257233 0.0804,0.08037 -0.27806,0.354562 -0.45286,0.467317 -0.45286,0.29213 z m -61.329141,-2.42067 c -0.264764,-0.3376 -0.257237,-0.345129 0.08036,-0.08037 0.204873,0.160672 0.372496,0.328294 0.372496,0.372493 0,0.175188 -0.174795,0.06243 -0.452857,-0.292128 z M 53.914123,88.917267 c -0.264763,-0.3376 -0.257234,-0.345129 0.08037,-0.08037 0.204873,0.160672 0.372495,0.328295 0.372495,0.372496 0,0.175187 -0.174794,0.06243 -0.452861,-0.292131 z m 101.771427,0.292131 c 0,-0.0442 0.16762,-0.211824 0.3725,-0.372496 0.33759,-0.264764 0.34512,-0.257235 0.0804,0.08037 -0.27807,0.354562 -0.45286,0.467318 -0.45286,0.292131 z M 51.785582,86.575872 c -0.264762,-0.3376 -0.257235,-0.345129 0.08036,-0.08037 0.204873,0.160673 0.372495,0.328295 0.372495,0.372493 0,0.175188 -0.174794,0.06243 -0.45286,-0.292128 z M 157.81409,86.868 c 0,-0.0442 0.16762,-0.21182 0.37249,-0.372493 0.3376,-0.264764 0.34513,-0.257235 0.0804,0.08037 -0.27807,0.354562 -0.45286,0.467316 -0.45286,0.292128 z M 49.65704,84.234476 c -0.264762,-0.337599 -0.257233,-0.345127 0.08037,-0.08037 0.204873,0.160675 0.372496,0.328297 0.372496,0.372496 0,0.175187 -0.174793,0.06243 -0.452861,-0.29213 z m 38.10089,0 c -0.264764,-0.337599 -0.25723,-0.345127 0.08036,-0.08037 0.354568,0.278066 0.467322,0.452861 0.292135,0.452861 -0.0442,0 -0.211819,-0.167622 -0.372496,-0.372495 z m 72.18471,0.29213 c 0,-0.0442 0.16762,-0.211821 0.37249,-0.372496 0.3376,-0.264761 0.34513,-0.257233 0.0804,0.08037 -0.27807,0.354561 -0.45285,0.467317 -0.45285,0.29213 z M 47.5285,81.893081 c -0.264764,-0.3376 -0.257235,-0.345129 0.08037,-0.08037 0.204871,0.160672 0.372494,0.328295 0.372494,0.372495 0,0.175186 -0.174793,0.06243 -0.452859,-0.29213 z m 114.54268,0.29213 c 0,-0.0442 0.16762,-0.211823 0.37249,-0.372495 0.3376,-0.264764 0.34513,-0.257235 0.0804,0.08037 -0.27806,0.354562 -0.45285,0.467316 -0.45285,0.29213 z M 85.416538,81.680226 c -0.264765,-0.337598 -0.257238,-0.345127 0.08036,-0.08037 0.35456,0.278066 0.467322,0.45286 0.292135,0.45286 -0.0442,0 -0.211827,-0.167622 -0.372496,-0.372495 z m -40.01658,-2.12854 c -0.264762,-0.3376 -0.257235,-0.345129 0.08036,-0.08037 0.354562,0.278068 0.467318,0.452861 0.292131,0.452861 -0.0442,0 -0.211824,-0.167623 -0.372496,-0.372494 z m 118.799762,0.292128 c 0,-0.0442 0.16762,-0.21182 0.37249,-0.372495 0.3376,-0.264762 0.34513,-0.257233 0.0804,0.08037 -0.27806,0.354562 -0.45285,0.467316 -0.45285,0.292128 z M 83.075138,79.125977 c -0.264764,-0.337601 -0.25723,-0.345128 0.08037,-0.08037 0.204865,0.160671 0.372488,0.328294 0.372488,0.372495 0,0.175187 -0.174788,0.06243 -0.452857,-0.29213 z M 127.16309,78.56669 c 0,-0.0442 0.16763,-0.211822 0.3725,-0.372496 0.3376,-0.264761 0.34513,-0.257233 0.0804,0.08037 -0.27807,0.354562 -0.45287,0.467316 -0.45287,0.292129 z M 80.733746,76.571727 c -0.264764,-0.3376 -0.257237,-0.345127 0.08036,-0.08037 0.204873,0.160672 0.372496,0.328295 0.372496,0.372495 0,0.175188 -0.174795,0.06243 -0.452857,-0.29213 z m 48.877174,-0.691775 c 0.21189,-0.234141 0.43315,-0.425709 0.49169,-0.425709 0.0585,0 -0.067,0.191568 -0.27884,0.425709 -0.21189,0.234139 -0.43315,0.425708 -0.49169,0.425708 -0.0585,0 0.067,-0.191569 0.27884,-0.425708 z"
       id="path174" />
    <path
       style="fill:#000000;stroke-width:0.212855"
       d="m 57.559796,233.26332 c -4.42503,-0.81318 -6.56122,-1.49228 -9.333824,-2.96722 -2.14013,-1.13848 -4.764456,-2.98517 -5.824226,-4.09839 l -0.749906,-0.78773 31.56242,-34.69522 c 17.359331,-19.08238 31.67473,-34.69523 31.81201,-34.69523 0.13727,0 14.45267,15.61285 31.812,34.69523 l 31.56243,34.69522 -0.74991,0.78773 c -1.84736,1.94053 -6.2127,4.57185 -9.43397,5.68656 -2.6928,0.93183 -4.69131,1.30313 -7.74619,1.43913 -4.60101,0.20484 -8.89484,-0.69754 -12.90876,-2.71285 -4.29394,-2.15591 -5.1236,-2.94929 -19.45238,-18.60176 -7.1311,-7.78988 -13.01866,-14.16342 -13.08345,-14.16342 -0.0648,0 -5.518786,5.94095 -12.119987,13.2021 -6.601202,7.26116 -12.73892,13.90597 -13.639369,14.76626 -3.73709,3.57039 -8.190557,5.94829 -13.192726,7.04417 -1.542754,0.33799 -7.370938,0.6155 -8.514162,0.40542 z M 73.267937,110.10224 41.65194,75.347816 42.401796,74.560088 c 1.847129,-1.940418 6.212601,-4.571826 9.433919,-5.686554 2.692796,-0.931838 4.691308,-1.303132 7.746194,-1.439132 4.60101,-0.204835 8.894834,0.69754 12.908749,2.712849 4.296163,2.157023 5.135685,2.95979 19.457378,18.605475 7.128807,7.787835 13.014284,14.159704 13.078854,14.159704 0.0646,0 5.51839,-5.940948 12.11959,-13.2021 6.6012,-7.261153 12.73892,-13.905968 13.63937,-14.766253 3.80336,-3.633709 8.24036,-5.978546 13.40558,-7.08448 2.52023,-0.539613 7.91629,-0.539143 10.42263,8.29e-4 4.82476,1.03961 10.35314,3.880651 13.03673,6.699581 l 0.74991,0.787787 -31.55444,34.686446 c -17.35494,19.07753 -31.64621,34.71702 -31.75838,34.75442 -0.11217,0.0374 -14.431138,-15.57152 -31.819943,-34.68645 z"
       id="path172" />
  </g>
</svg>
