<?xml version="1.0" encoding="utf-8"?>
<!-- Generator: Adobe Illustrator 28.2.0, SVG Export Plug-In . SVG Version: 6.00 Build 0)  -->
<svg version="1.1" id="Layer_1" xmlns="http://www.w3.org/2000/svg" xmlns:xlink="http://www.w3.org/1999/xlink" x="0px" y="0px"
	 viewBox="0 0 512 512" style="enable-background:new 0 0 512 512;" xml:space="preserve">
<style type="text/css">
	.st0{fill:#50BD37;}
</style>
<path class="st0" d="M255.9,318.3c-36.3,0-62.1-26.6-62.1-62.2c0-35.7,25.8-62.3,62.1-62.3c36.6,0,62.4,26.6,62.4,62.3
	C318.2,291.7,292.4,318.3,255.9,318.3z M255.7,132.9c-71.9,0-122.9,52.6-122.9,123.1c0,70.6,51,123.1,122.9,123.1
	c72.4,0,123.4-52.6,123.4-123.1C379.2,185.4,328.1,132.9,255.7,132.9z M255.6,443C146.5,443,69,363.1,69,256
	c0-107.1,77.5-186.9,186.6-186.9c109.8,0,187.3,79.8,187.3,186.9C442.9,363.1,365.4,443,255.6,443z M255.5,0C106.1,0,0,109.3,0,256
	c0,146.7,106.1,256,255.5,256C405.9,512,512,402.7,512,256C512,109.3,405.9,0,255.5,0z"/>
</svg>
