<?xml version="1.0" encoding="utf-8"?>
<!-- Generator: Adobe Illustrator 28.2.0, SVG Export Plug-In . SVG Version: 6.00 Build 0)  -->
<svg version="1.1" id="Layer_1" xmlns="http://www.w3.org/2000/svg" xmlns:xlink="http://www.w3.org/1999/xlink" x="0px" y="0px"
	 viewBox="0 0 512 512" style="enable-background:new 0 0 512 512;" xml:space="preserve">
<style type="text/css">
	.st0{fill:#FFFFFF;}
	.st1{fill:#333366;}
</style>
<g>
	<polygon class="st0" points="444.9,414.4 512,97.6 67.1,97.6 0,414.4 	"/>
	<path class="st1" d="M330.8,164.1c51.7,12.1,53,24.8,53,24.8c33.6,0,42.3,0,48.3,6c19.5,18.1-13.4,62.4-13.4,62.4
		C414.7,260,44.3,405,44.3,405h389.9l62.4-294.6H77.8C77.8,110.4,324.8,162.7,330.8,164.1"/>
	<path class="st1" d="M369.1,207c-5.4,2.7-21.5,5.4-26.8,6s-8.1,0.7-8.1,2c0,2,7.4,1.3,10.1,1.3c12.1,0,59.7-3.4,71.1-1.3
		c8.7,1.3-1.3,18.8-4,29.5c-0.7,4,2,2,3.4,0c3.4-5.4,12.7-22.8,13.4-29.5c1.3-13.4-8.1-15.4-24.2-15.4h-24.8c-2,0-2.7,0.7-3.4,2
		C373.8,203.7,370.4,205.7,369.1,207"/>
	<path class="st1" d="M214.7,306.3L15.4,405l48.3-226.1l0,0h201.3c3.4,0,108,0,110,20.8H193.9l28.2,85.9
		c32.2-15.4,111.4-47.6,159-49.7c20.1-0.7,28.2,2.7,24.2,5.4c-2.7,1.3-22.1,4-37.6,8.1c-26.8,6.7-28.2,6.7-56.4,16.1
		C279.8,276.1,253.7,288.2,214.7,306.3"/>
</g>
</svg>
