<svg xmlns="http://www.w3.org/2000/svg" viewBox="0 0 100 95"><defs><style>.cls-1{fill:#0076ff;}.cls-2{fill:#52aeff;}</style></defs><g id="Layer_2" data-name="Layer 2"><g id="Layer_1-2" data-name="Layer 1"><path class="cls-1" d="M46.87,90.08c-3.06-4.86-3.48-5.49-4.31-6.47C42,83,40.2,81.16,39.42,80.48A97.64,97.64,0,0,0,26.84,71.4a72.18,72.18,0,0,1-7.54-5.6,76.08,76.08,0,0,1-5.6-5.43C4.69,50.42,0,38.69,0,26.11A50,50,0,0,1,4.46,5.38,34.5,34.5,0,0,1,7.37,0C8.1.42,19.25,7.26,19.25,7.28s-.22.41-.48.87a36.12,36.12,0,0,0-4.39,23c1.41,9.9,7.24,19,16.69,26.13,1.36,1,2.27,1.64,4,2.79,3.75,2.4,5.9,3.88,8.53,5.83a72.5,72.5,0,0,1,6.09,5l.26.24.19-.17c4.63-4.19,8-6.6,15-11.13,7.82-5,13.57-11.11,17-18a34.87,34.87,0,0,0,3.57-19.14A35.92,35.92,0,0,0,81.2,8.11c-.25-.44-.45-.81-.45-.83s.45-.3,1-.63L92.58,0c.1-.06.12,0,.51.62A49.88,49.88,0,0,1,87.4,59.12a68.61,68.61,0,0,1-6.12,6.18,70.62,70.62,0,0,1-9,6.69c-8.15,5.24-13,9.18-15.63,12.65-.22.29-1.79,2.74-3.49,5.44S50,95,50,95s-1.43-2.21-3.13-4.92Z"/><path class="cls-2" d="M48.85,57.65a69.36,69.36,0,0,1-10.59-6,37.36,37.36,0,0,1-9.85-9.46,16.21,16.21,0,0,1-3-9.8A24.35,24.35,0,0,1,28,22.07a23.77,23.77,0,0,1,2.8-4.39,24.54,24.54,0,0,1,16.11-9,27,27,0,0,1,5.89,0A24.58,24.58,0,0,1,70.94,20.17a30.61,30.61,0,0,1,1.9,3.8,24.75,24.75,0,0,1,1.74,8.43c.25,6.21-3.52,12.26-11.23,18a66.46,66.46,0,0,1-9.17,5.74c-1.41.74-4,2-4.18,2s-.56-.22-1.15-.49Zm2.07-9a57.06,57.06,0,0,0,8.55-5.54c4-3.17,6.35-6.31,6.86-9a15.3,15.3,0,0,0-.08-3.4A16.44,16.44,0,0,0,59,19.3a16.62,16.62,0,0,0-7-2.59,22.49,22.49,0,0,0-4,0,16.11,16.11,0,0,0-5.35,1.64,16.55,16.55,0,0,0-8.8,11.72,14.24,14.24,0,0,0-.17,4.08c.81,4.32,6.52,9.73,15.24,14.43.58.31,1.06.57,1.08.57l.93-.48Z"/><path class="cls-2" d="M49.05,41.71a9.7,9.7,0,0,1-4.71-1.9A12.12,12.12,0,0,1,42.48,38a10.27,10.27,0,0,1-1.81-4.13A14.18,14.18,0,0,1,40.6,31a9.64,9.64,0,0,1,4.22-6.89,9.53,9.53,0,0,1,3.8-1.5,9.74,9.74,0,0,1,2.75,0,9.63,9.63,0,0,1,8,8.18,12.1,12.1,0,0,1,0,2.69,9.67,9.67,0,0,1-4.24,6.73,9.48,9.48,0,0,1-6.08,1.52Z"/></g></g></svg>